<?xml version="1.0" encoding="utf-8"?>
<!-- Generator: Adobe Illustrator 24.2.1, SVG Export Plug-In . SVG Version: 6.00 Build 0)  -->
<svg version="1.1" id="Layer_1" xmlns="http://www.w3.org/2000/svg" xmlns:xlink="http://www.w3.org/1999/xlink" x="0px" y="0px"
	 viewBox="0 0 95 95" style="enable-background:new 0 0 95 95;" xml:space="preserve">
<style type="text/css">
	.st0{fill:#FFFFFF;}
	.st1{fill:none;stroke:#FFFFFF;}
</style>
<g>
	<g>
		<g>
			<g>
				<path class="st0" d="M41.1,43.3H17.2c-1.7,0-3.1-1.1-3.5-2.7c-0.5-2.1-1-3.8-1.6-4.8c-3-6-2.7-12.3,0.9-16.2
					c3.1-3.4,7.7-4.3,12.7-2.6c0.9,0.3,1.9,0.9,2.9,1.5c0,0,0.1,0,0.1,0.1c9.6-4.8,14.5-2.1,16.7,0c3.8,3.8,4.1,10.6,0.8,17.1
					c-0.6,1.1-1.1,2.8-1.6,4.8C44.2,42.1,42.8,43.3,41.1,43.3z M21,17.9c-2.6,0-4.8,1-6.5,2.9c-3.1,3.5-3.3,8.8-0.6,14.1
					c0.6,1.3,1.2,3,1.8,5.2c0.2,0.8,0.9,1.3,1.7,1.3h23.8c0.8,0,1.5-0.5,1.7-1.3c0.5-2.3,1.1-4,1.8-5.2c2.9-5.7,2.7-11.9-0.4-15
					c-2.9-2.9-7.6-3-13.4-0.3c1.4,0.7,2.9,1.3,3.7,0.8c0.4-0.3,1-0.2,1.3,0.3c0.3,0.4,0.2,1-0.3,1.3c-2.1,1.3-4.9-0.4-7.5-1.9
					c-1-0.6-1.9-1.1-2.7-1.4C23.6,18.2,22.2,17.9,21,17.9z"/>
			</g>
			<g>
				<path class="st0" d="M37.8,49.9H20.9c-1.6,0-2.8-1.3-2.8-2.8v-4.7c0-0.5,0.4-0.9,0.9-0.9s0.9,0.4,0.9,0.9v4.7c0,0.5,0.4,1,1,1
					h16.9c0.5,0,1-0.4,1-1v-4.7c0-0.5,0.4-0.9,0.9-0.9c0.5,0,0.9,0.4,0.9,0.9v4.7C40.5,48.7,39.2,49.9,37.8,49.9z"/>
			</g>
			<g>
				<path class="st0" d="M29.3,80.8c-1.5,0-3.3-1.5-5.5-4.4c-1.6-2.1-2.4-4.5-2.4-7.1V49.2c0-0.5,0.4-0.9,0.9-0.9s0.9,0.4,0.9,0.9
					v20.1c0,2.2,0.7,4.3,2.1,6c2.7,3.6,3.9,3.7,4.1,3.7c0.6,0,2-0.9,4-3.6c1.4-1.9,2.2-4,2.2-6.1V49.2c0-0.5,0.4-0.9,0.9-0.9
					c0.5,0,0.9,0.4,0.9,0.9v20.1c0,2.6-0.9,5-2.5,7.2C32.5,79.3,30.7,80.8,29.3,80.8z"/>
			</g>
			<g>
				<path class="st0" d="M40.4,55H18.2c-0.5,0-0.9-0.4-0.9-0.9c0-0.5,0.4-0.9,0.9-0.9h22.2c0.5,0,0.9,0.4,0.9,0.9
					C41.3,54.6,40.9,55,40.4,55z"/>
			</g>
			<g>
				<path class="st0" d="M39.6,59.8H18.9c-0.5,0-0.9-0.4-0.9-0.9c0-0.5,0.4-0.9,0.9-0.9h20.7c0.5,0,0.9,0.4,0.9,0.9
					C40.4,59.4,40.1,59.8,39.6,59.8z"/>
			</g>
			<g>
				<path class="st0" d="M38.8,64.6H19.9c-0.5,0-0.9-0.4-0.9-0.9s0.4-0.9,0.9-0.9h18.9c0.5,0,0.9,0.4,0.9,0.9S39.2,64.6,38.8,64.6z"
					/>
			</g>
			<g>
				<path class="st0" d="M37.3,69.4h-16c-0.5,0-0.9-0.4-0.9-0.9s0.4-0.9,0.9-0.9h16c0.5,0,0.9,0.4,0.9,0.9S37.8,69.4,37.3,69.4z"/>
			</g>
		</g>
		<g>
			<g>
				<path class="st0" d="M84.5,88.7H10.6c-5.4,0-10-4.4-10-10V16.1c0-5.5,4.5-10,10-10h73.8c5.5,0,10,4.5,10,10v62.7
					C94.5,84.3,90,88.7,84.5,88.7z M10.6,7.9c-4.5,0-8.2,3.7-8.2,8.2v62.7c0,4.5,3.7,8.2,8.2,8.2h73.8c4.5,0,8.2-3.7,8.2-8.2V16.1
					c0-4.5-3.7-8.2-8.2-8.2H10.6z"/>
			</g>
			<g>
				<path class="st0" d="M76.7,88.7c-0.5,0-0.9-0.4-0.9-0.9V7c0-0.5,0.4-0.9,0.9-0.9c0.5,0,0.9,0.4,0.9,0.9v80.9
					C77.6,88.3,77.2,88.7,76.7,88.7z"/>
			</g>
			<g>
				<path class="st0" d="M69.5,67.6h-8.7c-0.5,0-0.9-0.4-0.9-0.9c0-0.5,0.4-0.9,0.9-0.9h8.7c0.5,0,0.9,0.4,0.9,0.9
					C70.4,67.1,70,67.6,69.5,67.6z"/>
			</g>
			<g>
				<path class="st0" d="M69.5,13.9h-8.7c-0.5,0-0.9-0.4-0.9-0.9c0-0.5,0.4-0.9,0.9-0.9h8.7c0.5,0,0.9,0.4,0.9,0.9
					S70,13.9,69.5,13.9z"/>
			</g>
			<g>
				<path class="st0" d="M69.5,74.2H55.3c-0.5,0-0.9-0.4-0.9-0.9s0.4-0.9,0.9-0.9h14.2c0.5,0,0.9,0.4,0.9,0.9
					C70.4,73.7,70,74.2,69.5,74.2z"/>
			</g>
			<g>
				<path class="st0" d="M69.5,80.8H55.3c-0.5,0-0.9-0.4-0.9-0.9c0-0.5,0.4-0.9,0.9-0.9h14.2c0.5,0,0.9,0.4,0.9,0.9
					C70.4,80.4,70,80.8,69.5,80.8z"/>
			</g>
		</g>
	</g>
	<g>
		<g>
			<g>
				<path class="st1" d="M41.1,43.3H17.2c-1.7,0-3.1-1.1-3.5-2.7c-0.5-2.1-1-3.8-1.6-4.8c-3-6-2.7-12.3,0.9-16.2
					c3.1-3.4,7.7-4.3,12.7-2.6c0.9,0.3,1.9,0.9,2.9,1.5c0,0,0.1,0,0.1,0.1c9.6-4.8,14.5-2.1,16.7,0c3.8,3.8,4.1,10.6,0.8,17.1
					c-0.6,1.1-1.1,2.8-1.6,4.8C44.2,42.1,42.8,43.3,41.1,43.3z M21,17.9c-2.6,0-4.8,1-6.5,2.9c-3.1,3.5-3.3,8.8-0.6,14.1
					c0.6,1.3,1.2,3,1.8,5.2c0.2,0.8,0.9,1.3,1.7,1.3h23.8c0.8,0,1.5-0.5,1.7-1.3c0.5-2.3,1.1-4,1.8-5.2c2.9-5.7,2.7-11.9-0.4-15
					c-2.9-2.9-7.6-3-13.4-0.3c1.4,0.7,2.9,1.3,3.7,0.8c0.4-0.3,1-0.2,1.3,0.3c0.3,0.4,0.2,1-0.3,1.3c-2.1,1.3-4.9-0.4-7.5-1.9
					c-1-0.6-1.9-1.1-2.7-1.4C23.6,18.2,22.2,17.9,21,17.9z"/>
			</g>
			<g>
				<path class="st1" d="M37.8,49.9H20.9c-1.6,0-2.8-1.3-2.8-2.8v-4.7c0-0.5,0.4-0.9,0.9-0.9s0.9,0.4,0.9,0.9v4.7c0,0.5,0.4,1,1,1
					h16.9c0.5,0,1-0.4,1-1v-4.7c0-0.5,0.4-0.9,0.9-0.9c0.5,0,0.9,0.4,0.9,0.9v4.7C40.5,48.7,39.2,49.9,37.8,49.9z"/>
			</g>
			<g>
				<path class="st1" d="M29.3,80.8c-1.5,0-3.3-1.5-5.5-4.4c-1.6-2.1-2.4-4.5-2.4-7.1V49.2c0-0.5,0.4-0.9,0.9-0.9s0.9,0.4,0.9,0.9
					v20.1c0,2.2,0.7,4.3,2.1,6c2.7,3.6,3.9,3.7,4.1,3.7c0.6,0,2-0.9,4-3.6c1.4-1.9,2.2-4,2.2-6.1V49.2c0-0.5,0.4-0.9,0.9-0.9
					c0.5,0,0.9,0.4,0.9,0.9v20.1c0,2.6-0.9,5-2.5,7.2C32.5,79.3,30.7,80.8,29.3,80.8z"/>
			</g>
			<g>
				<path class="st1" d="M40.4,55H18.2c-0.5,0-0.9-0.4-0.9-0.9c0-0.5,0.4-0.9,0.9-0.9h22.2c0.5,0,0.9,0.4,0.9,0.9
					C41.3,54.6,40.9,55,40.4,55z"/>
			</g>
			<g>
				<path class="st1" d="M39.6,59.8H18.9c-0.5,0-0.9-0.4-0.9-0.9c0-0.5,0.4-0.9,0.9-0.9h20.7c0.5,0,0.9,0.4,0.9,0.9
					C40.4,59.4,40.1,59.8,39.6,59.8z"/>
			</g>
			<g>
				<path class="st1" d="M38.8,64.6H19.9c-0.5,0-0.9-0.4-0.9-0.9s0.4-0.9,0.9-0.9h18.9c0.5,0,0.9,0.4,0.9,0.9S39.2,64.6,38.8,64.6z"
					/>
			</g>
			<g>
				<path class="st1" d="M37.3,69.4h-16c-0.5,0-0.9-0.4-0.9-0.9s0.4-0.9,0.9-0.9h16c0.5,0,0.9,0.4,0.9,0.9S37.8,69.4,37.3,69.4z"/>
			</g>
		</g>
		<g>
			<g>
				<path class="st1" d="M84.5,88.7H10.6c-5.4,0-10-4.4-10-10V16.1c0-5.5,4.5-10,10-10h73.8c5.5,0,10,4.5,10,10v62.7
					C94.5,84.3,90,88.7,84.5,88.7z M10.6,7.9c-4.5,0-8.2,3.7-8.2,8.2v62.7c0,4.5,3.7,8.2,8.2,8.2h73.8c4.5,0,8.2-3.7,8.2-8.2V16.1
					c0-4.5-3.7-8.2-8.2-8.2H10.6z"/>
			</g>
			<g>
				<path class="st1" d="M76.7,88.7c-0.5,0-0.9-0.4-0.9-0.9V7c0-0.5,0.4-0.9,0.9-0.9c0.5,0,0.9,0.4,0.9,0.9v80.9
					C77.6,88.3,77.2,88.7,76.7,88.7z"/>
			</g>
			<g>
				<path class="st1" d="M69.5,67.6h-8.7c-0.5,0-0.9-0.4-0.9-0.9c0-0.5,0.4-0.9,0.9-0.9h8.7c0.5,0,0.9,0.4,0.9,0.9
					C70.4,67.1,70,67.6,69.5,67.6z"/>
			</g>
			<g>
				<path class="st1" d="M69.5,13.9h-8.7c-0.5,0-0.9-0.4-0.9-0.9c0-0.5,0.4-0.9,0.9-0.9h8.7c0.5,0,0.9,0.4,0.9,0.9
					S70,13.9,69.5,13.9z"/>
			</g>
			<g>
				<path class="st1" d="M69.5,74.2H55.3c-0.5,0-0.9-0.4-0.9-0.9s0.4-0.9,0.9-0.9h14.2c0.5,0,0.9,0.4,0.9,0.9
					C70.4,73.7,70,74.2,69.5,74.2z"/>
			</g>
			<g>
				<path class="st1" d="M69.5,80.8H55.3c-0.5,0-0.9-0.4-0.9-0.9c0-0.5,0.4-0.9,0.9-0.9h14.2c0.5,0,0.9,0.4,0.9,0.9
					C70.4,80.4,70,80.8,69.5,80.8z"/>
			</g>
		</g>
	</g>
</g>
</svg>
