<svg xmlns="http://www.w3.org/2000/svg" viewBox="0 0 95 89.75"><defs><style>.cls-1{fill:#fff;}</style></defs><g id="Layer_2" data-name="Layer 2"><g id="Layer_1-2" data-name="Layer 1"><path class="cls-1" d="M17.29,31.68a2.51,2.51,0,1,0-2.51-2.51A2.5,2.5,0,0,0,17.29,31.68Z"/><path class="cls-1" d="M30.35,31.68a2.51,2.51,0,1,0-2.51-2.51A2.51,2.51,0,0,0,30.35,31.68Z"/><path class="cls-1" d="M50.08,31.41h0A25,25,0,0,0,37.23,9.55c-.57-1.44-1.35-4.16.14-5.65A1.93,1.93,0,0,1,40,3.82a1.92,1.92,0,0,1,.78,2.39,1.67,1.67,0,0,0,.65,2.26,1.65,1.65,0,0,0,2.25-.64A5.2,5.2,0,0,0,42,1.17a5.17,5.17,0,0,0-7,.39,7,7,0,0,0-1.7,6.23A24.76,24.76,0,0,0,25,6.37a25,25,0,1,0,25,25.08S50.08,31.43,50.08,31.41Zm-.47-1.15a1.8,1.8,0,0,0-.54-.38A1.8,1.8,0,0,1,49.61,30.26Zm-3-1.67A19.71,19.71,0,0,1,36.9,13.23,21.74,21.74,0,0,1,46.56,28.59ZM25,9.69a21.67,21.67,0,0,1,8.27,1.64C26.43,19,10.94,21.4,5.46,22A21.74,21.74,0,0,1,25,9.69Zm0,43.43A21.74,21.74,0,0,1,3.32,31.4a21.49,21.49,0,0,1,.83-5.92,81.19,81.19,0,0,0,13.07-2.24c7.25-1.88,12.82-4.5,16.64-7.82a25.06,25.06,0,0,0,1.23,4.45A22.89,22.89,0,0,0,46.72,32.45,21.74,21.74,0,0,1,25,53.12ZM49.49,32.66a1.86,1.86,0,0,0,.44-.59A1.86,1.86,0,0,1,49.49,32.66Z"/><path class="cls-1" d="M35,39.93a1.66,1.66,0,0,0-2.33.26,11,11,0,0,1-17,0A1.66,1.66,0,0,0,13,42.27a14.31,14.31,0,0,0,22.17,0A1.67,1.67,0,0,0,35,39.93Z"/><path class="cls-1" d="M82.7,43.17c1.4-1.27,1.55-3.57,1.61-4.52a4.09,4.09,0,0,0-.54-2.87,1.53,1.53,0,0,0-1.24-.4c-2.16,0-5.75,1.85-9,4.55A25,25,0,0,1,82.7,43.17Z"/><path class="cls-1" d="M57.41,35.38a1.5,1.5,0,0,0-1.23.4,4.08,4.08,0,0,0-.55,2.87c.16,2.46.83,3.8,1.6,4.53a24.88,24.88,0,0,1,9.23-3.25C63.16,37.23,59.58,35.38,57.41,35.38Z"/><path class="cls-1" d="M95,64.68v0a25,25,0,0,0-9.53-19.57,10.23,10.23,0,0,0,2.16-6.22c.15-2.38-.33-4.18-1.44-5.36a4.82,4.82,0,0,0-3.66-1.45c-2.44,0-5.18,1.32-7,2.42A34,34,0,0,0,70,38.59a34,34,0,0,0-5.51-4.11c-1.87-1.1-4.61-2.42-7-2.42a4.86,4.86,0,0,0-3.66,1.45c-1.1,1.18-1.58,3-1.43,5.36a10.17,10.17,0,0,0,2.14,6.21,24.94,24.94,0,0,0-9.54,19.58v0s0,0,0,0a25,25,0,0,0,50.07,0ZM70,86.43A21.73,21.73,0,0,1,48.28,65.6c1.7-1.12,5.9-3.95,10.29-7.52,5.56-4.5,9.38-8.5,11.4-11.92,2,3.42,5.83,7.42,11.39,11.92,4.4,3.57,8.59,6.4,10.3,7.52A21.74,21.74,0,0,1,70,86.43Zm2.15-43.32A21.76,21.76,0,0,1,91.44,61.46C85.08,57.1,74.62,49,72.12,43.11Zm-4.3,0c-2.51,5.89-13,14-19.32,18.35A21.76,21.76,0,0,1,67.82,43.11Zm14.71-7.73a1.53,1.53,0,0,1,1.24.4,4.09,4.09,0,0,1,.54,2.87c-.06,1-.21,3.25-1.61,4.52a25,25,0,0,0-9.22-3.24C76.78,37.23,80.37,35.38,82.53,35.38Zm-26.9,3.27a4.08,4.08,0,0,1,.55-2.87,1.5,1.5,0,0,1,1.23-.4c2.17,0,5.75,1.85,9,4.55a24.88,24.88,0,0,0-9.23,3.25C56.46,42.45,55.79,41.11,55.63,38.65Z"/><path class="cls-1" d="M76.5,65A2.51,2.51,0,1,0,74,62.48,2.51,2.51,0,0,0,76.5,65Z"/><path class="cls-1" d="M63.44,65a2.51,2.51,0,1,0-2.51-2.51A2.51,2.51,0,0,0,63.44,65Z"/><path class="cls-1" d="M80.79,73.37a1.66,1.66,0,0,0-2.33.26,11,11,0,0,1-17,0,1.66,1.66,0,0,0-2.6,2.07,14.29,14.29,0,0,0,22.17,0A1.66,1.66,0,0,0,80.79,73.37Z"/></g></g></svg>