<svg xmlns="http://www.w3.org/2000/svg" viewBox="0 0 94.77 95"><defs><style>.cls-1{fill:#fff;}</style></defs><g id="Layer_2" data-name="Layer 2"><g id="Layer_1-2" data-name="Layer 1"><path class="cls-1" d="M79.22,58.45a1.44,1.44,0,0,0-1.63,1.22c-3.45,24-8.07,32.45-11,32.45-3.87,0-12.55-6.55-13.1-26A9,9,0,0,0,48.33,58a5,5,0,0,0-4.54,0,9,9,0,0,0-5.18,8.06c-.54,19.48-9.22,26-13.1,26C21.37,92.12,16.62,77,14,55.39a7.14,7.14,0,0,0-1.24-3.25C9.82,48-4.06,26.66,7.47,12,18.34-1.8,28.73,2.9,39.72,7.88a1.44,1.44,0,1,0,1.19-2.62c-11-5-23.43-10.62-35.7,5C-7.26,26.08,6,47.58,10.36,53.79a4.28,4.28,0,0,1,.75,2C12.91,70.4,17.18,95,25.51,95c4.95,0,15.36-7,16-28.81v-.07a6.06,6.06,0,0,1,3.62-5.53,2.08,2.08,0,0,1,1.91,0,6.06,6.06,0,0,1,3.61,5.53v.07C51.25,88,61.66,95,66.61,95c5.84,0,10.49-11.75,13.83-34.92A1.44,1.44,0,0,0,79.22,58.45Z"/><path class="cls-1" d="M94.77,14.22v0a1.29,1.29,0,0,0-.1-.48l0-.09a1.32,1.32,0,0,0-.29-.42L81.57.42a1.52,1.52,0,0,0-.43-.28l-.08,0A1.28,1.28,0,0,0,80.58,0H55a1.39,1.39,0,0,0-.5.09l-.07,0A1.71,1.71,0,0,0,54,.42L41.19,13.2a1.47,1.47,0,0,0-.28.42l0,.09a1.51,1.51,0,0,0-.09.48V39.78s0,0,0,0a1.63,1.63,0,0,0,.09.48l0,.08a1.34,1.34,0,0,0,.28.42L54,53.57a1.42,1.42,0,0,0,.47.31A1.29,1.29,0,0,0,55,54H80.55a1.32,1.32,0,0,0,.55-.11,1.42,1.42,0,0,0,.47-.31L94.34,40.79a1.32,1.32,0,0,0,.29-.42l0-.08a1.37,1.37,0,0,0,.1-.48s0,0,0,0ZM60.7,43.61H74.84l3.46,7.51H57.24Zm14.46-2.88H60.38L54,34.39V19.6l6.35-6.34H75.16l3.17,3.17,3.18,3.17V34.39l-3.18,3.17Zm-31.51-3.2V16.47l7.5,3.46V34.06ZM74.84,10.38H60.7l-3.46-7.5H78.3Zm9.54,9.55,7.51-3.46V37.53l-7.51-3.47Zm6.47-6.15-7.6,3.5L80.37,14.4l-2.89-2.89L81,3.92ZM54.55,3.92l3.5,7.59-5.76,5.77-7.6-3.5Zm-9.86,36.3,7.6-3.51,5.76,5.77-3.5,7.6ZM81,50.08l-3.51-7.6,2.89-2.88,2.88-2.89,7.6,3.51Z"/></g></g></svg>