<svg xmlns="http://www.w3.org/2000/svg" viewBox="0 0 83.21 95"><defs><style>.cls-1{fill:#fff;}</style></defs><g id="Layer_2" data-name="Layer 2"><g id="Layer_1-2" data-name="Layer 1"><path class="cls-1" d="M78.49,9.28C67.38-4.84,56.44.12,45.87,4.91c-1.41.64-2.83,1.28-4.26,1.88-1.43-.6-2.85-1.24-4.27-1.88C26.77.12,15.83-4.84,4.72,9.28c-11.28,14.34.69,33.77,4.63,39.38a3.75,3.75,0,0,1,.65,1.7c1.63,13.24,5.5,35.46,13.11,35.46a1.44,1.44,0,1,0,0-2.88c-3.6,0-7.91-13.85-10.25-32.93a6.67,6.67,0,0,0-1.15-3c-2.6-3.7-15-22.84-4.73-35.95C16.7-1.29,25.72,2.8,36.16,7.53l1.62.73a25.83,25.83,0,0,1-8.31,1.57,1.44,1.44,0,0,0,0,2.88c4.37,0,8.56-1.34,12.64-3l.09,0c1.64-.68,3.25-1.41,4.86-2.13C57.49,2.8,66.51-1.29,76.23,11.06,86.55,24.17,74.1,43.31,71.5,47a6.66,6.66,0,0,0-1.14,3C68,69.09,63.7,82.94,60.1,82.94a1.44,1.44,0,0,0,0,2.88c7.62,0,11.48-22.22,13.11-35.47a3.76,3.76,0,0,1,.65-1.69C77.8,43.05,89.78,23.63,78.49,9.28Z"/><path class="cls-1" d="M61,45.74V41.46a4.32,4.32,0,0,0-4.31-4.32H26.55a4.32,4.32,0,0,0-4.31,4.32v4.28a4.32,4.32,0,0,0,4.31,4.32h.88L32.1,86.63a9.58,9.58,0,0,0,19,0h0l4.67-36.57h.88A4.32,4.32,0,0,0,61,45.74Zm-35.85,0V41.46A1.43,1.43,0,0,1,26.55,40H56.66a1.44,1.44,0,0,1,1.44,1.44v4.28a1.45,1.45,0,0,1-1.44,1.44H26.55A1.44,1.44,0,0,1,25.12,45.74ZM48.26,86.27h0a6.71,6.71,0,0,1-13.31,0L30.33,50.06H52.88Z"/><path class="cls-1" d="M33.34,59.68a1.42,1.42,0,0,0,1.37,1,1.41,1.41,0,0,0,.45-.07l14.16-4.77a1.44,1.44,0,1,0-.91-2.73L34.25,57.86A1.44,1.44,0,0,0,33.34,59.68Z"/><path class="cls-1" d="M47,60.76,35.76,64.55a1.44,1.44,0,0,0,.91,2.73l11.27-3.8A1.44,1.44,0,1,0,47,60.76Z"/><path class="cls-1" d="M45.77,68.37l-9.12,3.07a1.45,1.45,0,0,0-.9,1.83,1.42,1.42,0,0,0,1.82.9l9.11-3.07a1.44,1.44,0,1,0-.91-2.73Z"/><path class="cls-1" d="M44.8,75.9l-6.67,2.24A1.45,1.45,0,0,0,37.22,80a1.44,1.44,0,0,0,1.37,1,1.51,1.51,0,0,0,.46-.07l6.66-2.24a1.45,1.45,0,0,0,.91-1.83A1.43,1.43,0,0,0,44.8,75.9Z"/><path class="cls-1" d="M43.66,83.48l-4.17,1.4a1.44,1.44,0,1,0,.91,2.73l4.18-1.41a1.44,1.44,0,1,0-.92-2.72Z"/></g></g></svg>