<?xml version="1.0" encoding="utf-8"?>
<!-- Generator: Adobe Illustrator 24.2.1, SVG Export Plug-In . SVG Version: 6.00 Build 0)  -->
<svg version="1.1" id="Layer_1" xmlns="http://www.w3.org/2000/svg" xmlns:xlink="http://www.w3.org/1999/xlink" x="0px" y="0px"
	 viewBox="0 0 95 95" style="enable-background:new 0 0 95 95;" xml:space="preserve">
<style type="text/css">
	.st0{fill:#FFFFFF;}
	.st1{fill:none;stroke:#FFFFFF;}
</style>
<g>
	<g>
		<g>
			<path class="st0" d="M23.2,77.7c-0.2,0-0.4,0-0.5-0.1c-1.2-0.4-1.6-2.1-1.5-3.5c0.1-4.9,0.2-6.7-0.9-10.8
				c-0.4-1.7-1.6-2.3-2.5-2.3s-2.1,0.6-2.5,2.3c-1,4.2-1,6-0.9,10.8c0,1.5-0.3,3.1-1.5,3.6c-0.5,0.2-1.4,0.2-2.3-1.1
				C9.2,74.7,8.3,69,7.8,64.5c-0.4-3.3-0.8-5.9-1.3-7.8c-0.5-1.8,0.1-3.8,1.5-5c0.6-0.5,1.3-0.8,1.8-1c0.7-0.3,1-0.5,1.2-0.8
				l0.2-0.7c1-2.8,2.4-6.7,6.8-6.7l0,0c4.4,0,6.1,4.7,7.1,7.5c0.1,0.3,0.4,0.5,1.1,0.8c0.5,0.2,1.2,0.5,1.8,1
				c1.3,1.1,1.9,3.1,1.4,4.9c-0.5,2-0.9,4.6-1.3,7.9c-0.5,4.5-1.4,10.2-2.8,12.1C24.3,77.4,23.7,77.7,23.2,77.7z M17.8,44.1
				c-3.1,0-4.2,3-5.1,5.6l-0.2,0.7c-0.4,1.1-1.3,1.5-2.1,1.8c-0.5,0.2-1,0.4-1.4,0.8c-0.8,0.7-1.2,2-0.9,3.2c0.5,2,1,4.7,1.3,8.1
				c0.7,5.8,1.6,10,2.5,11.3c0.1,0.2,0.3,0.3,0.3,0.4c0.1-0.2,0.3-0.8,0.3-1.7c-0.1-4.9-0.2-6.9,0.9-11.3c0.6-2.2,2.2-3.6,4.3-3.6
				s3.7,1.4,4.3,3.6c1.1,4.4,1.1,6.4,0.9,11.2c0,0.9,0.2,1.5,0.3,1.8c0.1-0.1,0.2-0.2,0.3-0.4c0.9-1.2,1.8-5.4,2.5-11.3
				c0.4-3.3,0.8-6.1,1.4-8.1l0,0c0.3-1.2-0.1-2.4-0.9-3.1c-0.4-0.3-0.8-0.5-1.3-0.7c-0.8-0.3-1.6-0.7-2-1.8
				C22,47.1,20.7,44.1,17.8,44.1L17.8,44.1z"/>
		</g>
		<g>
			<path class="st0" d="M17.6,40.7c-3,0-5.9-0.4-8.8-1.1c-0.6-0.1-2.1-0.7-2.4-1.9c-0.3-1.6-0.7-2.8-1-3.6c-2.3-5.3-1.7-11,1.5-14.1
				c2.2-2.2,5.3-2.7,8.4-1.3c0.6,0.2,1.3,0.6,2,1.1c5.6-2.9,10.2-2.5,12.5,1.1c2.1,3.1,2.1,8.6,0.1,13.2c-0.4,0.8-0.7,2.1-1,3.6
				c-0.2,1.3-1.8,1.8-2.4,1.9l0,0C23.6,40.3,20.6,40.7,17.6,40.7z M9.1,37.9h0.1c5.5,1.4,11.4,1.4,16.9,0h0.1c0.4-0.1,0.9-0.4,1-0.5
				c0.3-1.7,0.7-3.1,1.1-4c1.8-4.1,1.8-8.9,0-11.5c-1.7-2.6-4.9-2.9-9.2-1c0.8,0.4,1.6,0.7,1.9,0.4c0.4-0.3,1-0.2,1.2,0.3
				c0.3,0.4,0.2,1-0.3,1.2c-1.6,1.1-3.7-0.3-5.6-1.4c-0.7-0.4-1.3-0.8-1.8-1C12,19.3,9.7,19.6,8,21.3c-2,2-3.3,6.7-1,12
				c0.4,0.9,0.8,2.3,1.1,4C8.2,37.5,8.7,37.8,9.1,37.9z"/>
		</g>
		<g>
			<path class="st0" d="M76.3,40.7c-3.5,0-7-0.4-10.3-1.3l0,0c-0.6-0.1-2.4-0.7-2.7-2c-0.4-1.6-0.8-2.9-1.2-3.7
				C59.7,28.9,60,23.6,63,20.3c2.6-2.8,6.5-3.6,10.5-2.1c0.7,0.2,1.5,0.7,2.4,1.2c0,0,0,0,0.1,0c8.9-4.1,12.9-1.2,14.5,1
				C93,23.5,93,29,90.6,33.8c-0.4,0.8-0.8,2.1-1.2,3.7c-0.3,1.3-2,1.8-2.7,2l0,0C83.3,40.3,79.8,40.7,76.3,40.7z M66.3,37.7
				L66.3,37.7c6.6,1.7,13.5,1.7,20,0h0.1c0.5-0.1,1.2-0.4,1.3-0.6c0.4-1.7,0.9-3.1,1.3-4.1c2.1-4.1,2.1-8.9,0.1-11.5
				c-2-2.7-5.9-3-11-1c1,0.4,2,0.7,2.5,0.4c0.4-0.2,1-0.1,1.2,0.3s0.1,1-0.3,1.2c-1.8,1-4.2-0.3-6.4-1.5c-0.8-0.4-1.6-0.8-2.2-1
				c-3.4-1.3-6.5-0.7-8.6,1.6c-2.5,2.8-2.7,7.2-0.6,11.4c0.5,1,0.9,2.3,1.3,4.1C65.1,37.2,65.8,37.6,66.3,37.7z"/>
		</g>
		<g>
			<path class="st0" d="M45.9,40.7c-3.5,0-7-0.4-10.3-1.3l0,0c-0.6-0.1-2.4-0.7-2.7-2c-0.4-1.6-0.8-2.9-1.2-3.7
				c-2.4-4.9-2.1-10.1,0.9-13.4c2.6-2.8,6.5-3.6,10.5-2.1c0.7,0.2,1.5,0.7,2.4,1.2c0,0,0,0,0.1,0c8.9-4.1,12.9-1.2,14.5,1
				c2.5,3.1,2.5,8.6,0.1,13.4c-0.4,0.8-0.8,2.1-1.2,3.7c-0.3,1.3-2,1.8-2.7,2l0,0C53,40.3,49.4,40.7,45.9,40.7z M35.9,37.7
				L35.9,37.7c6.6,1.7,13.5,1.7,20,0H56c0.5-0.1,1.2-0.4,1.3-0.6c0.4-1.7,0.9-3.1,1.3-4.1c2.1-4.1,2.1-8.9,0.1-11.5
				c-2-2.7-5.9-3-11-1c1,0.4,2,0.7,2.5,0.4c0.4-0.2,1-0.1,1.2,0.3s0.1,1-0.3,1.2c-1.8,1-4.2-0.3-6.4-1.5c-0.8-0.4-1.6-0.8-2.2-1
				c-3.4-1.3-6.5-0.7-8.6,1.6c-2.5,2.8-2.7,7.2-0.6,11.4c0.5,1,0.9,2.4,1.3,4.1C34.8,37.2,35.5,37.6,35.9,37.7z"/>
		</g>
		<g>
			<path class="st0" d="M82.8,77.7c-0.3,0-0.5-0.1-0.6-0.1c-1-0.4-1.7-1.8-1.6-3.5c0.2-4.9,0.2-6.6-1-10.8c-0.5-1.7-2-2.3-3.1-2.3
				c-1.2,0-2.6,0.6-3.1,2.3c-1.2,4.1-1.2,5.9-1,10.7c0.1,1.8-0.6,3.1-1.6,3.5c-0.5,0.2-1.5,0.3-2.6-1c-1.7-1.9-2.7-7.7-3.3-12.1
				c-0.4-3.2-1-5.9-1.5-7.8c-0.6-1.9,0.1-3.9,1.7-5c0.7-0.5,1.4-0.8,2.1-1c0.8-0.3,1.2-0.5,1.4-0.8l0.3-0.7c1.2-2.8,2.8-6.7,7.8-6.7
				c0,0,0,0,0.1,0c5,0,7,4.6,8.1,7.4c0.1,0.3,0.6,0.5,1.3,0.8c0.6,0.2,1.3,0.5,2,1c1.6,1.1,2.2,3.1,1.7,5l0,0
				c-0.6,1.9-1.1,4.6-1.5,7.9c-0.6,4.5-1.7,10.2-3.3,12.1C84,77.4,83.3,77.7,82.8,77.7z M76.4,59.2c2.3,0,4.2,1.4,4.8,3.6
				c1.3,4.4,1.2,6.4,1.1,11.3c0,1.1,0.3,1.8,0.5,1.8c0,0,0.2,0,0.6-0.5c1-1.2,2.1-5.4,2.9-11.2c0.5-3.4,1-6.1,1.6-8.1l0,0
				c0.3-1.1-0.1-2.4-1-3.1c-0.5-0.4-1.1-0.6-1.6-0.8c-0.9-0.3-1.9-0.7-2.3-1.8c-1.4-3.3-3-6.3-6.5-6.3l0,0c-3.8,0-5,3-6.2,5.6
				L70,50.4c-0.5,1.1-1.5,1.4-2.4,1.8c-0.6,0.2-1.1,0.4-1.7,0.8c-1,0.7-1.4,1.9-1,3.1c0.6,2,1.1,4.8,1.6,8.1
				c0.8,5.8,1.9,10,2.9,11.2c0.4,0.5,0.6,0.5,0.6,0.5c0.1-0.1,0.5-0.7,0.5-1.7c-0.2-4.9-0.2-6.9,1.1-11.3
				C72.2,60.6,74.1,59.2,76.4,59.2z M88.8,56.3L88.8,56.3L88.8,56.3z"/>
		</g>
		<g>
			<path class="st0" d="M15.2,56.6c-3.5,0-6.7-0.6-9.4-1C3.9,55.3,2.2,55,0.9,55l0,0C0.4,54.9,0,54.5,0,54s0.4-0.9,0.9-0.9l0,0
				c1.4,0,3.2,0.3,5.2,0.7c3.4,0.6,7.5,1.3,11.9,0.9c1.2-0.1,2.8-0.3,4.4-0.6c3.2-0.4,6.8-0.9,9-1l0,0c1.7,0,3.6,0.3,5.8,0.6
				c2.5,0.4,5.3,0.8,8.6,0.9c3.3,0.1,6.4-0.4,9.1-0.9c2-0.3,3.9-0.6,5.5-0.7c2,0,5,0.4,7.9,0.8c2.8,0.4,5.6,0.7,7.5,0.8l0,0
				c2.7,0,5.5-0.5,8.3-1c3.9-0.7,7.6-1.4,10.3-0.4c0.5,0.2,0.7,0.7,0.5,1.1c-0.2,0.5-0.7,0.7-1.1,0.5c-2.3-0.8-5.7-0.2-9.4,0.5
				c-2.8,0.5-5.8,1.1-8.6,1.1l0,0c-2,0-4.9-0.4-7.7-0.8c-2.8-0.4-5.7-0.8-7.6-0.8c0,0,0,0-0.1,0c-1.5,0-3.2,0.3-5.2,0.6
				c-2.8,0.5-6,1-9.5,0.9c-3.4-0.1-6.3-0.5-8.8-0.9c-2.1-0.3-4-0.6-5.6-0.6c-2.1,0-5.6,0.5-8.8,0.9c-1.7,0.2-3.3,0.5-4.5,0.6
				C17.1,56.5,16.2,56.6,15.2,56.6z"/>
		</g>
		<g>
			<g>
				<path class="st0" d="M46.1,51.7c-0.5,0-0.9-0.4-0.9-0.9v-7.5c0-0.5,0.4-0.9,0.9-0.9s0.9,0.4,0.9,0.9v7.5
					C46.9,51.3,46.6,51.7,46.1,51.7z"/>
			</g>
			<g>
				<path class="st0" d="M46.1,51.9c-0.2,0-0.5-0.1-0.6-0.3L42.9,49c-0.3-0.3-0.3-0.9,0-1.3c0.3-0.3,0.9-0.3,1.3,0l1.9,2l1.9-2
					c0.3-0.4,0.9-0.4,1.3,0c0.4,0.3,0.4,0.9,0,1.3l-2.5,2.6C46.6,51.8,46.3,51.9,46.1,51.9L46.1,51.9z"/>
			</g>
		</g>
	</g>
	<g>
		<g>
			<path class="st1" d="M23.2,77.7c-0.2,0-0.4,0-0.5-0.1c-1.2-0.4-1.6-2.1-1.5-3.5c0.1-4.9,0.2-6.7-0.9-10.8
				c-0.4-1.7-1.6-2.3-2.5-2.3s-2.1,0.6-2.5,2.3c-1,4.2-1,6-0.9,10.8c0,1.5-0.3,3.1-1.5,3.6c-0.5,0.2-1.4,0.2-2.3-1.1
				C9.2,74.7,8.3,69,7.8,64.5c-0.4-3.3-0.8-5.9-1.3-7.8c-0.5-1.8,0.1-3.8,1.5-5c0.6-0.5,1.3-0.8,1.8-1c0.7-0.3,1-0.5,1.2-0.8
				l0.2-0.7c1-2.8,2.4-6.7,6.8-6.7l0,0c4.4,0,6.1,4.7,7.1,7.5c0.1,0.3,0.4,0.5,1.1,0.8c0.5,0.2,1.2,0.5,1.8,1
				c1.3,1.1,1.9,3.1,1.4,4.9c-0.5,2-0.9,4.6-1.3,7.9c-0.5,4.5-1.4,10.2-2.8,12.1C24.3,77.4,23.7,77.7,23.2,77.7z M17.8,44.1
				c-3.1,0-4.2,3-5.1,5.6l-0.2,0.7c-0.4,1.1-1.3,1.5-2.1,1.8c-0.5,0.2-1,0.4-1.4,0.8c-0.8,0.7-1.2,2-0.9,3.2c0.5,2,1,4.7,1.3,8.1
				c0.7,5.8,1.6,10,2.5,11.3c0.1,0.2,0.3,0.3,0.3,0.4c0.1-0.2,0.3-0.8,0.3-1.7c-0.1-4.9-0.2-6.9,0.9-11.3c0.6-2.2,2.2-3.6,4.3-3.6
				s3.7,1.4,4.3,3.6c1.1,4.4,1.1,6.4,0.9,11.2c0,0.9,0.2,1.5,0.3,1.8c0.1-0.1,0.2-0.2,0.3-0.4c0.9-1.2,1.8-5.4,2.5-11.3
				c0.4-3.3,0.8-6.1,1.4-8.1l0,0c0.3-1.2-0.1-2.4-0.9-3.1c-0.4-0.3-0.8-0.5-1.3-0.7c-0.8-0.3-1.6-0.7-2-1.8
				C22,47.1,20.7,44.1,17.8,44.1L17.8,44.1z"/>
		</g>
		<g>
			<path class="st1" d="M17.6,40.7c-3,0-5.9-0.4-8.8-1.1c-0.6-0.1-2.1-0.7-2.4-1.9c-0.3-1.6-0.7-2.8-1-3.6c-2.3-5.3-1.7-11,1.5-14.1
				c2.2-2.2,5.3-2.7,8.4-1.3c0.6,0.2,1.3,0.6,2,1.1c5.6-2.9,10.2-2.5,12.5,1.1c2.1,3.1,2.1,8.6,0.1,13.2c-0.4,0.8-0.7,2.1-1,3.6
				c-0.2,1.3-1.8,1.8-2.4,1.9l0,0C23.6,40.3,20.6,40.7,17.6,40.7z M9.1,37.9h0.1c5.5,1.4,11.4,1.4,16.9,0h0.1c0.4-0.1,0.9-0.4,1-0.5
				c0.3-1.7,0.7-3.1,1.1-4c1.8-4.1,1.8-8.9,0-11.5c-1.7-2.6-4.9-2.9-9.2-1c0.8,0.4,1.6,0.7,1.9,0.4c0.4-0.3,1-0.2,1.2,0.3
				c0.3,0.4,0.2,1-0.3,1.2c-1.6,1.1-3.7-0.3-5.6-1.4c-0.7-0.4-1.3-0.8-1.8-1C12,19.3,9.7,19.6,8,21.3c-2,2-3.3,6.7-1,12
				c0.4,0.9,0.8,2.3,1.1,4C8.2,37.5,8.7,37.8,9.1,37.9z"/>
		</g>
		<g>
			<path class="st1" d="M76.3,40.7c-3.5,0-7-0.4-10.3-1.3l0,0c-0.6-0.1-2.4-0.7-2.7-2c-0.4-1.6-0.8-2.9-1.2-3.7
				C59.7,28.9,60,23.6,63,20.3c2.6-2.8,6.5-3.6,10.5-2.1c0.7,0.2,1.5,0.7,2.4,1.2c0,0,0,0,0.1,0c8.9-4.1,12.9-1.2,14.5,1
				C93,23.5,93,29,90.6,33.8c-0.4,0.8-0.8,2.1-1.2,3.7c-0.3,1.3-2,1.8-2.7,2l0,0C83.3,40.3,79.8,40.7,76.3,40.7z M66.3,37.7
				L66.3,37.7c6.6,1.7,13.5,1.7,20,0h0.1c0.5-0.1,1.2-0.4,1.3-0.6c0.4-1.7,0.9-3.1,1.3-4.1c2.1-4.1,2.1-8.9,0.1-11.5
				c-2-2.7-5.9-3-11-1c1,0.4,2,0.7,2.5,0.4c0.4-0.2,1-0.1,1.2,0.3s0.1,1-0.3,1.2c-1.8,1-4.2-0.3-6.4-1.5c-0.8-0.4-1.6-0.8-2.2-1
				c-3.4-1.3-6.5-0.7-8.6,1.6c-2.5,2.8-2.7,7.2-0.6,11.4c0.5,1,0.9,2.3,1.3,4.1C65.1,37.2,65.8,37.6,66.3,37.7z"/>
		</g>
		<g>
			<path class="st1" d="M45.9,40.7c-3.5,0-7-0.4-10.3-1.3l0,0c-0.6-0.1-2.4-0.7-2.7-2c-0.4-1.6-0.8-2.9-1.2-3.7
				c-2.4-4.9-2.1-10.1,0.9-13.4c2.6-2.8,6.5-3.6,10.5-2.1c0.7,0.2,1.5,0.7,2.4,1.2c0,0,0,0,0.1,0c8.9-4.1,12.9-1.2,14.5,1
				c2.5,3.1,2.5,8.6,0.1,13.4c-0.4,0.8-0.8,2.1-1.2,3.7c-0.3,1.3-2,1.8-2.7,2l0,0C53,40.3,49.4,40.7,45.9,40.7z M35.9,37.7
				L35.9,37.7c6.6,1.7,13.5,1.7,20,0H56c0.5-0.1,1.2-0.4,1.3-0.6c0.4-1.7,0.9-3.1,1.3-4.1c2.1-4.1,2.1-8.9,0.1-11.5
				c-2-2.7-5.9-3-11-1c1,0.4,2,0.7,2.5,0.4c0.4-0.2,1-0.1,1.2,0.3s0.1,1-0.3,1.2c-1.8,1-4.2-0.3-6.4-1.5c-0.8-0.4-1.6-0.8-2.2-1
				c-3.4-1.3-6.5-0.7-8.6,1.6c-2.5,2.8-2.7,7.2-0.6,11.4c0.5,1,0.9,2.4,1.3,4.1C34.8,37.2,35.5,37.6,35.9,37.7z"/>
		</g>
		<g>
			<path class="st1" d="M82.8,77.7c-0.3,0-0.5-0.1-0.6-0.1c-1-0.4-1.7-1.8-1.6-3.5c0.2-4.9,0.2-6.6-1-10.8c-0.5-1.7-2-2.3-3.1-2.3
				c-1.2,0-2.6,0.6-3.1,2.3c-1.2,4.1-1.2,5.9-1,10.7c0.1,1.8-0.6,3.1-1.6,3.5c-0.5,0.2-1.5,0.3-2.6-1c-1.7-1.9-2.7-7.7-3.3-12.1
				c-0.4-3.2-1-5.9-1.5-7.8c-0.6-1.9,0.1-3.9,1.7-5c0.7-0.5,1.4-0.8,2.1-1c0.8-0.3,1.2-0.5,1.4-0.8l0.3-0.7c1.2-2.8,2.8-6.7,7.8-6.7
				c0,0,0,0,0.1,0c5,0,7,4.6,8.1,7.4c0.1,0.3,0.6,0.5,1.3,0.8c0.6,0.2,1.3,0.5,2,1c1.6,1.1,2.2,3.1,1.7,5l0,0
				c-0.6,1.9-1.1,4.6-1.5,7.9c-0.6,4.5-1.7,10.2-3.3,12.1C84,77.4,83.3,77.7,82.8,77.7z M76.4,59.2c2.3,0,4.2,1.4,4.8,3.6
				c1.3,4.4,1.2,6.4,1.1,11.3c0,1.1,0.3,1.8,0.5,1.8c0,0,0.2,0,0.6-0.5c1-1.2,2.1-5.4,2.9-11.2c0.5-3.4,1-6.1,1.6-8.1l0,0
				c0.3-1.1-0.1-2.4-1-3.1c-0.5-0.4-1.1-0.6-1.6-0.8c-0.9-0.3-1.9-0.7-2.3-1.8c-1.4-3.3-3-6.3-6.5-6.3l0,0c-3.8,0-5,3-6.2,5.6
				L70,50.4c-0.5,1.1-1.5,1.4-2.4,1.8c-0.6,0.2-1.1,0.4-1.7,0.8c-1,0.7-1.4,1.9-1,3.1c0.6,2,1.1,4.8,1.6,8.1
				c0.8,5.8,1.9,10,2.9,11.2c0.4,0.5,0.6,0.5,0.6,0.5c0.1-0.1,0.5-0.7,0.5-1.7c-0.2-4.9-0.2-6.9,1.1-11.3
				C72.2,60.6,74.1,59.2,76.4,59.2z M88.8,56.3L88.8,56.3L88.8,56.3z"/>
		</g>
		<g>
			<path class="st1" d="M15.2,56.6c-3.5,0-6.7-0.6-9.4-1C3.9,55.3,2.2,55,0.9,55l0,0C0.4,54.9,0,54.5,0,54s0.4-0.9,0.9-0.9l0,0
				c1.4,0,3.2,0.3,5.2,0.7c3.4,0.6,7.5,1.3,11.9,0.9c1.2-0.1,2.8-0.3,4.4-0.6c3.2-0.4,6.8-0.9,9-1l0,0c1.7,0,3.6,0.3,5.8,0.6
				c2.5,0.4,5.3,0.8,8.6,0.9c3.3,0.1,6.4-0.4,9.1-0.9c2-0.3,3.9-0.6,5.5-0.7c2,0,5,0.4,7.9,0.8c2.8,0.4,5.6,0.7,7.5,0.8l0,0
				c2.7,0,5.5-0.5,8.3-1c3.9-0.7,7.6-1.4,10.3-0.4c0.5,0.2,0.7,0.7,0.5,1.1c-0.2,0.5-0.7,0.7-1.1,0.5c-2.3-0.8-5.7-0.2-9.4,0.5
				c-2.8,0.5-5.8,1.1-8.6,1.1l0,0c-2,0-4.9-0.4-7.7-0.8c-2.8-0.4-5.7-0.8-7.6-0.8c0,0,0,0-0.1,0c-1.5,0-3.2,0.3-5.2,0.6
				c-2.8,0.5-6,1-9.5,0.9c-3.4-0.1-6.3-0.5-8.8-0.9c-2.1-0.3-4-0.6-5.6-0.6c-2.1,0-5.6,0.5-8.8,0.9c-1.7,0.2-3.3,0.5-4.5,0.6
				C17.1,56.5,16.2,56.6,15.2,56.6z"/>
		</g>
		<g>
			<g>
				<path class="st1" d="M46.1,51.7c-0.5,0-0.9-0.4-0.9-0.9v-7.5c0-0.5,0.4-0.9,0.9-0.9s0.9,0.4,0.9,0.9v7.5
					C46.9,51.3,46.6,51.7,46.1,51.7z"/>
			</g>
			<g>
				<path class="st1" d="M46.1,51.9c-0.2,0-0.5-0.1-0.6-0.3L42.9,49c-0.3-0.3-0.3-0.9,0-1.3c0.3-0.3,0.9-0.3,1.3,0l1.9,2l1.9-2
					c0.3-0.4,0.9-0.4,1.3,0c0.4,0.3,0.4,0.9,0,1.3l-2.5,2.6C46.6,51.8,46.3,51.9,46.1,51.9L46.1,51.9z"/>
			</g>
		</g>
	</g>
</g>
</svg>
