<?xml version="1.0" encoding="utf-8"?>
<!-- Generator: Adobe Illustrator 24.2.1, SVG Export Plug-In . SVG Version: 6.00 Build 0)  -->
<svg version="1.1" id="Layer_1" xmlns="http://www.w3.org/2000/svg" xmlns:xlink="http://www.w3.org/1999/xlink" x="0px" y="0px"
	 viewBox="0 0 95 95" style="enable-background:new 0 0 95 95;" xml:space="preserve">
<style type="text/css">
	.st0{fill:#FFFFFF;}
	.st1{fill:none;stroke:#FFFFFF;}
</style>
<g>
	<g>
		<path class="st0" d="M95,42.3c0,0.1-0.1,0.1-0.1,0.2c-0.1,0.9-0.5,1.8-0.8,2.7c-0.5,1.2-0.9,2.5-1.3,3.7c-0.1,0.3-0.3,0.7-0.4,1
			c-0.4,0.9-1.1,1.5-2,1.7c-0.4,0.1-0.9,0.1-1.4,0.2c-0.8,0-1.7,0.2-2.4,0.5c-0.5,0.2-1,0.4-1.5,0.5c-1.8,0.6-3.3-0.1-4.2-1.4
			c-0.6-0.8-0.9-1.7-1.1-2.6c-0.1-0.3-0.1-0.5-0.2-0.8c-0.1-0.6-0.4-0.9-1-1.1c-0.2-0.1-0.4-0.2-0.6-0.2c-2-0.7-3.4-2.1-4.3-4
			c-0.1-0.3-0.3-0.7-0.5-1c-0.3-0.6-0.8-1-1.4-1.2c-0.5-0.1-1-0.3-1.4-0.4c-1-0.3-1.6-0.8-2-1.8c-0.1-0.3-0.3-0.7-0.3-1.1
			c-0.1-0.6-0.1-1.1-0.2-1.7c0-0.3-0.1-0.4-0.4-0.4c-0.1,0-0.3,0-0.4,0c-0.6,0-1.1,0-1.7,0.1c-0.5,0.1-1,0-1.4-0.1
			c-0.9-0.2-1.6-0.8-2-1.6c-0.3-0.6-0.4-1.2-0.6-1.8c-0.1-0.4-0.2-0.8-0.2-1.2c-0.1-0.6-0.5-0.9-1.1-1c-0.1,0-0.2-0.1-0.4-0.1
			c-1-0.2-1.7-0.7-2.3-1.5c-0.4-0.6-0.7-1.2-1-1.8c-0.2-0.5-0.4-0.8-1-0.6c-2.1,0.1-4.1-0.3-6-1.3c-0.4-0.2-0.7-0.4-1.1-0.6
			c-0.5-0.2-1-0.4-1.5-0.3c-0.6,0-1.3,0.1-1.9,0.1c-1.1,0.1-2.2,0.1-3.2-0.3c-0.8-0.3-1.6-0.5-2.4-0.8c-0.6-0.2-1.3-0.4-1.9-0.4
			c-1.1-0.1-2,0.3-2.7,1.2c-0.5,0.7-0.8,1.5-1,2.3c-0.5,2.9,0.1,5.6,1.9,8c0.3,0.4,0.5,0.7,0.8,1.1c1.1,1.3,1.7,2.7,2,4.3
			c0,0.3,0.1,0.6,0.2,0.9c0.2,0.7,0.6,1.3,1.2,1.8c0.4,0.3,0.8,0.7,1.1,1.1c0.3,0.3,0.6,0.7,0.8,1.1c0.5,1.1,0.5,2.1-0.2,3.1l0,0
			c-0.7,0.8-1.1,1.7-1.4,2.8c-0.1,0.4-0.3,0.9-0.5,1.3c-0.6,1.3-1.9,1.9-3.3,1.5c-0.7-0.2-1.2-0.5-1.8-0.8c-0.2-0.1-0.5-0.3-0.7-0.4
			c-0.8-0.4-1.6-0.5-2.5-0.4c-0.6,0.1-1.2,0.1-1.8-0.1c-0.6-0.1-1.1-0.4-1.6-0.8c-0.3-0.3-0.6-0.7-0.9-1c-1.4-2-2.8-3.9-4-6
			c-1-1.7-1.8-3.4-2.3-5.3c-0.2-0.8-0.3-1.6-0.4-2.5c0-0.5-0.2-0.9-0.6-1.2c-0.3-0.2-0.6-0.5-0.8-0.7c-0.6-0.6-0.8-1.2-0.6-2
			c0.1-0.2,0.1-0.5,0.2-0.7c0.1-0.3,0.1-0.5-0.1-0.8c-0.1-0.1-0.1-0.2-0.2-0.3c-0.7-0.9-0.8-1.9-0.5-2.9c0.2-0.8,0.5-1.6,0.8-2.3
			c0.7-1.6,1.4-3.1,2.3-4.6c1-1.6,2.1-3.1,3.7-4.2c0.9-0.7,2-1.2,3-1.6c0.3-0.1,0.7-0.3,1-0.4c1.1-0.5,2.1-1.2,2.9-2.2
			c0.4-0.5,0.9-1,1.4-1.4C33.3,9,34,8.5,34.9,8.3c0.7-0.2,1.4-0.1,2.1,0c1.2,0.2,2.3,0.2,3.5-0.2c0.8-0.3,1.7-0.4,2.5-0.4
			c0.7,0,1.3,0.1,1.9,0.4c0.8,0.3,1.6,0.7,2.3,1.1c1.3,0.7,2.6,1,4.1,1c0.7,0,1.5,0,2.2,0c0.8,0,1.5,0.1,2.3,0.3
			c0.7,0.2,1.3,0.6,1.8,1c0.3,0.3,0.7,0.6,1,1c0.8,0.8,1.8,1.1,3,1c0.8,0,1.7,0,2.5,0c1.2,0.1,2.1,0.6,3,1.4c0.5,0.5,1.1,1,1.6,1.4
			c0.2,0.2,0.4,0.4,0.6,0.5c0.8,0.7,1.7,1.1,2.7,1.3c0.9,0.1,1.6,0.5,2.2,1.1c0.2,0.3,0.5,0.6,0.6,0.9c0.2,0.4,0.4,0.9,0.6,1.3
			c0.5,1.1,1.3,1.7,2.5,1.9c0.5,0.1,0.9,0.2,1.4,0.3c1.1,0.3,1.8,0.9,2.3,1.9c0.3,0.5,0.5,1.1,0.7,1.6c0.1,0.2,0.1,0.3,0.2,0.5
			c0.3,0.7,0.8,1.2,1.6,1.4c0.5,0.2,0.9,0.4,1.4,0.6c1.6,0.8,2.4,2.1,2.7,3.9c0,0.2,0,0.4-0.1,0.5c-0.2,0.4-0.1,0.7,0.2,0.9
			c0.2,0.2,0.4,0.3,0.6,0.4c0.3,0.2,0.7,0.3,1.1,0.5c1.1,0.4,2.1,0.9,3,1.7s1.6,1.8,1.9,3c0,0.2,0.1,0.4,0.1,0.6
			C95,41.6,95,41.9,95,42.3z M32.1,27.2c0-0.6,0.1-1.1,0.1-1.7c0.2-1.1,0.5-2.1,1.1-3.1c0.9-1.3,2.1-1.9,3.6-1.9
			c0.7,0,1.5,0.2,2.2,0.4c0.8,0.3,1.7,0.6,2.5,0.8c0.7,0.2,1.4,0.4,2.2,0.4c0.6,0,1.1-0.1,1.7-0.2c1-0.1,2-0.1,3,0.3
			c0.5,0.2,0.9,0.4,1.4,0.7c1.6,0.9,3.4,1.3,5.3,1.2c0.2,0,0.4-0.1,0.6-0.2c0.3-0.3,0.7-0.2,0.9,0.1c0.1,0.1,0.2,0.2,0.2,0.3
			c0.3,0.5,0.6,1.1,0.9,1.6c0.2,0.4,0.4,0.8,0.7,1.2c0.3,0.5,0.8,0.8,1.5,0.9c0.2,0,0.5,0.1,0.7,0.2c0.7,0.2,1.3,0.6,1.5,1.3
			c0.1,0.4,0.2,0.8,0.3,1.2c0.1,0.6,0.2,1.1,0.4,1.7s0.6,1,1.3,1.2c0.4,0.1,0.8,0.1,1.1,0.1c0.7,0,1.4-0.1,2-0.1
			c0.2,0,0.5,0.1,0.7,0.1c0.6,0.2,0.9,0.6,1,1.2c0,0.3,0,0.7,0.1,1c0,0.4,0.1,0.8,0.2,1.2c0.2,0.7,0.6,1.2,1.3,1.5
			c0.4,0.1,0.7,0.2,1.1,0.3c1.3,0.3,2.2,1,2.8,2.3c0.2,0.4,0.4,0.8,0.6,1.3c0.7,1.4,1.8,2.4,3.4,2.9c0.3,0.1,0.6,0.2,1,0.4
			c0.6,0.3,1,0.8,1.2,1.4c0.1,0.3,0.2,0.7,0.2,1c0.2,1,0.5,1.9,1.2,2.6c0.4,0.5,1,0.8,1.7,0.8c0.3,0,0.7,0,1-0.1
			c0.5-0.2,1.1-0.4,1.6-0.6c0.5-0.2,1-0.3,1.5-0.4c0.6-0.1,1.2-0.1,1.8-0.1c0.8,0,1.4-0.4,1.6-1.2v-0.1c0.7-1.8,1.3-3.6,2-5.4
			c0.2-0.6,0.4-1.2,0.5-1.8c0.1-1.1-0.3-2-0.9-2.8c-0.7-0.8-1.5-1.4-2.5-1.8c-0.5-0.2-1-0.4-1.5-0.6c-0.6-0.2-1.1-0.6-1.5-1.1
			c-0.4-0.6-0.6-1.2-0.4-2c0.1-0.2,0-0.4,0-0.6c-0.2-0.9-0.7-1.5-1.4-2.1c-0.5-0.4-1-0.6-1.6-0.8c-1-0.3-1.8-0.8-2.3-1.7
			c-0.2-0.3-0.3-0.6-0.4-0.9c-0.2-0.4-0.4-0.9-0.6-1.3c-0.4-0.8-1-1.3-1.8-1.4c-0.5-0.1-1-0.2-1.5-0.3c-1.3-0.2-2.2-0.9-2.8-2
			c-0.3-0.6-0.6-1.1-0.8-1.7c-0.4-0.9-1-1.3-2-1.5c-0.9-0.1-1.7-0.4-2.5-0.9c-0.4-0.3-0.8-0.6-1.2-1c-0.6-0.5-1.1-1-1.7-1.5
			c-1-0.9-2.2-1.3-3.6-1.3c-0.6,0-1.3,0-1.9,0.1c-1,0-1.9-0.3-2.6-0.9c-0.4-0.3-0.8-0.7-1.1-1c-0.6-0.6-1.4-1.1-2.3-1.2
			c-0.5-0.1-1-0.2-1.5-0.2c-0.9,0-1.8,0-2.7,0c-0.6,0-1.1-0.1-1.7-0.2c-0.9-0.2-1.7-0.6-2.5-1c-0.6-0.3-1.2-0.6-1.9-0.9
			c-0.9-0.4-1.9-0.5-2.9-0.3c-0.4,0.1-0.9,0.2-1.3,0.3c-0.8,0.2-1.7,0.3-2.5,0.3c-0.5,0-0.9-0.1-1.4-0.2c-1.1-0.2-2.1,0.1-2.9,0.9
			c-0.5,0.5-1,1-1.5,1.5c-0.7,0.8-1.4,1.4-2.3,1.9S28,14.6,27.1,15c-1.8,0.8-3.2,1.9-4.4,3.5c-0.6,0.8-1.2,1.7-1.7,2.6
			c-0.6,1.3-1.2,2.6-1.8,3.9c-0.2,0.4-0.4,0.9-0.5,1.4c-0.2,0.7-0.1,1.5,0.3,2.1c0.1,0.1,0.2,0.3,0.3,0.5c0.3,0.6,0.4,1.2,0.1,1.8
			c-0.1,0.1-0.1,0.3-0.2,0.4c-0.1,0.3-0.1,0.6,0.2,0.9c0.2,0.2,0.4,0.4,0.7,0.6c0.7,0.5,1,1.2,1.1,2c0,0.5,0.1,1,0.2,1.5
			c0.3,1.4,0.8,2.7,1.4,4c1,2.1,2.3,4,3.7,5.9c0.6,0.8,1.1,1.6,1.7,2.3c0.4,0.6,1,0.9,1.7,0.9c0.4,0,0.7,0,1.1,0c1-0.1,2,0,3,0.5
			c0.5,0.3,1.1,0.6,1.6,0.8c0.4,0.2,0.7,0.3,1.1,0.4c0.5,0.1,1-0.1,1.3-0.5c0.2-0.2,0.3-0.5,0.4-0.8c0.2-0.4,0.3-0.9,0.4-1.3
			c0.2-0.7,0.5-1.4,0.9-1.9c0.2-0.2,0.3-0.4,0.5-0.6c0.5-0.7,0.5-1.3,0-1.9c-0.2-0.3-0.4-0.5-0.6-0.7c-0.4-0.4-0.8-0.7-1.2-1.1
			c-0.7-0.6-1.1-1.4-1.4-2.3c-0.1-0.3-0.1-0.6-0.2-0.9c-0.2-1.4-0.8-2.6-1.7-3.7c-0.3-0.4-0.7-0.8-1-1.3
			C32.9,32,32.1,29.7,32.1,27.2z"/>
		<path class="st0" d="M51.1,60.3c0.2-0.3,0.3-0.7,0.4-1.1c0.1-0.4,0.1-0.8,0.2-1.2c0.3-1,1-1.6,2-1.8c0.4,0,0.8-0.1,1.2-0.1
			c0.2,0,0.5,0,0.7-0.1c0.3,0,0.5-0.2,0.5-0.5c0.1-0.2,0.1-0.4,0.1-0.6c0.1-1.1,0.6-2,1.2-2.8c1.1-1.5,2.6-2.4,4.4-2.7
			c0.1,0,0.3,0,0.4,0c0.2,0,0.3-0.1,0.3-0.3c-0.1-1.6,0.8-2.6,2.1-3.4c0.9-0.5,1.9-0.8,2.9-0.8c1.8-0.1,3.5,0.2,5.3,0.6
			c0.5,0.1,1,0.3,1.4,0.4c0.9,0.3,1.6,0.9,1.9,1.8c0.2,0.4,0.3,0.9,0.4,1.3c0.6,2.2,1.1,4.5,1.7,6.7c0.1,0.4,0.1,0.8,0.1,1.2
			c0,1-0.4,1.7-1.2,2.2c-0.6,0.4-1.3,0.6-1.9,0.7c-0.4,0.1-0.9,0.2-1.3,0.4c-0.8,0.3-1.3,0.7-1.5,1.5c-0.2,0.5-0.4,1.1-0.5,1.6
			c-0.4,1.3-1.1,2.3-2.4,2.9c-0.4,0.2-0.9,0.3-1.4,0.5c-0.4,0.1-0.8,0.3-1.2,0.4c-1.1,0.3-1.9,1-2.5,1.9c-0.4,0.6-0.7,1.2-1.1,1.8
			c-0.3,0.4-0.7,0.9-1,1.3c-0.3,0.3-0.7,0.6-1.2,0.7c-0.2,0.1-0.4,0.2-0.6,0.2c-1.1,0.3-1.9,1-2.4,2c-0.3,0.5-0.6,1.1-0.9,1.6
			c-0.3,0.5-0.6,0.9-1,1.4c-0.7,0.8-1.7,1.3-2.7,1.4c-0.5,0.1-1.1,0.1-1.6,0.2c-0.9,0.1-1.6,0.5-2.2,1.1c-0.3,0.3-0.7,0.6-1,1
			c-1.1,1-2.3,1.5-3.7,1.7c-0.9,0.1-1.8,0.2-2.7,0.3c-0.9,0.1-1.7,0.3-2.5,0.7c-0.6,0.3-1.1,0.5-1.7,0.8c-1.1,0.5-2.3,0.6-3.5,0.5
			c-0.7-0.1-1.4-0.1-2.2-0.1c-0.6,0-1.2,0.2-1.8,0.4c-0.8,0.3-1.5,0.6-2.3,0.9c-0.6,0.2-1.3,0.4-2,0.5c-1,0.1-1.9-0.1-2.8-0.5
			c-0.5-0.2-1-0.5-1.6-0.7c-0.8-0.4-1.7-0.5-2.6-0.5s-1.8,0-2.7-0.1c-1.4-0.1-2.7-0.4-4.1-0.9c-1.5-0.6-2.9-1.3-4.4-1.9
			c-1.1-0.5-2-1.4-2.5-2.6C5,78.8,4.3,77.4,3.7,76c-0.1-0.2-0.1-0.4-0.1-0.7c0-0.1,0-0.3-0.1-0.4c-0.3-0.5-0.6-1.1-0.9-1.6
			C2.1,72.5,1.5,71.8,1,71c-0.6-1-1-2-1-3.2c0-0.6,0.1-1.2,0.4-1.7s0.5-1,0.8-1.5c0.1-0.2,0.3-0.5,0.4-0.7c0.2-0.4,0.2-0.8,0.1-1.3
			c0-0.2-0.1-0.4-0.1-0.7c-0.1-0.6,0-1.1,0.5-1.4c0.2-0.2,0.5-0.3,0.8-0.4c0.5-0.2,0.7-0.5,0.7-0.9c0-0.2,0-0.4,0-0.6
			c0-0.4-0.1-0.8,0-1.3c0-0.8,0.4-1.3,1.1-1.7c0.7-0.3,0.7-0.3,0.6-1c0-0.3,0-0.6,0-0.8c0-0.8,0.4-1.3,1.2-1.5h0.1
			c0.4-0.1,0.5-0.2,0.5-0.6c0-0.5,0-0.9,0.1-1.4c0.1-0.8,0.6-1.2,1.4-1.3c0.1,0,0.1,0,0.2,0C9,49,9,48.9,9,48.7c0-0.3,0-0.5,0-0.8
			c0-0.7,0.3-1.2,0.9-1.5c0.3-0.2,0.7-0.3,1.1-0.4c0.7-0.2,1.3-0.4,1.8-0.9c0.7-0.7,1.5-0.8,2.3-0.4c0.3,0.1,0.5,0.2,0.8,0.3
			c0.4,0.1,0.8,0.1,1.1-0.1c0.3-0.2,0.6-0.4,0.9-0.7c0.4-0.3,0.8-0.6,1.3-0.8c0.9-0.2,1.7,0,2.4,0.6c0.6,0.5,1,1.1,1.3,1.8
			s0.6,1.4,0.9,2.1c0.2,0.4,0.4,0.9,0.7,1.3c0.1,0.2,0.2,0.3,0.3,0.5c0.4,0.7,0.4,1.4,0.2,2.2c-0.2,0.7-0.6,1.3-1,1.8
			c-0.2,0.3-0.4,0.5-0.7,0.7c-0.6,0.7-1,1.4-1.2,2.3c-0.1,0.3-0.2,0.7-0.2,1C21.6,59,21,60,20.1,61c-0.7,0.8-1.3,1.5-1.8,2.4
			c-0.8,1.5-1.3,3-1.3,4.7c0,0.7,0.1,1.3,0.4,1.9c0.4,1,1.2,1.9,2.8,1.9c0.8,0,1.6-0.2,2.4-0.3c0.9-0.2,1.8-0.4,2.8-0.3
			c0.5,0,0.9,0.1,1.4,0.2c0.2,0,0.4,0.1,0.7,0.2c0.6,0.2,1.3,0.1,1.8-0.2c0.3-0.2,0.6-0.4,0.9-0.5c1.3-0.8,2.7-1.2,4.2-1.3
			c0.8-0.1,1.7,0,2.5,0.2c0.7,0.2,1.1,0,1.5-0.5c0.5-0.6,1.1-1.2,1.9-1.6c0.5-0.3,1.1-0.4,1.7-0.7c0.2-0.1,0.3-0.1,0.5-0.2
			c0.4-0.2,0.7-0.4,0.8-0.9s0.2-1,0.3-1.4c0.3-2.6,2.3-4.1,4.3-4.5c1.1-0.2,2.2-0.1,3.2,0.4C51,60.3,51,60.3,51.1,60.3L51.1,60.3z
			 M68.4,46.1c-0.2,0-0.5,0-0.7,0c-0.8,0.1-1.6,0.2-2.3,0.6c-0.6,0.3-1.1,0.8-1.4,1.5c-0.2,0.5-0.2,1,0.2,1.4
			c0.2,0.2,0.2,0.5,0.1,0.7c-0.1,0.3-0.4,0.4-0.7,0.3c-0.2,0-0.3-0.1-0.5-0.1c-1,0-1.9,0.2-2.7,0.7c-1.5,0.9-2.4,2.1-2.7,3.8
			c0,0.2-0.1,0.4-0.1,0.6c-0.1,0.7-0.5,1.1-1.1,1.4c-0.4,0.1-0.8,0.2-1.1,0.2c-0.4,0.1-0.8,0-1.2,0.1c-0.5,0.1-0.9,0.4-1,0.9
			c0,0.1-0.1,0.2-0.1,0.4c-0.1,0.5-0.2,1-0.3,1.6c-0.1,0.4-0.3,0.7-0.5,0.9c-0.3,0.3-0.7,0.4-1.1,0.3c-0.2-0.1-0.4-0.1-0.6-0.2
			c-0.7-0.3-1.5-0.4-2.3-0.3c-1.4,0.3-3.1,1.4-3.3,3.4c-0.1,0.5-0.2,1.1-0.3,1.6c-0.2,0.9-0.7,1.5-1.6,1.8c-0.2,0.1-0.5,0.2-0.8,0.3
			c-1.1,0.3-2,0.9-2.8,1.8c-0.2,0.2-0.4,0.4-0.6,0.6c-0.4,0.3-0.8,0.5-1.3,0.4c-0.4,0-0.7-0.1-1.1-0.1c-1.4-0.3-2.7-0.1-4.1,0.4
			c-0.8,0.3-1.6,0.7-2.3,1.2c-0.7,0.5-1.5,0.7-2.4,0.5c-0.3,0-0.6-0.1-0.9-0.2c-0.8-0.2-1.7-0.3-2.5-0.1c-0.8,0.1-1.6,0.3-2.4,0.5
			s-1.6,0.2-2.4,0.1c-1.6-0.3-2.7-1.2-3.2-2.8c-0.5-1.4-0.5-2.8-0.2-4.2c0.4-1.8,1.1-3.4,2.2-4.9c0.4-0.5,0.8-0.9,1.1-1.4
			c0.6-0.7,1.1-1.6,1.3-2.5c0.1-0.3,0.1-0.6,0.2-0.8c0.3-1.2,0.8-2.2,1.6-3.1c0.1-0.1,0.2-0.2,0.2-0.3c0.3-0.4,0.6-0.8,0.9-1.2
			c0.4-0.6,0.4-1.3-0.1-1.9c-0.5-0.8-0.9-1.7-1.3-2.6c-0.2-0.5-0.5-1.1-0.7-1.6s-0.6-0.9-1.1-1.1c-0.5-0.2-1-0.2-1.4,0.1
			c-0.3,0.2-0.6,0.5-0.9,0.7c-0.2,0.2-0.4,0.3-0.7,0.5c-0.5,0.3-1,0.4-1.5,0.3c-0.4-0.1-0.9-0.2-1.3-0.4c-0.5-0.2-0.9-0.1-1.2,0.2
			c-0.5,0.6-1.2,0.9-2,1.1c-0.3,0.1-0.6,0.2-0.9,0.3c-0.2,0.1-0.4,0.3-0.3,0.5c0,0.2,0,0.4,0.1,0.6c0.1,0.8-0.3,1.3-1,1.4
			c-0.1,0-0.3,0.1-0.4,0.1c-0.4,0-0.5,0.1-0.5,0.5c0,0.2,0,0.3,0,0.5c0,0.3,0,0.6,0,0.8c-0.1,0.7-0.4,1.2-1.1,1.4
			c-0.1,0-0.2,0.1-0.3,0.1c-0.4,0.1-0.4,0.1-0.4,0.5s0,0.8,0,1.2c0,0.5-0.3,1-0.8,1.2c-0.2,0.1-0.3,0.2-0.5,0.2
			C5,56.7,4.8,57,4.8,57.4s0,0.9,0,1.3c0,0.3,0,0.6-0.1,0.9c-0.1,0.8-0.7,1.2-1.4,1.5s-0.7,0.3-0.5,1C3,62.9,3,63.7,2.6,64.5
			c-0.1,0.3-0.3,0.6-0.5,0.8c-0.2,0.4-0.4,0.8-0.6,1.2c-0.2,0.5-0.3,1-0.3,1.5c0.1,0.6,0.2,1.2,0.5,1.7c0.4,0.7,0.9,1.4,1.3,2.1
			c0.6,0.9,1.2,1.7,1.6,2.6c0.1,0.2,0.1,0.4,0.1,0.5c0,0.2,0,0.4,0.1,0.6C5.5,76.7,6,78,6.6,79.3c0.4,1,1,1.7,2,2.1
			c0.7,0.3,1.5,0.7,2.2,1s1.4,0.6,2.1,0.9c1.6,0.6,3.3,0.9,5.1,0.9c0.5,0,1.1,0,1.6,0.1c0.7,0,1.4,0.1,2,0.4c0.7,0.3,1.4,0.6,2,0.9
			c0.5,0.2,1.1,0.5,1.7,0.5c0.7,0.1,1.3-0.1,2-0.3c0.7-0.3,1.5-0.5,2.2-0.8c0.8-0.3,1.6-0.6,2.5-0.7c0.9-0.1,1.8,0,2.7,0.1
			s1.8,0,2.7-0.4c0.6-0.2,1.1-0.5,1.7-0.8c0.9-0.5,1.9-0.7,3-0.8c0.9-0.1,1.7-0.2,2.6-0.3c1.3-0.2,2.4-0.7,3.3-1.6
			c0.3-0.3,0.7-0.7,1.1-1c0.6-0.5,1.3-0.9,2.1-1c0.7-0.1,1.4-0.2,2.1-0.3c1-0.1,1.8-0.6,2.4-1.4c0.2-0.4,0.5-0.8,0.7-1.1
			c0.3-0.5,0.6-1.1,0.9-1.6c0.6-1,1.5-1.8,2.6-2.1c0.2,0,0.4-0.1,0.5-0.2c0.6-0.2,1.1-0.5,1.4-1c0.3-0.4,0.6-0.8,0.8-1.2
			c0.3-0.5,0.6-1,0.9-1.5c0.5-0.8,1.2-1.4,2-1.7c0.4-0.2,0.7-0.3,1.1-0.4c0.6-0.2,1.3-0.4,1.9-0.7c1-0.4,1.7-1.1,2-2.1
			c0.1-0.4,0.3-0.9,0.4-1.3c0.4-1.4,1.3-2.4,2.8-2.8c0.6-0.2,1.2-0.3,1.8-0.5c0.3-0.1,0.7-0.2,1-0.4c0.4-0.2,0.7-0.6,0.6-1.1
			c0-0.3-0.1-0.6-0.1-0.9c-0.5-1.9-1-3.8-1.4-5.7c-0.2-0.6-0.3-1.3-0.5-1.9c-0.2-0.7-0.6-1.2-1.4-1.4c-0.4-0.1-0.7-0.2-1.1-0.3
			C71.2,46.4,69.8,46.1,68.4,46.1z"/>
		<path class="st0" d="M58,22.4c-0.2-0.1-0.4-0.1-0.6-0.2c-0.8-0.1-1.6-0.2-2.3-0.3c-0.7-0.1-1.5-0.1-2.2-0.1
			c-1.4-0.1-2.9-0.3-4.1-1c-0.4-0.2-0.7-0.4-1-0.7c-1.2-1-1.3-2.4-0.6-3.7c0.5-0.9,1.2-1.6,2.1-2.3c0.7-0.5,1.5-0.9,2.4-1
			c1.2-0.1,2.3,0.1,3.2,1.1c0.9,0.9,1,2.4,0.3,3.4c-0.1,0.1-0.2,0.2-0.3,0.3c-0.2-0.1-0.1-0.2,0-0.3c0.1-0.3,0.3-0.5,0.4-0.8
			c0.3-1.3-0.4-2.6-1.6-3.1c-1.2-0.5-2.4-0.4-3.5,0.2c-1.1,0.6-1.9,1.4-2.6,2.3C47.2,16.8,47,17.4,47,18c0,0.5,0.2,1,0.5,1.4
			c0.4,0.5,0.9,0.9,1.4,1.2c0.9,0.5,1.8,0.7,2.7,0.8c1.2,0.1,2.3,0.2,3.5,0.2c0.9,0.1,1.8,0.1,2.7,0.4c0.4,0.1,0.4,0.1,0.6-0.3
			c0.2-0.6,0.4-1.2,0.5-1.9c0.2-0.7,0.4-1.3,0.8-1.9c0.5-0.7,1.1-1.1,1.9-1.3c0.7-0.1,1.3,0,1.9,0.2c0.7,0.3,1.3,0.7,1.9,1.2
			c1.3,1.2,2.1,2.7,2.3,4.4c0.2,1.3,0.1,2.5-0.5,3.7c-0.1,0.2-0.2,0.4-0.3,0.6c-0.2,0.4-0.1,0.8,0.1,1.2c0.1,0.2,0.2,0.4,0.3,0.6
			c0.1,0.2,0.2,0.4,0.2,0.6s0.1,0.3,0.3,0.3c0.3,0.1,0.5,0.1,0.8,0.2c0.6,0.2,1.1,0.5,1.5,0.9c0.2,0.2,0.4,0.4,0.6,0.5
			c0.7,0.5,1.4,0.5,2.1,0s1.2-1.2,1.4-2.1c0.2-0.7,0.3-1.5,0.4-2.2c0.1-0.3,0.1-0.7,0.2-1c0.2-0.5,0.6-0.7,1.1-0.4
			c0.2,0.1,0.4,0.3,0.4,0.6c0.1,0.3,0.1,0.5,0.2,0.8c0.2,1.6,1.4,2.6,2.6,2.8c0.1,0,0.3,0.1,0.5,0.1s0.3,0.1,0.3,0.3
			c0,0.4,0.1,0.8,0.1,1.2c0,1.1,0,2.2-0.1,3.3c-0.1,0.4-0.1,0.9-0.2,1.3c-0.1,0.4-0.4,0.7-0.8,0.9c-0.3,0.1-0.5,0-0.8-0.1
			c-0.3-0.2-0.6-0.4-0.9-0.6c-0.9-0.7-1.8-1.4-2.7-2.2c-0.1-0.1-0.2-0.1-0.3-0.2c0,0,0,0-0.1,0c0,0.1,0,0.2,0.1,0.3
			c0.4,1.2,1,2.3,1.9,3.2c0.2,0.2,0.3,0.3,0.5,0.5c0.5,0.4,1.1,0.5,1.8,0.3c0.4-0.1,0.8-0.2,1.2-0.3c0.5-0.1,0.8,0.2,1.1,0.6
			c0.2,0.3,0.4,0.7,0.5,1c0.2,0.3,0.3,0.6,0.6,0.9c0.5,0.4,1,0.6,1.7,0.1c0.1-0.1,0.3-0.2,0.4-0.2c0.5-0.2,0.9-0.1,1.2,0.4
			c0.2,0.5,0.2,1,0,1.5c-0.1,0.3-0.3,0.6-0.5,0.9c-0.1,0.2-0.2,0.4-0.3,0.6c-0.2,0.6-0.1,1.1,0.3,1.6c0.4,0.4,0.9,0.7,1.4,0.9
			c0.6,0.2,1.3,0.3,2,0.5s1.3,0.4,1.8,0.9c0.1,0.1,0.2,0.2,0.3,0.3c-0.2,0.2-0.2,0.1-0.3,0c-0.5-0.7-1.3-0.9-2.1-1.1
			c-0.5-0.1-1.1-0.2-1.6-0.4c-0.4-0.1-0.9-0.3-1.2-0.6c-0.6-0.5-0.9-1.1-0.8-1.8c0-0.2,0.1-0.4,0.2-0.6c0.2-0.3,0.3-0.6,0.5-0.9
			c0.2-0.4,0.4-0.9,0.2-1.3c-0.2-0.6-0.6-0.7-1.1-0.4c-0.1,0.1-0.2,0.1-0.3,0.2c-0.4,0.3-0.8,0.3-1.3,0.1c-0.4-0.2-0.7-0.4-0.9-0.8
			c-0.1-0.2-0.2-0.4-0.4-0.7c-0.1-0.2-0.2-0.4-0.3-0.6c-0.3-0.6-0.8-0.8-1.4-0.6c-0.2,0.1-0.5,0.1-0.7,0.2c-0.8,0.2-1.4,0.1-2-0.4
			c-0.5-0.4-0.9-0.8-1.2-1.4c-0.6-0.9-1.1-1.9-1.4-3c0-0.1-0.1-0.2-0.1-0.3s0-0.2,0-0.3c0.1,0,0.2,0,0.3,0.1
			c0.6,0.5,1.2,0.9,1.8,1.4c0.5,0.4,1.1,0.9,1.6,1.3c0.3,0.2,0.6,0.4,0.9,0.6c0.6,0.2,1,0,1.2-0.6c0.1-0.2,0.1-0.4,0.1-0.6
			c0.2-1.4,0.3-2.8,0.1-4.2c0-0.2,0-0.5-0.1-0.7c0-0.1,0-0.1-0.1-0.2c-0.2,0-0.3-0.1-0.5-0.1c-1.5-0.3-2.7-1.6-2.8-3
			c0-0.2-0.1-0.5-0.1-0.7c-0.1-0.2-0.2-0.4-0.3-0.5c-0.2-0.2-0.6-0.1-0.7,0.2c-0.1,0.2-0.1,0.4-0.2,0.6c-0.1,0.8-0.2,1.6-0.4,2.4
			c-0.2,0.9-0.6,1.7-1.3,2.2c-0.4,0.3-0.8,0.5-1.3,0.6c-0.5,0-1-0.1-1.5-0.4c-0.2-0.2-0.4-0.4-0.6-0.5c-0.6-0.5-1.3-0.9-2.1-1
			c-0.1,0-0.2,0-0.3-0.1c-0.1,0-0.2-0.1-0.2-0.2c0-0.4-0.1-0.7-0.3-1c0-0.1-0.1-0.1-0.1-0.2c-0.4-0.6-0.4-1.1-0.2-1.7
			c0.2-0.5,0.4-0.9,0.5-1.4c0.5-1.8,0.2-3.5-0.7-5.1c-0.6-1.1-1.4-1.9-2.5-2.6C63.5,17.2,62.8,17,62,17s-1.4,0.3-1.9,0.9
			c-0.3,0.4-0.6,0.9-0.8,1.4s-0.3,1-0.4,1.5c-0.1,0.4-0.2,0.8-0.3,1.1c-0.1,0.3-0.1,0.3,0.2,0.5c0.5,0.2,1,0.5,1.4,0.8
			c0.8,0.6,1.5,1.4,1.7,2.5c0,0.1,0.1,0.2,0.1,0.3c0,0.1,0.1,0.3,0,0.4c-0.1,0-0.2-0.1-0.4-0.1c-0.3-0.2-0.6-0.4-1-0.7
			c-0.7-0.5-1.3-0.9-2-1.4c-0.2-0.1-0.3-0.2-0.4-0.4c-0.3-0.3-0.4-0.6-0.3-1C58,22.7,58,22.6,58,22.4z M61.7,25.9
			c0-0.2,0-0.3-0.1-0.4c-0.1-0.3-0.2-0.5-0.3-0.8c-0.6-1-1.5-1.7-2.6-2.1c-0.4-0.2-0.5-0.1-0.5,0.4c0,0.1,0.1,0.3,0.1,0.4
			c0.1,0.1,0.2,0.3,0.4,0.4c0.9,0.7,1.8,1.3,2.7,1.9C61.5,25.8,61.6,25.9,61.7,25.9z"/>
		<path class="st0" d="M36.5,16.8c0.3,0,0.5,0,0.7-0.1c0.7-0.1,1.4,0,2.1,0.1c0.3,0,0.5,0,0.8,0c1-0.3,1.9-0.3,2.8,0.1
			c0.4,0.2,0.7,0.4,0.9,0.7c-0.1,0.3-0.3,0.3-0.6,0.4c-0.4,0.1-0.8,0.1-1.1,0c-0.4-0.1-0.9-0.3-1.3-0.4c-0.3-0.1-0.6-0.2-0.9-0.3
			c-0.2-0.1-0.3,0-0.5,0c-0.5,0.2-1,0.5-1.5,0.9c-0.2,0.2-0.5,0.5-0.7,0.7c-0.3,0.2-0.6,0.3-0.9,0.3c-0.4,0-0.7-0.3-0.7-0.8
			c0-0.2,0.1-0.4,0.1-0.6c0-0.1,0.1-0.2,0.1-0.4c-0.2-0.1-0.3,0-0.4,0.1c-1.3,0.5-2.3,1.4-2.8,2.7c-0.4,0.8-0.9,1.2-1.8,1.4
			c-1.3,0.3-2.5,0.6-3.8,0.9c-0.1,0-0.2,0-0.3,0c-0.9,0.1-1.4-0.4-1.5-1.3c0-0.6,0-1.3,0-1.9c0-0.3,0-0.7,0.1-1c0,0,0-0.1-0.1-0.1
			c-0.1,0.1-0.2,0.1-0.2,0.2c-0.9,1.1-1.2,2.8-0.3,4.2c0.1,0.1,0.2,0.3,0.3,0.4c0.3,0.6,0.2,1-0.4,1.3c-0.2,0.1-0.4,0.2-0.7,0.2
			c-0.8,0.2-1.5,0.3-2.3,0.5c-0.1,0-0.2,0.1-0.3-0.1c0.1-0.2,0.2-0.2,0.4-0.2c0.7-0.2,1.4-0.3,2-0.5c0.3-0.1,0.5-0.2,0.8-0.3
			c0.4-0.2,0.4-0.5,0.3-0.8c-0.1-0.1-0.1-0.3-0.2-0.4C24.2,22,24,21.3,24,20.5c0.1-1.1,0.5-2,1.3-2.8c0.1-0.1,0.1-0.1,0.2-0.2h0.1
			c0.1,0.2,0.1,0.5,0,0.7c0,0.8-0.1,1.6-0.1,2.5c0,0.2,0,0.4,0.1,0.6c0.2,0.6,0.6,0.8,1.2,0.7c0.4-0.1,0.8-0.2,1.2-0.3
			c1-0.2,1.9-0.5,2.9-0.7c0.7-0.2,1.2-0.5,1.5-1.2c0.7-1.5,1.9-2.5,3.4-3c0.3-0.1,0.4-0.3,0.6-0.5c1.1-2,2.5-3.7,4.4-4.9
			c0.8-0.5,1.7-0.9,2.6-0.9c1.4,0,2.7,0.4,3.5,1.7c0.1,0.1,0.1,0.3,0.2,0.5c-0.1,0-0.2,0-0.3-0.1c-0.1,0-0.1-0.1-0.1-0.2
			c-0.6-1-1.5-1.5-2.6-1.6s-2.1,0.2-3,0.7c-0.5,0.3-1.1,0.7-1.5,1.2c-1.1,1-2,2.1-2.7,3.4c-0.1,0.1-0.1,0.2-0.1,0.3
			C36.4,16.7,36.5,16.7,36.5,16.8z M39,17.1C38.9,17.1,38.9,17.1,39,17.1c-0.9-0.2-1.8-0.2-2.6,0c-0.1,0-0.2,0.1-0.2,0.2
			c-0.1,0.3-0.2,0.6-0.3,0.9c-0.1,0.5,0.3,0.8,0.8,0.7c0.2-0.1,0.4-0.2,0.6-0.3C37.8,18.1,38.3,17.6,39,17.1
			C38.9,17.2,38.9,17.2,39,17.1z M40.4,17c0.1,0.1,0.1,0.1,0.2,0.1c0.4,0.2,0.9,0.3,1.3,0.5c0.2,0.1,0.5,0.1,0.7,0.2
			c0.3,0,0.5,0,0.7-0.2C42.9,17,41.4,16.7,40.4,17z"/>
		<path class="st0" d="M31.2,30.9c0.1,0.1,0.2,0.1,0.2,0.2c1,1.5,0.7,3.8-1.1,4.8c-0.3,0.2-0.7,0.3-1,0.4c-0.2,0.1-0.5,0.1-0.7,0.2
			c-0.5,0.2-0.6,0.6-0.3,1c0.3,0.4,0.6,0.7,1,0.9c0.8,0.4,1.6,0.5,2.4,0.2c0.6-0.2,0.9-0.1,1.1,0.6c0.1,0.6,0,1.1-0.3,1.6
			c-0.2,0.4-0.5,0.6-1,0.8c-0.2,0.1-0.3,0.1-0.5,0.1c-0.2,0.1-0.4,0.2-0.5,0.3c-0.4,0.3-0.3,0.7,0.1,0.9c0.6,0.2,1.2,0.4,1.8,0.4
			c0.5,0,0.9-0.1,1.4-0.1c0.1,0,0.1,0,0.2,0l0.1,0.1c0,0.1,0,0.1-0.1,0.1c-0.2,0.1-0.5,0.1-0.7,0.2c-0.8,0.1-1.7,0-2.5-0.3
			c-0.2-0.1-0.3-0.1-0.5-0.2C30,43,30,42.6,30.1,42.3s0.3-0.4,0.6-0.5c0.2-0.1,0.5-0.2,0.7-0.2c0.9-0.3,1.3-1.1,1.1-2
			c0-0.1,0-0.2-0.1-0.3c-0.1-0.2-0.3-0.3-0.6-0.3c-0.3,0.1-0.5,0.1-0.8,0.2c-1,0.1-2-0.3-2.8-1.2c-0.1-0.1-0.2-0.3-0.2-0.4
			c-0.2-0.5-0.1-1,0.4-1.2c0.3-0.2,0.7-0.3,1-0.4c0.6-0.2,1.1-0.4,1.5-0.9c0.8-0.9,1-1.9,0.7-3c0-0.1-0.1-0.2-0.2-0.4
			c-0.1,0.1-0.1,0.2-0.1,0.3c-0.1,0.5-0.4,1-0.8,1.4c-0.5,0.5-1,0.9-1.6,1.3c-1,0.6-1.7,0.1-2.1-0.6c-0.2-0.5-0.3-1-0.3-1.5
			c0.2,0,0.2,0.1,0.3,0.2c0.1,0.3,0.1,0.5,0.2,0.8s0.3,0.6,0.5,0.9c0.3,0.3,0.6,0.3,1,0.2c0.1,0,0.1,0,0.2-0.1
			c0.7-0.4,1.4-0.9,1.9-1.6c0.4-0.5,0.6-1.1,0.5-1.8C31.1,31.1,31.1,31,31.2,30.9C31.1,30.9,31.1,30.9,31.2,30.9z"/>
		<path class="st0" d="M22.7,33.9c0.1-0.1,0.2-0.1,0.3-0.2c0.7-0.4,1.1-1.1,1.2-1.8c0.1-0.9-0.2-1.8-0.5-2.6c0,0,0,0-0.1-0.1
			c-0.1,0.1-0.2,0.2-0.3,0.2C22.6,30,21.8,30.2,21,30c-0.2,0-0.4-0.1-0.5-0.3c0.1-0.2,0.2-0.1,0.3,0c0.4,0.1,0.7,0.2,1.2,0.1
			c0.6-0.1,1.1-0.4,1.5-0.9c0.1-0.1,0.1-0.2,0.2-0.3c0.1,0.1,0.2,0.1,0.2,0.2c0.4,0.9,0.7,1.8,0.7,2.9c0,0.5-0.1,1-0.4,1.4
			c0,0.1-0.1,0.2-0.1,0.2v0.1c0.5,0.1,0.7,0.5,0.9,0.9c0.3,0.7,0.5,1.3,0.5,2c0,0.4-0.1,0.8-0.3,1.2c0,0.1,0,0.1-0.1,0.2
			c0.1,0,0.1,0.1,0.2,0.1c0.9,0.3,1.5,1,1.8,2c0.1,0.4,0.1,0.9-0.2,1.3l-0.1,0.1c0,0,0,0,0,0.1c0.1,0.1,0.2,0.1,0.3,0.2
			c0.6,0.4,1.1,1.4,0.8,2.1v0.1c-0.1,0.1-0.1,0.3-0.2,0.3c-0.2-0.1,0-0.2,0-0.3c0.3-0.9-0.3-1.9-1.1-2.1c-0.1,0-0.2-0.1-0.4-0.1
			c0,0,0,0-0.1-0.1c0.1-0.1,0.2-0.1,0.3-0.2c0.4-0.2,0.5-0.4,0.5-0.8c0-0.8-0.7-1.9-1.4-2.2c-0.5-0.2-0.7-0.3-1-0.2
			c-0.1,0-0.2,0.1-0.4-0.1c0.1-0.1,0.1-0.1,0.2-0.2c0.5-0.3,0.7-0.7,0.7-1.2c0-0.9-0.3-1.7-0.7-2.5c-0.2-0.4-0.5-0.4-0.9-0.2
			c-0.1,0.1-0.2,0.1-0.4,0.2C23,34.1,22.8,34.1,22.7,33.9z"/>
		<path class="st0" d="M33.6,46.4c0.1,0.1,0.2,0.2,0.3,0.3c0.6,0.6,1.2,1.1,1.9,1.5c0.2,0.1,0.4,0.2,0.6,0.3c0.2,0.1,0.5,0.1,0.7,0
			c0.1,0,0.2-0.1,0.3,0c-0.1,0.1-0.1,0.1-0.2,0.2c-0.3,0.1-0.5,0.2-0.8,0.1c-0.3-0.1-0.7-0.3-1-0.4c-0.7-0.4-1.3-0.9-1.8-1.5
			C33.6,46.8,33.4,46.7,33.6,46.4z"/>
		<path class="st0" d="M55.6,73.9c0.1-0.1,0.1-0.2,0.2-0.2c1.4-0.7,2-2,2.3-3.5c0.3-2-0.1-3.9-1-5.7c-0.1-0.2-0.3-0.5-0.4-0.7
			c-0.2-0.2-0.4-0.4-0.7-0.6c-0.5-0.3-1-0.2-1.4,0.2c-0.1,0.1-0.2,0.3-0.3,0.4c-1.1,1.7-2.7,2.8-4.7,3.3c-0.3,0.1-0.6,0.1-0.9,0.3
			c-0.7,0.2-1,0.8-0.8,1.5c0.1,0.7,0.5,1.4,0.8,2.1c0.4,0.9,0.8,1.7,1.1,2.6s0.4,1.8,0.3,2.7c-0.1,1-0.6,1.8-1.3,2.4
			c-1.3,1-2.7,1.5-4.3,1.7C43,80.5,42,80,41.3,79c-0.3-0.4-0.6-0.9-0.9-1.4c-0.1-0.1-0.1-0.2-0.2-0.3c-0.1,0.2-0.1,0.4-0.1,0.5
			c0.1,0.5,0.1,1,0.2,1.5c0.2,1.4-0.3,2.4-1.5,3.1c-0.7,0.4-1.5,0.7-2.4,0.7c-3,0.1-5.3-1.1-7-3.6c-0.3-0.4-0.5-1-0.7-1.5
			c-0.1-0.2-0.2-0.5-0.3-0.7c-0.1-0.1-0.1-0.2-0.2-0.4c-0.2-0.2-0.4-0.4-0.7-0.3C27.2,76.7,27,77,27,77.3c0,0.5,0.1,0.9,0.3,1.3
			c0.2,0.4,0.4,0.7,0.7,1.1c0.3,0.4,0.6,0.9,0.9,1.3c0.4,0.5,0.6,1.1,0.7,1.8c0.1,1.1-0.4,2.3-1.9,2.3c-1,0-1.8-0.3-2.6-0.9l0,0
			C25,84.1,24.9,84.1,25,84h0.2c0.1,0,0.1,0.1,0.2,0.1c0.5,0.3,1.1,0.6,1.7,0.7c0.3,0.1,0.7,0.1,1.1,0c1.1-0.2,1.4-1.3,1.2-2
			c-0.1-0.7-0.4-1.4-0.9-2c-0.3-0.4-0.7-0.9-1-1.3c-0.2-0.4-0.4-0.7-0.6-1.1s-0.2-0.9,0-1.4c0.2-0.7,0.9-0.9,1.5-0.4
			c0.2,0.1,0.3,0.3,0.4,0.5c0.1,0.3,0.2,0.6,0.4,0.8c1,2.6,3,4.1,5.6,4.7c1.2,0.3,2.3,0.2,3.4-0.2c0.3-0.1,0.6-0.3,0.9-0.5
			c0.9-0.7,1.3-1.6,1.1-2.7c-0.1-0.5-0.2-1-0.2-1.5c0-0.3,0-0.7,0-1c0-0.1,0.1-0.2,0.1-0.4c0.1,0.2,0.2,0.3,0.3,0.4
			c0.3,0.5,0.6,1.1,0.9,1.6c0.3,0.5,0.7,1,1.2,1.3c0.7,0.5,1.5,0.6,2.3,0.5c1.2-0.2,2.3-0.5,3.3-1.2c0.9-0.6,1.5-1.5,1.7-2.6
			c0.1-0.8,0-1.6-0.2-2.4c-0.2-0.9-0.6-1.7-1-2.5c-0.3-0.6-0.5-1.2-0.8-1.9c-0.1-0.3-0.2-0.7-0.2-1c0-0.6,0.3-1,0.8-1.3
			c0.3-0.1,0.5-0.2,0.8-0.2c2.1-0.5,3.8-1.6,4.9-3.5c0.1-0.1,0.2-0.3,0.3-0.4c0.4-0.5,0.9-0.6,1.5-0.4c0.4,0.2,0.7,0.4,1,0.8
			c0.4,0.5,0.7,1.1,0.9,1.7c0.6,1.5,0.7,3,0.6,4.5c-0.1,0.9-0.3,1.7-0.8,2.5c-0.4,0.7-1,1.2-1.7,1.5c-0.1,0-0.1,0-0.2,0.1
			C55.7,74,55.7,74,55.6,73.9z"/>
		<path class="st0" d="M3.6,70.3C3.7,70.2,3.8,70.1,4,70c1.8-1.1,4.2-0.9,5.8,0.3c0.2,0.1,0.3,0.3,0.5,0.5c0.3,0.4,0.2,0.9-0.3,1.1
			c-0.2,0.1-0.5,0.2-0.8,0.2c-0.2,0.1-0.4,0.1-0.6,0.2C7.5,72.6,6.8,74,7.2,75c0.1,0.3,0.3,0.6,0.5,0.9c1,1.4,2.1,2.9,3.1,4.3
			c0.1,0.1,0.1,0.1,0.2,0.2c0.1-0.2,0-0.4-0.1-0.5c-0.3-0.4-0.5-0.8-0.8-1.2c-0.9-1-1.5-2.2-2-3.5C7.8,74.3,8,73.8,9,73.4
			c0.6-0.3,1.3-0.4,2-0.4c0.8-0.1,1.7-0.1,2.5,0.1c0.1,0,0.3,0.1,0.4,0.1c1,0.2,1.7,0.8,1.8,1.9c0.1,0.5,0.1,1,0.2,1.5
			c0.2,1,0.6,1.9,1.1,2.7c0.9,1.3,1.9,2.5,3,3.5c0.1,0.1,0.2,0.2,0.3,0.4c0.1,0.1,0.1,0.1,0.1,0.2c-0.2,0.1-0.2,0-0.3,0
			c-1.4-1.3-2.7-2.7-3.7-4.3c-0.6-0.9-0.8-1.9-1-2.9c-0.1-0.4-0.1-0.8-0.2-1.2c-0.2-0.7-0.7-1.2-1.4-1.3c-1-0.3-2.1-0.3-3.2-0.2
			C10,73.6,9.5,73.7,9,73.8c-0.2,0-0.4,0.1-0.6,0.3c-0.3,0.2-0.5,0.6-0.4,1c0.2,0.9,0.6,1.7,1.1,2.4c0.4,0.6,0.8,1.1,1.2,1.6
			c0.2,0.3,0.4,0.6,0.6,0.9c0.1,0.3,0.2,0.5,0.2,0.8c0,0.1,0,0.3-0.1,0.4c-0.2,0.1-0.2-0.1-0.3-0.2c-0.4-0.5-0.8-1-1.1-1.6
			c-0.7-1-1.4-2-2.1-3c-0.3-0.5-0.7-1-0.8-1.6c-0.3-1.2,0.6-2.6,1.8-2.9c0.3-0.1,0.5-0.1,0.8-0.2s0.5-0.1,0.6-0.4s-0.1-0.5-0.3-0.7
			c-0.7-0.6-1.4-0.9-2.3-1.1c-1.2-0.2-2.4,0-3.4,0.6C3.9,70.3,3.8,70.4,3.6,70.3z"/>
		<path class="st0" d="M13.9,64.1c-0.1-0.1-0.1-0.2-0.2-0.4c-0.2-0.4-0.3-0.8-0.6-1.2c-0.5-0.7-1.2-1-2.1-0.8
			c-0.5,0.1-1,0.3-1.5,0.5c-0.2,0.1-0.5,0.1-0.7,0.1c-0.5,0-0.7-0.3-0.6-0.8C8.3,61,8.6,60.6,9,60.2c0.8-1,1.9-1.5,3.2-1.9
			c0.8-0.2,1.6-0.3,2.4-0.4c0.1,0,0.1,0,0.2,0c0-0.1-0.1-0.2-0.1-0.3c-0.3-0.3-0.6-0.5-1.1-0.5c-0.4,0-0.8,0-1.2,0.1
			s-0.8,0.3-1.2,0.4c-0.2,0.1-0.4,0.1-0.6,0.1c-0.3,0-0.5-0.2-0.4-0.5c0-0.1,0-0.2,0.1-0.3c0.7-1.6,1.8-2.7,3.5-3.2
			c0.5-0.2,0.9-0.3,1.4-0.5c0.3-0.1,0.5-0.2,0.7-0.4c0.1-0.1,0.2-0.2,0.2-0.3c-0.1-0.1-0.2-0.2-0.3-0.2c-0.3,0-0.6,0-0.8,0
			c-0.9,0.1-1.8,0.5-2.5,1.2c-0.1,0.1-0.1,0.1-0.2,0.2c0,0,0,0-0.1,0c-0.1-0.1,0-0.3,0.1-0.3c0.3-0.3,0.6-0.6,1-0.8
			c0.7-0.4,1.6-0.6,2.4-0.5c0.2,0,0.4,0.1,0.6,0.2c0.2,0.1,0.3,0.3,0.1,0.5c-0.2,0.2-0.4,0.4-0.6,0.5c-0.5,0.2-1,0.4-1.5,0.5
			c-1.4,0.4-2.6,1.2-3.4,2.5c-0.2,0.2-0.3,0.5-0.4,0.8c-0.1,0.3,0,0.4,0.3,0.4c0.1,0,0.3-0.1,0.4-0.1c0.4-0.1,0.7-0.3,1.1-0.4
			c0.6-0.2,1.1-0.2,1.7,0c0.4,0.1,0.8,0.4,1,0.8c0.1,0.3,0.1,0.4-0.3,0.4c-0.9,0.1-1.8,0.1-2.7,0.4c-1.3,0.4-2.4,1-3.2,2.1
			c-0.2,0.2-0.3,0.5-0.4,0.8c-0.2,0.4,0.1,0.7,0.5,0.5c0.3-0.1,0.6-0.2,0.9-0.3c0.5-0.2,1.1-0.4,1.7-0.4c0.5,0,0.9,0.2,1.2,0.5
			c0.6,0.5,0.8,1.2,1,1.9c0,0.1,0,0.1,0,0.2C14,64,13.9,64,13.9,64.1z"/>
		<path class="st0" d="M61,59.3c-0.1,0.1-0.3,0.2-0.4,0.3c-0.7,0.7-1.4,1.5-2,2.3c-0.1,0.1-0.2,0.3-0.4,0.2
			c-0.1-0.2,0.1-0.3,0.1-0.4c0.4-0.5,0.8-0.9,1.2-1.4c0.4-0.4,0.8-0.8,1.1-1.2c0.1-0.1,0.2-0.2,0.3-0.3c0.5,0.4,0.6,1,0.9,1.6
			C62,60.2,62,60.1,62,60c0.2-0.6,0.3-1.2,0.5-1.8c0.3-1,0.9-1.7,1.8-2.2c0.6-0.3,1.3-0.6,1.9-0.9c0.3-0.2,0.7-0.2,1-0.1
			c0.6,0.1,1,0.6,1,1.2c0,0.2,0,0.2-0.3,0.3v-0.1c0.1-0.6-0.3-1-0.9-1c-0.2,0-0.4,0-0.6,0.1c-0.9,0.3-1.7,0.7-2.5,1.3
			c-0.6,0.5-1,1.2-1.2,1.9c-0.2,0.9-0.4,1.8-0.6,2.7c0,0.1,0,0.2,0,0.3c0.2,1.3,0.3,2.5,0.2,3.8c0,0.8-0.2,1.6-0.6,2.3
			c-0.1,0.2-0.2,0.4-0.4,0.5c-0.1,0.1-0.3,0.2-0.4,0.2c-0.3,0-0.4-0.1-0.3-0.4c0.3-2.2,0.7-4.4,1.1-6.5c0-0.2,0-0.4,0-0.5
			c-0.1-0.5-0.3-0.9-0.5-1.4C61.2,59.6,61.1,59.5,61,59.3z M61,68.1c0.2,0,0.3,0,0.4-0.2c0.1-0.2,0.3-0.4,0.4-0.7
			c0.2-0.6,0.4-1.3,0.4-2c0-0.8,0-1.6-0.1-2.4c0-0.1-0.1-0.2-0.1-0.3C61.7,63,60.9,67.7,61,68.1z"/>
		<path class="st0" d="M67.5,52.8c0-0.3,0.2-0.3,0.4-0.4c0.2-0.1,0.4-0.1,0.6-0.1c0.6,0,1-0.3,1.3-0.7c0.2-0.3,0.4-0.6,0.5-0.8
			c0.2-0.2,0.3-0.5,0.5-0.7c0.3-0.3,0.7-0.5,1.1-0.5s0.9,0.1,1.3-0.2c0,0,0,0.1,0.1,0.1c0,0.1,0,0.2-0.1,0.2
			c-0.1,0.1-0.3,0.1-0.4,0.1c-0.2,0-0.5,0-0.7,0c-0.5,0-1,0.2-1.3,0.6c-0.2,0.3-0.4,0.6-0.5,0.8c-0.2,0.3-0.4,0.5-0.6,0.8
			c-0.3,0.3-0.6,0.5-1.1,0.5C68.2,52.5,67.8,52.6,67.5,52.8C67.5,52.8,67.5,52.8,67.5,52.8C67.6,52.9,67.6,52.8,67.5,52.8z"/>
		<path class="st0" d="M16.2,48.2c-0.1,0-0.1-0.1-0.1-0.2c0.1-0.1,0.2-0.3,0.3-0.4c0.7-1,1.6-1.6,2.8-1.9c0.1,0,0.3-0.1,0.4,0.1
			c-0.1,0-0.2,0.1-0.3,0.1c-1.2,0.3-2.2,1-2.8,2.1C16.4,48,16.4,48.1,16.2,48.2C16.3,48.2,16.3,48.2,16.2,48.2z"/>
		<path class="st0" d="M10.6,67c-0.1,0-0.2,0.1-0.2,0.1c-0.7-0.1-1.2,0.1-1.7,0.5c0,0-0.1,0.1-0.2,0.1c0-0.1-0.1-0.2,0-0.2
			c0-0.1,0.1-0.1,0.2-0.2c0.5-0.4,1.1-0.6,1.7-0.5c0.1,0,0.2,0.1,0.3,0.1C10.6,66.9,10.6,67,10.6,67z"/>
	</g>
	<g>
		<path class="st1" d="M95,42.3c0,0.1-0.1,0.1-0.1,0.2c-0.1,0.9-0.5,1.8-0.8,2.7c-0.5,1.2-0.9,2.5-1.3,3.7c-0.1,0.3-0.3,0.7-0.4,1
			c-0.4,0.9-1.1,1.5-2,1.7c-0.4,0.1-0.9,0.1-1.4,0.2c-0.8,0-1.7,0.2-2.4,0.5c-0.5,0.2-1,0.4-1.5,0.5c-1.8,0.6-3.3-0.1-4.2-1.4
			c-0.6-0.8-0.9-1.7-1.1-2.6c-0.1-0.3-0.1-0.5-0.2-0.8c-0.1-0.6-0.4-0.9-1-1.1c-0.2-0.1-0.4-0.2-0.6-0.2c-2-0.7-3.4-2.1-4.3-4
			c-0.1-0.3-0.3-0.7-0.5-1c-0.3-0.6-0.8-1-1.4-1.2c-0.5-0.1-1-0.3-1.4-0.4c-1-0.3-1.6-0.8-2-1.8c-0.1-0.3-0.3-0.7-0.3-1.1
			c-0.1-0.6-0.1-1.1-0.2-1.7c0-0.3-0.1-0.4-0.4-0.4c-0.1,0-0.3,0-0.4,0c-0.6,0-1.1,0-1.7,0.1c-0.5,0.1-1,0-1.4-0.1
			c-0.9-0.2-1.6-0.8-2-1.6c-0.3-0.6-0.4-1.2-0.6-1.8c-0.1-0.4-0.2-0.8-0.2-1.2c-0.1-0.6-0.5-0.9-1.1-1c-0.1,0-0.2-0.1-0.4-0.1
			c-1-0.2-1.7-0.7-2.3-1.5c-0.4-0.6-0.7-1.2-1-1.8c-0.2-0.5-0.4-0.8-1-0.6c-2.1,0.1-4.1-0.3-6-1.3c-0.4-0.2-0.7-0.4-1.1-0.6
			c-0.5-0.2-1-0.4-1.5-0.3c-0.6,0-1.3,0.1-1.9,0.1c-1.1,0.1-2.2,0.1-3.2-0.3c-0.8-0.3-1.6-0.5-2.4-0.8c-0.6-0.2-1.3-0.4-1.9-0.4
			c-1.1-0.1-2,0.3-2.7,1.2c-0.5,0.7-0.8,1.5-1,2.3c-0.5,2.9,0.1,5.6,1.9,8c0.3,0.4,0.5,0.7,0.8,1.1c1.1,1.3,1.7,2.7,2,4.3
			c0,0.3,0.1,0.6,0.2,0.9c0.2,0.7,0.6,1.3,1.2,1.8c0.4,0.3,0.8,0.7,1.1,1.1c0.3,0.3,0.6,0.7,0.8,1.1c0.5,1.1,0.5,2.1-0.2,3.1l0,0
			c-0.7,0.8-1.1,1.7-1.4,2.8c-0.1,0.4-0.3,0.9-0.5,1.3c-0.6,1.3-1.9,1.9-3.3,1.5c-0.7-0.2-1.2-0.5-1.8-0.8c-0.2-0.1-0.5-0.3-0.7-0.4
			c-0.8-0.4-1.6-0.5-2.5-0.4c-0.6,0.1-1.2,0.1-1.8-0.1c-0.6-0.1-1.1-0.4-1.6-0.8c-0.3-0.3-0.6-0.7-0.9-1c-1.4-2-2.8-3.9-4-6
			c-1-1.7-1.8-3.4-2.3-5.3c-0.2-0.8-0.3-1.6-0.4-2.5c0-0.5-0.2-0.9-0.6-1.2c-0.3-0.2-0.6-0.5-0.8-0.7c-0.6-0.6-0.8-1.2-0.6-2
			c0.1-0.2,0.1-0.5,0.2-0.7c0.1-0.3,0.1-0.5-0.1-0.8c-0.1-0.1-0.1-0.2-0.2-0.3c-0.7-0.9-0.8-1.9-0.5-2.9c0.2-0.8,0.5-1.6,0.8-2.3
			c0.7-1.6,1.4-3.1,2.3-4.6c1-1.6,2.1-3.1,3.7-4.2c0.9-0.7,2-1.2,3-1.6c0.3-0.1,0.7-0.3,1-0.4c1.1-0.5,2.1-1.2,2.9-2.2
			c0.4-0.5,0.9-1,1.4-1.4C33.3,9,34,8.5,34.9,8.3c0.7-0.2,1.4-0.1,2.1,0c1.2,0.2,2.3,0.2,3.5-0.2c0.8-0.3,1.7-0.4,2.5-0.4
			c0.7,0,1.3,0.1,1.9,0.4c0.8,0.3,1.6,0.7,2.3,1.1c1.3,0.7,2.6,1,4.1,1c0.7,0,1.5,0,2.2,0c0.8,0,1.5,0.1,2.3,0.3
			c0.7,0.2,1.3,0.6,1.8,1c0.3,0.3,0.7,0.6,1,1c0.8,0.8,1.8,1.1,3,1c0.8,0,1.7,0,2.5,0c1.2,0.1,2.1,0.6,3,1.4c0.5,0.5,1.1,1,1.6,1.4
			c0.2,0.2,0.4,0.4,0.6,0.5c0.8,0.7,1.7,1.1,2.7,1.3c0.9,0.1,1.6,0.5,2.2,1.1c0.2,0.3,0.5,0.6,0.6,0.9c0.2,0.4,0.4,0.9,0.6,1.3
			c0.5,1.1,1.3,1.7,2.5,1.9c0.5,0.1,0.9,0.2,1.4,0.3c1.1,0.3,1.8,0.9,2.3,1.9c0.3,0.5,0.5,1.1,0.7,1.6c0.1,0.2,0.1,0.3,0.2,0.5
			c0.3,0.7,0.8,1.2,1.6,1.4c0.5,0.2,0.9,0.4,1.4,0.6c1.6,0.8,2.4,2.1,2.7,3.9c0,0.2,0,0.4-0.1,0.5c-0.2,0.4-0.1,0.7,0.2,0.9
			c0.2,0.2,0.4,0.3,0.6,0.4c0.3,0.2,0.7,0.3,1.1,0.5c1.1,0.4,2.1,0.9,3,1.7s1.6,1.8,1.9,3c0,0.2,0.1,0.4,0.1,0.6
			C95,41.6,95,41.9,95,42.3z M32.1,27.2c0-0.6,0.1-1.1,0.1-1.7c0.2-1.1,0.5-2.1,1.1-3.1c0.9-1.3,2.1-1.9,3.6-1.9
			c0.7,0,1.5,0.2,2.2,0.4c0.8,0.3,1.7,0.6,2.5,0.8c0.7,0.2,1.4,0.4,2.2,0.4c0.6,0,1.1-0.1,1.7-0.2c1-0.1,2-0.1,3,0.3
			c0.5,0.2,0.9,0.4,1.4,0.7c1.6,0.9,3.4,1.3,5.3,1.2c0.2,0,0.4-0.1,0.6-0.2c0.3-0.3,0.7-0.2,0.9,0.1c0.1,0.1,0.2,0.2,0.2,0.3
			c0.3,0.5,0.6,1.1,0.9,1.6c0.2,0.4,0.4,0.8,0.7,1.2c0.3,0.5,0.8,0.8,1.5,0.9c0.2,0,0.5,0.1,0.7,0.2c0.7,0.2,1.3,0.6,1.5,1.3
			c0.1,0.4,0.2,0.8,0.3,1.2c0.1,0.6,0.2,1.1,0.4,1.7s0.6,1,1.3,1.2c0.4,0.1,0.8,0.1,1.1,0.1c0.7,0,1.4-0.1,2-0.1
			c0.2,0,0.5,0.1,0.7,0.1c0.6,0.2,0.9,0.6,1,1.2c0,0.3,0,0.7,0.1,1c0,0.4,0.1,0.8,0.2,1.2c0.2,0.7,0.6,1.2,1.3,1.5
			c0.4,0.1,0.7,0.2,1.1,0.3c1.3,0.3,2.2,1,2.8,2.3c0.2,0.4,0.4,0.8,0.6,1.3c0.7,1.4,1.8,2.4,3.4,2.9c0.3,0.1,0.6,0.2,1,0.4
			c0.6,0.3,1,0.8,1.2,1.4c0.1,0.3,0.2,0.7,0.2,1c0.2,1,0.5,1.9,1.2,2.6c0.4,0.5,1,0.8,1.7,0.8c0.3,0,0.7,0,1-0.1
			c0.5-0.2,1.1-0.4,1.6-0.6c0.5-0.2,1-0.3,1.5-0.4c0.6-0.1,1.2-0.1,1.8-0.1c0.8,0,1.4-0.4,1.6-1.2v-0.1c0.7-1.8,1.3-3.6,2-5.4
			c0.2-0.6,0.4-1.2,0.5-1.8c0.1-1.1-0.3-2-0.9-2.8c-0.7-0.8-1.5-1.4-2.5-1.8c-0.5-0.2-1-0.4-1.5-0.6c-0.6-0.2-1.1-0.6-1.5-1.1
			c-0.4-0.6-0.6-1.2-0.4-2c0.1-0.2,0-0.4,0-0.6c-0.2-0.9-0.7-1.5-1.4-2.1c-0.5-0.4-1-0.6-1.6-0.8c-1-0.3-1.8-0.8-2.3-1.7
			c-0.2-0.3-0.3-0.6-0.4-0.9c-0.2-0.4-0.4-0.9-0.6-1.3c-0.4-0.8-1-1.3-1.8-1.4c-0.5-0.1-1-0.2-1.5-0.3c-1.3-0.2-2.2-0.9-2.8-2
			c-0.3-0.6-0.6-1.1-0.8-1.7c-0.4-0.9-1-1.3-2-1.5c-0.9-0.1-1.7-0.4-2.5-0.9c-0.4-0.3-0.8-0.6-1.2-1c-0.6-0.5-1.1-1-1.7-1.5
			c-1-0.9-2.2-1.3-3.6-1.3c-0.6,0-1.3,0-1.9,0.1c-1,0-1.9-0.3-2.6-0.9c-0.4-0.3-0.8-0.7-1.1-1c-0.6-0.6-1.4-1.1-2.3-1.2
			c-0.5-0.1-1-0.2-1.5-0.2c-0.9,0-1.8,0-2.7,0c-0.6,0-1.1-0.1-1.7-0.2c-0.9-0.2-1.7-0.6-2.5-1c-0.6-0.3-1.2-0.6-1.9-0.9
			c-0.9-0.4-1.9-0.5-2.9-0.3c-0.4,0.1-0.9,0.2-1.3,0.3c-0.8,0.2-1.7,0.3-2.5,0.3c-0.5,0-0.9-0.1-1.4-0.2c-1.1-0.2-2.1,0.1-2.9,0.9
			c-0.5,0.5-1,1-1.5,1.5c-0.7,0.8-1.4,1.4-2.3,1.9S28,14.6,27.1,15c-1.8,0.8-3.2,1.9-4.4,3.5c-0.6,0.8-1.2,1.7-1.7,2.6
			c-0.6,1.3-1.2,2.6-1.8,3.9c-0.2,0.4-0.4,0.9-0.5,1.4c-0.2,0.7-0.1,1.5,0.3,2.1c0.1,0.1,0.2,0.3,0.3,0.5c0.3,0.6,0.4,1.2,0.1,1.8
			c-0.1,0.1-0.1,0.3-0.2,0.4c-0.1,0.3-0.1,0.6,0.2,0.9c0.2,0.2,0.4,0.4,0.7,0.6c0.7,0.5,1,1.2,1.1,2c0,0.5,0.1,1,0.2,1.5
			c0.3,1.4,0.8,2.7,1.4,4c1,2.1,2.3,4,3.7,5.9c0.6,0.8,1.1,1.6,1.7,2.3c0.4,0.6,1,0.9,1.7,0.9c0.4,0,0.7,0,1.1,0c1-0.1,2,0,3,0.5
			c0.5,0.3,1.1,0.6,1.6,0.8c0.4,0.2,0.7,0.3,1.1,0.4c0.5,0.1,1-0.1,1.3-0.5c0.2-0.2,0.3-0.5,0.4-0.8c0.2-0.4,0.3-0.9,0.4-1.3
			c0.2-0.7,0.5-1.4,0.9-1.9c0.2-0.2,0.3-0.4,0.5-0.6c0.5-0.7,0.5-1.3,0-1.9c-0.2-0.3-0.4-0.5-0.6-0.7c-0.4-0.4-0.8-0.7-1.2-1.1
			c-0.7-0.6-1.1-1.4-1.4-2.3c-0.1-0.3-0.1-0.6-0.2-0.9c-0.2-1.4-0.8-2.6-1.7-3.7c-0.3-0.4-0.7-0.8-1-1.3
			C32.9,32,32.1,29.7,32.1,27.2z"/>
		<path class="st1" d="M51.1,60.3c0.2-0.3,0.3-0.7,0.4-1.1c0.1-0.4,0.1-0.8,0.2-1.2c0.3-1,1-1.6,2-1.8c0.4,0,0.8-0.1,1.2-0.1
			c0.2,0,0.5,0,0.7-0.1c0.3,0,0.5-0.2,0.5-0.5c0.1-0.2,0.1-0.4,0.1-0.6c0.1-1.1,0.6-2,1.2-2.8c1.1-1.5,2.6-2.4,4.4-2.7
			c0.1,0,0.3,0,0.4,0c0.2,0,0.3-0.1,0.3-0.3c-0.1-1.6,0.8-2.6,2.1-3.4c0.9-0.5,1.9-0.8,2.9-0.8c1.8-0.1,3.5,0.2,5.3,0.6
			c0.5,0.1,1,0.3,1.4,0.4c0.9,0.3,1.6,0.9,1.9,1.8c0.2,0.4,0.3,0.9,0.4,1.3c0.6,2.2,1.1,4.5,1.7,6.7c0.1,0.4,0.1,0.8,0.1,1.2
			c0,1-0.4,1.7-1.2,2.2c-0.6,0.4-1.3,0.6-1.9,0.7c-0.4,0.1-0.9,0.2-1.3,0.4c-0.8,0.3-1.3,0.7-1.5,1.5c-0.2,0.5-0.4,1.1-0.5,1.6
			c-0.4,1.3-1.1,2.3-2.4,2.9c-0.4,0.2-0.9,0.3-1.4,0.5c-0.4,0.1-0.8,0.3-1.2,0.4c-1.1,0.3-1.9,1-2.5,1.9c-0.4,0.6-0.7,1.2-1.1,1.8
			c-0.3,0.4-0.7,0.9-1,1.3c-0.3,0.3-0.7,0.6-1.2,0.7c-0.2,0.1-0.4,0.2-0.6,0.2c-1.1,0.3-1.9,1-2.4,2c-0.3,0.5-0.6,1.1-0.9,1.6
			c-0.3,0.5-0.6,0.9-1,1.4c-0.7,0.8-1.7,1.3-2.7,1.4c-0.5,0.1-1.1,0.1-1.6,0.2c-0.9,0.1-1.6,0.5-2.2,1.1c-0.3,0.3-0.7,0.6-1,1
			c-1.1,1-2.3,1.5-3.7,1.7c-0.9,0.1-1.8,0.2-2.7,0.3c-0.9,0.1-1.7,0.3-2.5,0.7c-0.6,0.3-1.1,0.5-1.7,0.8c-1.1,0.5-2.3,0.6-3.5,0.5
			c-0.7-0.1-1.4-0.1-2.2-0.1c-0.6,0-1.2,0.2-1.8,0.4c-0.8,0.3-1.5,0.6-2.3,0.9c-0.6,0.2-1.3,0.4-2,0.5c-1,0.1-1.9-0.1-2.8-0.5
			c-0.5-0.2-1-0.5-1.6-0.7c-0.8-0.4-1.7-0.5-2.6-0.5s-1.8,0-2.7-0.1c-1.4-0.1-2.7-0.4-4.1-0.9c-1.5-0.6-2.9-1.3-4.4-1.9
			c-1.1-0.5-2-1.4-2.5-2.6C5,78.8,4.3,77.4,3.7,76c-0.1-0.2-0.1-0.4-0.1-0.7c0-0.1,0-0.3-0.1-0.4c-0.3-0.5-0.6-1.1-0.9-1.6
			C2.1,72.5,1.5,71.8,1,71c-0.6-1-1-2-1-3.2c0-0.6,0.1-1.2,0.4-1.7s0.5-1,0.8-1.5c0.1-0.2,0.3-0.5,0.4-0.7c0.2-0.4,0.2-0.8,0.1-1.3
			c0-0.2-0.1-0.4-0.1-0.7c-0.1-0.6,0-1.1,0.5-1.4c0.2-0.2,0.5-0.3,0.8-0.4c0.5-0.2,0.7-0.5,0.7-0.9c0-0.2,0-0.4,0-0.6
			c0-0.4-0.1-0.8,0-1.3c0-0.8,0.4-1.3,1.1-1.7c0.7-0.3,0.7-0.3,0.6-1c0-0.3,0-0.6,0-0.8c0-0.8,0.4-1.3,1.2-1.5h0.1
			c0.4-0.1,0.5-0.2,0.5-0.6c0-0.5,0-0.9,0.1-1.4c0.1-0.8,0.6-1.2,1.4-1.3c0.1,0,0.1,0,0.2,0C9,49,9,48.9,9,48.7c0-0.3,0-0.5,0-0.8
			c0-0.7,0.3-1.2,0.9-1.5c0.3-0.2,0.7-0.3,1.1-0.4c0.7-0.2,1.3-0.4,1.8-0.9c0.7-0.7,1.5-0.8,2.3-0.4c0.3,0.1,0.5,0.2,0.8,0.3
			c0.4,0.1,0.8,0.1,1.1-0.1c0.3-0.2,0.6-0.4,0.9-0.7c0.4-0.3,0.8-0.6,1.3-0.8c0.9-0.2,1.7,0,2.4,0.6c0.6,0.5,1,1.1,1.3,1.8
			s0.6,1.4,0.9,2.1c0.2,0.4,0.4,0.9,0.7,1.3c0.1,0.2,0.2,0.3,0.3,0.5c0.4,0.7,0.4,1.4,0.2,2.2c-0.2,0.7-0.6,1.3-1,1.8
			c-0.2,0.3-0.4,0.5-0.7,0.7c-0.6,0.7-1,1.4-1.2,2.3c-0.1,0.3-0.2,0.7-0.2,1C21.6,59,21,60,20.1,61c-0.7,0.8-1.3,1.5-1.8,2.4
			c-0.8,1.5-1.3,3-1.3,4.7c0,0.7,0.1,1.3,0.4,1.9c0.4,1,1.2,1.9,2.8,1.9c0.8,0,1.6-0.2,2.4-0.3c0.9-0.2,1.8-0.4,2.8-0.3
			c0.5,0,0.9,0.1,1.4,0.2c0.2,0,0.4,0.1,0.7,0.2c0.6,0.2,1.3,0.1,1.8-0.2c0.3-0.2,0.6-0.4,0.9-0.5c1.3-0.8,2.7-1.2,4.2-1.3
			c0.8-0.1,1.7,0,2.5,0.2c0.7,0.2,1.1,0,1.5-0.5c0.5-0.6,1.1-1.2,1.9-1.6c0.5-0.3,1.1-0.4,1.7-0.7c0.2-0.1,0.3-0.1,0.5-0.2
			c0.4-0.2,0.7-0.4,0.8-0.9s0.2-1,0.3-1.4c0.3-2.6,2.3-4.1,4.3-4.5c1.1-0.2,2.2-0.1,3.2,0.4C51,60.3,51,60.3,51.1,60.3L51.1,60.3z
			 M68.4,46.1c-0.2,0-0.5,0-0.7,0c-0.8,0.1-1.6,0.2-2.3,0.6c-0.6,0.3-1.1,0.8-1.4,1.5c-0.2,0.5-0.2,1,0.2,1.4
			c0.2,0.2,0.2,0.5,0.1,0.7c-0.1,0.3-0.4,0.4-0.7,0.3c-0.2,0-0.3-0.1-0.5-0.1c-1,0-1.9,0.2-2.7,0.7c-1.5,0.9-2.4,2.1-2.7,3.8
			c0,0.2-0.1,0.4-0.1,0.6c-0.1,0.7-0.5,1.1-1.1,1.4c-0.4,0.1-0.8,0.2-1.1,0.2c-0.4,0.1-0.8,0-1.2,0.1c-0.5,0.1-0.9,0.4-1,0.9
			c0,0.1-0.1,0.2-0.1,0.4c-0.1,0.5-0.2,1-0.3,1.6c-0.1,0.4-0.3,0.7-0.5,0.9c-0.3,0.3-0.7,0.4-1.1,0.3c-0.2-0.1-0.4-0.1-0.6-0.2
			c-0.7-0.3-1.5-0.4-2.3-0.3c-1.4,0.3-3.1,1.4-3.3,3.4c-0.1,0.5-0.2,1.1-0.3,1.6c-0.2,0.9-0.7,1.5-1.6,1.8c-0.2,0.1-0.5,0.2-0.8,0.3
			c-1.1,0.3-2,0.9-2.8,1.8c-0.2,0.2-0.4,0.4-0.6,0.6c-0.4,0.3-0.8,0.5-1.3,0.4c-0.4,0-0.7-0.1-1.1-0.1c-1.4-0.3-2.7-0.1-4.1,0.4
			c-0.8,0.3-1.6,0.7-2.3,1.2c-0.7,0.5-1.5,0.7-2.4,0.5c-0.3,0-0.6-0.1-0.9-0.2c-0.8-0.2-1.7-0.3-2.5-0.1c-0.8,0.1-1.6,0.3-2.4,0.5
			s-1.6,0.2-2.4,0.1c-1.6-0.3-2.7-1.2-3.2-2.8c-0.5-1.4-0.5-2.8-0.2-4.2c0.4-1.8,1.1-3.4,2.2-4.9c0.4-0.5,0.8-0.9,1.1-1.4
			c0.6-0.7,1.1-1.6,1.3-2.5c0.1-0.3,0.1-0.6,0.2-0.8c0.3-1.2,0.8-2.2,1.6-3.1c0.1-0.1,0.2-0.2,0.2-0.3c0.3-0.4,0.6-0.8,0.9-1.2
			c0.4-0.6,0.4-1.3-0.1-1.9c-0.5-0.8-0.9-1.7-1.3-2.6c-0.2-0.5-0.5-1.1-0.7-1.6s-0.6-0.9-1.1-1.1c-0.5-0.2-1-0.2-1.4,0.1
			c-0.3,0.2-0.6,0.5-0.9,0.7c-0.2,0.2-0.4,0.3-0.7,0.5c-0.5,0.3-1,0.4-1.5,0.3c-0.4-0.1-0.9-0.2-1.3-0.4c-0.5-0.2-0.9-0.1-1.2,0.2
			c-0.5,0.6-1.2,0.9-2,1.1c-0.3,0.1-0.6,0.2-0.9,0.3c-0.2,0.1-0.4,0.3-0.3,0.5c0,0.2,0,0.4,0.1,0.6c0.1,0.8-0.3,1.3-1,1.4
			c-0.1,0-0.3,0.1-0.4,0.1c-0.4,0-0.5,0.1-0.5,0.5c0,0.2,0,0.3,0,0.5c0,0.3,0,0.6,0,0.8c-0.1,0.7-0.4,1.2-1.1,1.4
			c-0.1,0-0.2,0.1-0.3,0.1c-0.4,0.1-0.4,0.1-0.4,0.5s0,0.8,0,1.2c0,0.5-0.3,1-0.8,1.2c-0.2,0.1-0.3,0.2-0.5,0.2
			C5,56.7,4.8,57,4.8,57.4s0,0.9,0,1.3c0,0.3,0,0.6-0.1,0.9c-0.1,0.8-0.7,1.2-1.4,1.5s-0.7,0.3-0.5,1C3,62.9,3,63.7,2.6,64.5
			c-0.1,0.3-0.3,0.6-0.5,0.8c-0.2,0.4-0.4,0.8-0.6,1.2c-0.2,0.5-0.3,1-0.3,1.5c0.1,0.6,0.2,1.2,0.5,1.7c0.4,0.7,0.9,1.4,1.3,2.1
			c0.6,0.9,1.2,1.7,1.6,2.6c0.1,0.2,0.1,0.4,0.1,0.5c0,0.2,0,0.4,0.1,0.6C5.5,76.7,6,78,6.6,79.3c0.4,1,1,1.7,2,2.1
			c0.7,0.3,1.5,0.7,2.2,1s1.4,0.6,2.1,0.9c1.6,0.6,3.3,0.9,5.1,0.9c0.5,0,1.1,0,1.6,0.1c0.7,0,1.4,0.1,2,0.4c0.7,0.3,1.4,0.6,2,0.9
			c0.5,0.2,1.1,0.5,1.7,0.5c0.7,0.1,1.3-0.1,2-0.3c0.7-0.3,1.5-0.5,2.2-0.8c0.8-0.3,1.6-0.6,2.5-0.7c0.9-0.1,1.8,0,2.7,0.1
			s1.8,0,2.7-0.4c0.6-0.2,1.1-0.5,1.7-0.8c0.9-0.5,1.9-0.7,3-0.8c0.9-0.1,1.7-0.2,2.6-0.3c1.3-0.2,2.4-0.7,3.3-1.6
			c0.3-0.3,0.7-0.7,1.1-1c0.6-0.5,1.3-0.9,2.1-1c0.7-0.1,1.4-0.2,2.1-0.3c1-0.1,1.8-0.6,2.4-1.4c0.2-0.4,0.5-0.8,0.7-1.1
			c0.3-0.5,0.6-1.1,0.9-1.6c0.6-1,1.5-1.8,2.6-2.1c0.2,0,0.4-0.1,0.5-0.2c0.6-0.2,1.1-0.5,1.4-1c0.3-0.4,0.6-0.8,0.8-1.2
			c0.3-0.5,0.6-1,0.9-1.5c0.5-0.8,1.2-1.4,2-1.7c0.4-0.2,0.7-0.3,1.1-0.4c0.6-0.2,1.3-0.4,1.9-0.7c1-0.4,1.7-1.1,2-2.1
			c0.1-0.4,0.3-0.9,0.4-1.3c0.4-1.4,1.3-2.4,2.8-2.8c0.6-0.2,1.2-0.3,1.8-0.5c0.3-0.1,0.7-0.2,1-0.4c0.4-0.2,0.7-0.6,0.6-1.1
			c0-0.3-0.1-0.6-0.1-0.9c-0.5-1.9-1-3.8-1.4-5.7c-0.2-0.6-0.3-1.3-0.5-1.9c-0.2-0.7-0.6-1.2-1.4-1.4c-0.4-0.1-0.7-0.2-1.1-0.3
			C71.2,46.4,69.8,46.1,68.4,46.1z"/>
		<path class="st1" d="M58,22.4c-0.2-0.1-0.4-0.1-0.6-0.2c-0.8-0.1-1.6-0.2-2.3-0.3c-0.7-0.1-1.5-0.1-2.2-0.1
			c-1.4-0.1-2.9-0.3-4.1-1c-0.4-0.2-0.7-0.4-1-0.7c-1.2-1-1.3-2.4-0.6-3.7c0.5-0.9,1.2-1.6,2.1-2.3c0.7-0.5,1.5-0.9,2.4-1
			c1.2-0.1,2.3,0.1,3.2,1.1c0.9,0.9,1,2.4,0.3,3.4c-0.1,0.1-0.2,0.2-0.3,0.3c-0.2-0.1-0.1-0.2,0-0.3c0.1-0.3,0.3-0.5,0.4-0.8
			c0.3-1.3-0.4-2.6-1.6-3.1c-1.2-0.5-2.4-0.4-3.5,0.2c-1.1,0.6-1.9,1.4-2.6,2.3C47.2,16.8,47,17.4,47,18c0,0.5,0.2,1,0.5,1.4
			c0.4,0.5,0.9,0.9,1.4,1.2c0.9,0.5,1.8,0.7,2.7,0.8c1.2,0.1,2.3,0.2,3.5,0.2c0.9,0.1,1.8,0.1,2.7,0.4c0.4,0.1,0.4,0.1,0.6-0.3
			c0.2-0.6,0.4-1.2,0.5-1.9c0.2-0.7,0.4-1.3,0.8-1.9c0.5-0.7,1.1-1.1,1.9-1.3c0.7-0.1,1.3,0,1.9,0.2c0.7,0.3,1.3,0.7,1.9,1.2
			c1.3,1.2,2.1,2.7,2.3,4.4c0.2,1.3,0.1,2.5-0.5,3.7c-0.1,0.2-0.2,0.4-0.3,0.6c-0.2,0.4-0.1,0.8,0.1,1.2c0.1,0.2,0.2,0.4,0.3,0.6
			c0.1,0.2,0.2,0.4,0.2,0.6s0.1,0.3,0.3,0.3c0.3,0.1,0.5,0.1,0.8,0.2c0.6,0.2,1.1,0.5,1.5,0.9c0.2,0.2,0.4,0.4,0.6,0.5
			c0.7,0.5,1.4,0.5,2.1,0s1.2-1.2,1.4-2.1c0.2-0.7,0.3-1.5,0.4-2.2c0.1-0.3,0.1-0.7,0.2-1c0.2-0.5,0.6-0.7,1.1-0.4
			c0.2,0.1,0.4,0.3,0.4,0.6c0.1,0.3,0.1,0.5,0.2,0.8c0.2,1.6,1.4,2.6,2.6,2.8c0.1,0,0.3,0.1,0.5,0.1s0.3,0.1,0.3,0.3
			c0,0.4,0.1,0.8,0.1,1.2c0,1.1,0,2.2-0.1,3.3c-0.1,0.4-0.1,0.9-0.2,1.3c-0.1,0.4-0.4,0.7-0.8,0.9c-0.3,0.1-0.5,0-0.8-0.1
			c-0.3-0.2-0.6-0.4-0.9-0.6c-0.9-0.7-1.8-1.4-2.7-2.2c-0.1-0.1-0.2-0.1-0.3-0.2c0,0,0,0-0.1,0c0,0.1,0,0.2,0.1,0.3
			c0.4,1.2,1,2.3,1.9,3.2c0.2,0.2,0.3,0.3,0.5,0.5c0.5,0.4,1.1,0.5,1.8,0.3c0.4-0.1,0.8-0.2,1.2-0.3c0.5-0.1,0.8,0.2,1.1,0.6
			c0.2,0.3,0.4,0.7,0.5,1c0.2,0.3,0.3,0.6,0.6,0.9c0.5,0.4,1,0.6,1.7,0.1c0.1-0.1,0.3-0.2,0.4-0.2c0.5-0.2,0.9-0.1,1.2,0.4
			c0.2,0.5,0.2,1,0,1.5c-0.1,0.3-0.3,0.6-0.5,0.9c-0.1,0.2-0.2,0.4-0.3,0.6c-0.2,0.6-0.1,1.1,0.3,1.6c0.4,0.4,0.9,0.7,1.4,0.9
			c0.6,0.2,1.3,0.3,2,0.5s1.3,0.4,1.8,0.9c0.1,0.1,0.2,0.2,0.3,0.3c-0.2,0.2-0.2,0.1-0.3,0c-0.5-0.7-1.3-0.9-2.1-1.1
			c-0.5-0.1-1.1-0.2-1.6-0.4c-0.4-0.1-0.9-0.3-1.2-0.6c-0.6-0.5-0.9-1.1-0.8-1.8c0-0.2,0.1-0.4,0.2-0.6c0.2-0.3,0.3-0.6,0.5-0.9
			c0.2-0.4,0.4-0.9,0.2-1.3c-0.2-0.6-0.6-0.7-1.1-0.4c-0.1,0.1-0.2,0.1-0.3,0.2c-0.4,0.3-0.8,0.3-1.3,0.1c-0.4-0.2-0.7-0.4-0.9-0.8
			c-0.1-0.2-0.2-0.4-0.4-0.7c-0.1-0.2-0.2-0.4-0.3-0.6c-0.3-0.6-0.8-0.8-1.4-0.6c-0.2,0.1-0.5,0.1-0.7,0.2c-0.8,0.2-1.4,0.1-2-0.4
			c-0.5-0.4-0.9-0.8-1.2-1.4c-0.6-0.9-1.1-1.9-1.4-3c0-0.1-0.1-0.2-0.1-0.3s0-0.2,0-0.3c0.1,0,0.2,0,0.3,0.1
			c0.6,0.5,1.2,0.9,1.8,1.4c0.5,0.4,1.1,0.9,1.6,1.3c0.3,0.2,0.6,0.4,0.9,0.6c0.6,0.2,1,0,1.2-0.6c0.1-0.2,0.1-0.4,0.1-0.6
			c0.2-1.4,0.3-2.8,0.1-4.2c0-0.2,0-0.5-0.1-0.7c0-0.1,0-0.1-0.1-0.2c-0.2,0-0.3-0.1-0.5-0.1c-1.5-0.3-2.7-1.6-2.8-3
			c0-0.2-0.1-0.5-0.1-0.7c-0.1-0.2-0.2-0.4-0.3-0.5c-0.2-0.2-0.6-0.1-0.7,0.2c-0.1,0.2-0.1,0.4-0.2,0.6c-0.1,0.8-0.2,1.6-0.4,2.4
			c-0.2,0.9-0.6,1.7-1.3,2.2c-0.4,0.3-0.8,0.5-1.3,0.6c-0.5,0-1-0.1-1.5-0.4c-0.2-0.2-0.4-0.4-0.6-0.5c-0.6-0.5-1.3-0.9-2.1-1
			c-0.1,0-0.2,0-0.3-0.1c-0.1,0-0.2-0.1-0.2-0.2c0-0.4-0.1-0.7-0.3-1c0-0.1-0.1-0.1-0.1-0.2c-0.4-0.6-0.4-1.1-0.2-1.7
			c0.2-0.5,0.4-0.9,0.5-1.4c0.5-1.8,0.2-3.5-0.7-5.1c-0.6-1.1-1.4-1.9-2.5-2.6C63.5,17.2,62.8,17,62,17s-1.4,0.3-1.9,0.9
			c-0.3,0.4-0.6,0.9-0.8,1.4s-0.3,1-0.4,1.5c-0.1,0.4-0.2,0.8-0.3,1.1c-0.1,0.3-0.1,0.3,0.2,0.5c0.5,0.2,1,0.5,1.4,0.8
			c0.8,0.6,1.5,1.4,1.7,2.5c0,0.1,0.1,0.2,0.1,0.3c0,0.1,0.1,0.3,0,0.4c-0.1,0-0.2-0.1-0.4-0.1c-0.3-0.2-0.6-0.4-1-0.7
			c-0.7-0.5-1.3-0.9-2-1.4c-0.2-0.1-0.3-0.2-0.4-0.4c-0.3-0.3-0.4-0.6-0.3-1C58,22.7,58,22.6,58,22.4z M61.7,25.9
			c0-0.2,0-0.3-0.1-0.4c-0.1-0.3-0.2-0.5-0.3-0.8c-0.6-1-1.5-1.7-2.6-2.1c-0.4-0.2-0.5-0.1-0.5,0.4c0,0.1,0.1,0.3,0.1,0.4
			c0.1,0.1,0.2,0.3,0.4,0.4c0.9,0.7,1.8,1.3,2.7,1.9C61.5,25.8,61.6,25.9,61.7,25.9z"/>
		<path class="st1" d="M36.5,16.8c0.3,0,0.5,0,0.7-0.1c0.7-0.1,1.4,0,2.1,0.1c0.3,0,0.5,0,0.8,0c1-0.3,1.9-0.3,2.8,0.1
			c0.4,0.2,0.7,0.4,0.9,0.7c-0.1,0.3-0.3,0.3-0.6,0.4c-0.4,0.1-0.8,0.1-1.1,0c-0.4-0.1-0.9-0.3-1.3-0.4c-0.3-0.1-0.6-0.2-0.9-0.3
			c-0.2-0.1-0.3,0-0.5,0c-0.5,0.2-1,0.5-1.5,0.9c-0.2,0.2-0.5,0.5-0.7,0.7c-0.3,0.2-0.6,0.3-0.9,0.3c-0.4,0-0.7-0.3-0.7-0.8
			c0-0.2,0.1-0.4,0.1-0.6c0-0.1,0.1-0.2,0.1-0.4c-0.2-0.1-0.3,0-0.4,0.1c-1.3,0.5-2.3,1.4-2.8,2.7c-0.4,0.8-0.9,1.2-1.8,1.4
			c-1.3,0.3-2.5,0.6-3.8,0.9c-0.1,0-0.2,0-0.3,0c-0.9,0.1-1.4-0.4-1.5-1.3c0-0.6,0-1.3,0-1.9c0-0.3,0-0.7,0.1-1c0,0,0-0.1-0.1-0.1
			c-0.1,0.1-0.2,0.1-0.2,0.2c-0.9,1.1-1.2,2.8-0.3,4.2c0.1,0.1,0.2,0.3,0.3,0.4c0.3,0.6,0.2,1-0.4,1.3c-0.2,0.1-0.4,0.2-0.7,0.2
			c-0.8,0.2-1.5,0.3-2.3,0.5c-0.1,0-0.2,0.1-0.3-0.1c0.1-0.2,0.2-0.2,0.4-0.2c0.7-0.2,1.4-0.3,2-0.5c0.3-0.1,0.5-0.2,0.8-0.3
			c0.4-0.2,0.4-0.5,0.3-0.8c-0.1-0.1-0.1-0.3-0.2-0.4C24.2,22,24,21.3,24,20.5c0.1-1.1,0.5-2,1.3-2.8c0.1-0.1,0.1-0.1,0.2-0.2h0.1
			c0.1,0.2,0.1,0.5,0,0.7c0,0.8-0.1,1.6-0.1,2.5c0,0.2,0,0.4,0.1,0.6c0.2,0.6,0.6,0.8,1.2,0.7c0.4-0.1,0.8-0.2,1.2-0.3
			c1-0.2,1.9-0.5,2.9-0.7c0.7-0.2,1.2-0.5,1.5-1.2c0.7-1.5,1.9-2.5,3.4-3c0.3-0.1,0.4-0.3,0.6-0.5c1.1-2,2.5-3.7,4.4-4.9
			c0.8-0.5,1.7-0.9,2.6-0.9c1.4,0,2.7,0.4,3.5,1.7c0.1,0.1,0.1,0.3,0.2,0.5c-0.1,0-0.2,0-0.3-0.1c-0.1,0-0.1-0.1-0.1-0.2
			c-0.6-1-1.5-1.5-2.6-1.6s-2.1,0.2-3,0.7c-0.5,0.3-1.1,0.7-1.5,1.2c-1.1,1-2,2.1-2.7,3.4c-0.1,0.1-0.1,0.2-0.1,0.3
			C36.4,16.7,36.5,16.7,36.5,16.8z M39,17.1C38.9,17.1,38.9,17.1,39,17.1c-0.9-0.2-1.8-0.2-2.6,0c-0.1,0-0.2,0.1-0.2,0.2
			c-0.1,0.3-0.2,0.6-0.3,0.9c-0.1,0.5,0.3,0.8,0.8,0.7c0.2-0.1,0.4-0.2,0.6-0.3C37.8,18.1,38.3,17.6,39,17.1
			C38.9,17.2,38.9,17.2,39,17.1z M40.4,17c0.1,0.1,0.1,0.1,0.2,0.1c0.4,0.2,0.9,0.3,1.3,0.5c0.2,0.1,0.5,0.1,0.7,0.2
			c0.3,0,0.5,0,0.7-0.2C42.9,17,41.4,16.7,40.4,17z"/>
		<path class="st1" d="M31.2,30.9c0.1,0.1,0.2,0.1,0.2,0.2c1,1.5,0.7,3.8-1.1,4.8c-0.3,0.2-0.7,0.3-1,0.4c-0.2,0.1-0.5,0.1-0.7,0.2
			c-0.5,0.2-0.6,0.6-0.3,1c0.3,0.4,0.6,0.7,1,0.9c0.8,0.4,1.6,0.5,2.4,0.2c0.6-0.2,0.9-0.1,1.1,0.6c0.1,0.6,0,1.1-0.3,1.6
			c-0.2,0.4-0.5,0.6-1,0.8c-0.2,0.1-0.3,0.1-0.5,0.1c-0.2,0.1-0.4,0.2-0.5,0.3c-0.4,0.3-0.3,0.7,0.1,0.9c0.6,0.2,1.2,0.4,1.8,0.4
			c0.5,0,0.9-0.1,1.4-0.1c0.1,0,0.1,0,0.2,0l0.1,0.1c0,0.1,0,0.1-0.1,0.1c-0.2,0.1-0.5,0.1-0.7,0.2c-0.8,0.1-1.7,0-2.5-0.3
			c-0.2-0.1-0.3-0.1-0.5-0.2C30,43,30,42.6,30.1,42.3s0.3-0.4,0.6-0.5c0.2-0.1,0.5-0.2,0.7-0.2c0.9-0.3,1.3-1.1,1.1-2
			c0-0.1,0-0.2-0.1-0.3c-0.1-0.2-0.3-0.3-0.6-0.3c-0.3,0.1-0.5,0.1-0.8,0.2c-1,0.1-2-0.3-2.8-1.2c-0.1-0.1-0.2-0.3-0.2-0.4
			c-0.2-0.5-0.1-1,0.4-1.2c0.3-0.2,0.7-0.3,1-0.4c0.6-0.2,1.1-0.4,1.5-0.9c0.8-0.9,1-1.9,0.7-3c0-0.1-0.1-0.2-0.2-0.4
			c-0.1,0.1-0.1,0.2-0.1,0.3c-0.1,0.5-0.4,1-0.8,1.4c-0.5,0.5-1,0.9-1.6,1.3c-1,0.6-1.7,0.1-2.1-0.6c-0.2-0.5-0.3-1-0.3-1.5
			c0.2,0,0.2,0.1,0.3,0.2c0.1,0.3,0.1,0.5,0.2,0.8s0.3,0.6,0.5,0.9c0.3,0.3,0.6,0.3,1,0.2c0.1,0,0.1,0,0.2-0.1
			c0.7-0.4,1.4-0.9,1.9-1.6c0.4-0.5,0.6-1.1,0.5-1.8C31.1,31.1,31.1,31,31.2,30.9C31.1,30.9,31.1,30.9,31.2,30.9z"/>
		<path class="st1" d="M22.7,33.9c0.1-0.1,0.2-0.1,0.3-0.2c0.7-0.4,1.1-1.1,1.2-1.8c0.1-0.9-0.2-1.8-0.5-2.6c0,0,0,0-0.1-0.1
			c-0.1,0.1-0.2,0.2-0.3,0.2C22.6,30,21.8,30.2,21,30c-0.2,0-0.4-0.1-0.5-0.3c0.1-0.2,0.2-0.1,0.3,0c0.4,0.1,0.7,0.2,1.2,0.1
			c0.6-0.1,1.1-0.4,1.5-0.9c0.1-0.1,0.1-0.2,0.2-0.3c0.1,0.1,0.2,0.1,0.2,0.2c0.4,0.9,0.7,1.8,0.7,2.9c0,0.5-0.1,1-0.4,1.4
			c0,0.1-0.1,0.2-0.1,0.2v0.1c0.5,0.1,0.7,0.5,0.9,0.9c0.3,0.7,0.5,1.3,0.5,2c0,0.4-0.1,0.8-0.3,1.2c0,0.1,0,0.1-0.1,0.2
			c0.1,0,0.1,0.1,0.2,0.1c0.9,0.3,1.5,1,1.8,2c0.1,0.4,0.1,0.9-0.2,1.3l-0.1,0.1c0,0,0,0,0,0.1c0.1,0.1,0.2,0.1,0.3,0.2
			c0.6,0.4,1.1,1.4,0.8,2.1v0.1c-0.1,0.1-0.1,0.3-0.2,0.3c-0.2-0.1,0-0.2,0-0.3c0.3-0.9-0.3-1.9-1.1-2.1c-0.1,0-0.2-0.1-0.4-0.1
			c0,0,0,0-0.1-0.1c0.1-0.1,0.2-0.1,0.3-0.2c0.4-0.2,0.5-0.4,0.5-0.8c0-0.8-0.7-1.9-1.4-2.2c-0.5-0.2-0.7-0.3-1-0.2
			c-0.1,0-0.2,0.1-0.4-0.1c0.1-0.1,0.1-0.1,0.2-0.2c0.5-0.3,0.7-0.7,0.7-1.2c0-0.9-0.3-1.7-0.7-2.5c-0.2-0.4-0.5-0.4-0.9-0.2
			c-0.1,0.1-0.2,0.1-0.4,0.2C23,34.1,22.8,34.1,22.7,33.9z"/>
		<path class="st1" d="M33.6,46.4c0.1,0.1,0.2,0.2,0.3,0.3c0.6,0.6,1.2,1.1,1.9,1.5c0.2,0.1,0.4,0.2,0.6,0.3c0.2,0.1,0.5,0.1,0.7,0
			c0.1,0,0.2-0.1,0.3,0c-0.1,0.1-0.1,0.1-0.2,0.2c-0.3,0.1-0.5,0.2-0.8,0.1c-0.3-0.1-0.7-0.3-1-0.4c-0.7-0.4-1.3-0.9-1.8-1.5
			C33.6,46.8,33.4,46.7,33.6,46.4z"/>
		<path class="st1" d="M55.6,73.9c0.1-0.1,0.1-0.2,0.2-0.2c1.4-0.7,2-2,2.3-3.5c0.3-2-0.1-3.9-1-5.7c-0.1-0.2-0.3-0.5-0.4-0.7
			c-0.2-0.2-0.4-0.4-0.7-0.6c-0.5-0.3-1-0.2-1.4,0.2c-0.1,0.1-0.2,0.3-0.3,0.4c-1.1,1.7-2.7,2.8-4.7,3.3c-0.3,0.1-0.6,0.1-0.9,0.3
			c-0.7,0.2-1,0.8-0.8,1.5c0.1,0.7,0.5,1.4,0.8,2.1c0.4,0.9,0.8,1.7,1.1,2.6s0.4,1.8,0.3,2.7c-0.1,1-0.6,1.8-1.3,2.4
			c-1.3,1-2.7,1.5-4.3,1.7C43,80.5,42,80,41.3,79c-0.3-0.4-0.6-0.9-0.9-1.4c-0.1-0.1-0.1-0.2-0.2-0.3c-0.1,0.2-0.1,0.4-0.1,0.5
			c0.1,0.5,0.1,1,0.2,1.5c0.2,1.4-0.3,2.4-1.5,3.1c-0.7,0.4-1.5,0.7-2.4,0.7c-3,0.1-5.3-1.1-7-3.6c-0.3-0.4-0.5-1-0.7-1.5
			c-0.1-0.2-0.2-0.5-0.3-0.7c-0.1-0.1-0.1-0.2-0.2-0.4c-0.2-0.2-0.4-0.4-0.7-0.3C27.2,76.7,27,77,27,77.3c0,0.5,0.1,0.9,0.3,1.3
			c0.2,0.4,0.4,0.7,0.7,1.1c0.3,0.4,0.6,0.9,0.9,1.3c0.4,0.5,0.6,1.1,0.7,1.8c0.1,1.1-0.4,2.3-1.9,2.3c-1,0-1.8-0.3-2.6-0.9l0,0
			C25,84.1,24.9,84.1,25,84h0.2c0.1,0,0.1,0.1,0.2,0.1c0.5,0.3,1.1,0.6,1.7,0.7c0.3,0.1,0.7,0.1,1.1,0c1.1-0.2,1.4-1.3,1.2-2
			c-0.1-0.7-0.4-1.4-0.9-2c-0.3-0.4-0.7-0.9-1-1.3c-0.2-0.4-0.4-0.7-0.6-1.1s-0.2-0.9,0-1.4c0.2-0.7,0.9-0.9,1.5-0.4
			c0.2,0.1,0.3,0.3,0.4,0.5c0.1,0.3,0.2,0.6,0.4,0.8c1,2.6,3,4.1,5.6,4.7c1.2,0.3,2.3,0.2,3.4-0.2c0.3-0.1,0.6-0.3,0.9-0.5
			c0.9-0.7,1.3-1.6,1.1-2.7c-0.1-0.5-0.2-1-0.2-1.5c0-0.3,0-0.7,0-1c0-0.1,0.1-0.2,0.1-0.4c0.1,0.2,0.2,0.3,0.3,0.4
			c0.3,0.5,0.6,1.1,0.9,1.6c0.3,0.5,0.7,1,1.2,1.3c0.7,0.5,1.5,0.6,2.3,0.5c1.2-0.2,2.3-0.5,3.3-1.2c0.9-0.6,1.5-1.5,1.7-2.6
			c0.1-0.8,0-1.6-0.2-2.4c-0.2-0.9-0.6-1.7-1-2.5c-0.3-0.6-0.5-1.2-0.8-1.9c-0.1-0.3-0.2-0.7-0.2-1c0-0.6,0.3-1,0.8-1.3
			c0.3-0.1,0.5-0.2,0.8-0.2c2.1-0.5,3.8-1.6,4.9-3.5c0.1-0.1,0.2-0.3,0.3-0.4c0.4-0.5,0.9-0.6,1.5-0.4c0.4,0.2,0.7,0.4,1,0.8
			c0.4,0.5,0.7,1.1,0.9,1.7c0.6,1.5,0.7,3,0.6,4.5c-0.1,0.9-0.3,1.7-0.8,2.5c-0.4,0.7-1,1.2-1.7,1.5c-0.1,0-0.1,0-0.2,0.1
			C55.7,74,55.7,74,55.6,73.9z"/>
		<path class="st1" d="M3.6,70.3C3.7,70.2,3.8,70.1,4,70c1.8-1.1,4.2-0.9,5.8,0.3c0.2,0.1,0.3,0.3,0.5,0.5c0.3,0.4,0.2,0.9-0.3,1.1
			c-0.2,0.1-0.5,0.2-0.8,0.2c-0.2,0.1-0.4,0.1-0.6,0.2C7.5,72.6,6.8,74,7.2,75c0.1,0.3,0.3,0.6,0.5,0.9c1,1.4,2.1,2.9,3.1,4.3
			c0.1,0.1,0.1,0.1,0.2,0.2c0.1-0.2,0-0.4-0.1-0.5c-0.3-0.4-0.5-0.8-0.8-1.2c-0.9-1-1.5-2.2-2-3.5C7.8,74.3,8,73.8,9,73.4
			c0.6-0.3,1.3-0.4,2-0.4c0.8-0.1,1.7-0.1,2.5,0.1c0.1,0,0.3,0.1,0.4,0.1c1,0.2,1.7,0.8,1.8,1.9c0.1,0.5,0.1,1,0.2,1.5
			c0.2,1,0.6,1.9,1.1,2.7c0.9,1.3,1.9,2.5,3,3.5c0.1,0.1,0.2,0.2,0.3,0.4c0.1,0.1,0.1,0.1,0.1,0.2c-0.2,0.1-0.2,0-0.3,0
			c-1.4-1.3-2.7-2.7-3.7-4.3c-0.6-0.9-0.8-1.9-1-2.9c-0.1-0.4-0.1-0.8-0.2-1.2c-0.2-0.7-0.7-1.2-1.4-1.3c-1-0.3-2.1-0.3-3.2-0.2
			C10,73.6,9.5,73.7,9,73.8c-0.2,0-0.4,0.1-0.6,0.3c-0.3,0.2-0.5,0.6-0.4,1c0.2,0.9,0.6,1.7,1.1,2.4c0.4,0.6,0.8,1.1,1.2,1.6
			c0.2,0.3,0.4,0.6,0.6,0.9c0.1,0.3,0.2,0.5,0.2,0.8c0,0.1,0,0.3-0.1,0.4c-0.2,0.1-0.2-0.1-0.3-0.2c-0.4-0.5-0.8-1-1.1-1.6
			c-0.7-1-1.4-2-2.1-3c-0.3-0.5-0.7-1-0.8-1.6c-0.3-1.2,0.6-2.6,1.8-2.9c0.3-0.1,0.5-0.1,0.8-0.2s0.5-0.1,0.6-0.4s-0.1-0.5-0.3-0.7
			c-0.7-0.6-1.4-0.9-2.3-1.1c-1.2-0.2-2.4,0-3.4,0.6C3.9,70.3,3.8,70.4,3.6,70.3z"/>
		<path class="st1" d="M13.9,64.1c-0.1-0.1-0.1-0.2-0.2-0.4c-0.2-0.4-0.3-0.8-0.6-1.2c-0.5-0.7-1.2-1-2.1-0.8
			c-0.5,0.1-1,0.3-1.5,0.5c-0.2,0.1-0.5,0.1-0.7,0.1c-0.5,0-0.7-0.3-0.6-0.8C8.3,61,8.6,60.6,9,60.2c0.8-1,1.9-1.5,3.2-1.9
			c0.8-0.2,1.6-0.3,2.4-0.4c0.1,0,0.1,0,0.2,0c0-0.1-0.1-0.2-0.1-0.3c-0.3-0.3-0.6-0.5-1.1-0.5c-0.4,0-0.8,0-1.2,0.1
			s-0.8,0.3-1.2,0.4c-0.2,0.1-0.4,0.1-0.6,0.1c-0.3,0-0.5-0.2-0.4-0.5c0-0.1,0-0.2,0.1-0.3c0.7-1.6,1.8-2.7,3.5-3.2
			c0.5-0.2,0.9-0.3,1.4-0.5c0.3-0.1,0.5-0.2,0.7-0.4c0.1-0.1,0.2-0.2,0.2-0.3c-0.1-0.1-0.2-0.2-0.3-0.2c-0.3,0-0.6,0-0.8,0
			c-0.9,0.1-1.8,0.5-2.5,1.2c-0.1,0.1-0.1,0.1-0.2,0.2c0,0,0,0-0.1,0c-0.1-0.1,0-0.3,0.1-0.3c0.3-0.3,0.6-0.6,1-0.8
			c0.7-0.4,1.6-0.6,2.4-0.5c0.2,0,0.4,0.1,0.6,0.2c0.2,0.1,0.3,0.3,0.1,0.5c-0.2,0.2-0.4,0.4-0.6,0.5c-0.5,0.2-1,0.4-1.5,0.5
			c-1.4,0.4-2.6,1.2-3.4,2.5c-0.2,0.2-0.3,0.5-0.4,0.8c-0.1,0.3,0,0.4,0.3,0.4c0.1,0,0.3-0.1,0.4-0.1c0.4-0.1,0.7-0.3,1.1-0.4
			c0.6-0.2,1.1-0.2,1.7,0c0.4,0.1,0.8,0.4,1,0.8c0.1,0.3,0.1,0.4-0.3,0.4c-0.9,0.1-1.8,0.1-2.7,0.4c-1.3,0.4-2.4,1-3.2,2.1
			c-0.2,0.2-0.3,0.5-0.4,0.8c-0.2,0.4,0.1,0.7,0.5,0.5c0.3-0.1,0.6-0.2,0.9-0.3c0.5-0.2,1.1-0.4,1.7-0.4c0.5,0,0.9,0.2,1.2,0.5
			c0.6,0.5,0.8,1.2,1,1.9c0,0.1,0,0.1,0,0.2C14,64,13.9,64,13.9,64.1z"/>
		<path class="st1" d="M61,59.3c-0.1,0.1-0.3,0.2-0.4,0.3c-0.7,0.7-1.4,1.5-2,2.3c-0.1,0.1-0.2,0.3-0.4,0.2
			c-0.1-0.2,0.1-0.3,0.1-0.4c0.4-0.5,0.8-0.9,1.2-1.4c0.4-0.4,0.8-0.8,1.1-1.2c0.1-0.1,0.2-0.2,0.3-0.3c0.5,0.4,0.6,1,0.9,1.6
			C62,60.2,62,60.1,62,60c0.2-0.6,0.3-1.2,0.5-1.8c0.3-1,0.9-1.7,1.8-2.2c0.6-0.3,1.3-0.6,1.9-0.9c0.3-0.2,0.7-0.2,1-0.1
			c0.6,0.1,1,0.6,1,1.2c0,0.2,0,0.2-0.3,0.3v-0.1c0.1-0.6-0.3-1-0.9-1c-0.2,0-0.4,0-0.6,0.1c-0.9,0.3-1.7,0.7-2.5,1.3
			c-0.6,0.5-1,1.2-1.2,1.9c-0.2,0.9-0.4,1.8-0.6,2.7c0,0.1,0,0.2,0,0.3c0.2,1.3,0.3,2.5,0.2,3.8c0,0.8-0.2,1.6-0.6,2.3
			c-0.1,0.2-0.2,0.4-0.4,0.5c-0.1,0.1-0.3,0.2-0.4,0.2c-0.3,0-0.4-0.1-0.3-0.4c0.3-2.2,0.7-4.4,1.1-6.5c0-0.2,0-0.4,0-0.5
			c-0.1-0.5-0.3-0.9-0.5-1.4C61.2,59.6,61.1,59.5,61,59.3z M61,68.1c0.2,0,0.3,0,0.4-0.2c0.1-0.2,0.3-0.4,0.4-0.7
			c0.2-0.6,0.4-1.3,0.4-2c0-0.8,0-1.6-0.1-2.4c0-0.1-0.1-0.2-0.1-0.3C61.7,63,60.9,67.7,61,68.1z"/>
		<path class="st1" d="M67.5,52.8c0-0.3,0.2-0.3,0.4-0.4c0.2-0.1,0.4-0.1,0.6-0.1c0.6,0,1-0.3,1.3-0.7c0.2-0.3,0.4-0.6,0.5-0.8
			c0.2-0.2,0.3-0.5,0.5-0.7c0.3-0.3,0.7-0.5,1.1-0.5s0.9,0.1,1.3-0.2c0,0,0,0.1,0.1,0.1c0,0.1,0,0.2-0.1,0.2
			c-0.1,0.1-0.3,0.1-0.4,0.1c-0.2,0-0.5,0-0.7,0c-0.5,0-1,0.2-1.3,0.6c-0.2,0.3-0.4,0.6-0.5,0.8c-0.2,0.3-0.4,0.5-0.6,0.8
			c-0.3,0.3-0.6,0.5-1.1,0.5C68.2,52.5,67.8,52.6,67.5,52.8C67.5,52.8,67.5,52.8,67.5,52.8C67.6,52.9,67.6,52.8,67.5,52.8z"/>
		<path class="st1" d="M16.2,48.2c-0.1,0-0.1-0.1-0.1-0.2c0.1-0.1,0.2-0.3,0.3-0.4c0.7-1,1.6-1.6,2.8-1.9c0.1,0,0.3-0.1,0.4,0.1
			c-0.1,0-0.2,0.1-0.3,0.1c-1.2,0.3-2.2,1-2.8,2.1C16.4,48,16.4,48.1,16.2,48.2C16.3,48.2,16.3,48.2,16.2,48.2z"/>
		<path class="st1" d="M10.6,67c-0.1,0-0.2,0.1-0.2,0.1c-0.7-0.1-1.2,0.1-1.7,0.5c0,0-0.1,0.1-0.2,0.1c0-0.1-0.1-0.2,0-0.2
			c0-0.1,0.1-0.1,0.2-0.2c0.5-0.4,1.1-0.6,1.7-0.5c0.1,0,0.2,0.1,0.3,0.1C10.6,66.9,10.6,67,10.6,67z"/>
	</g>
</g>
</svg>
