<svg xmlns="http://www.w3.org/2000/svg" viewBox="0 0 86.07 95"><defs><style>.cls-1{fill:#fff;}</style></defs><g id="Layer_2" data-name="Layer 2"><g id="Layer_1-2" data-name="Layer 1"><path class="cls-1" d="M45.67,95a52.1,52.1,0,0,1-10.56-1.06A1.46,1.46,0,0,1,34,92.24c1.2-6-.74-7.95-.76-8a1.42,1.42,0,0,1-.15-2,1.48,1.48,0,0,1,2.07-.15c.31.27,2.86,2.67,1.94,9.27C41.2,92,53.68,93.53,62,88a1.45,1.45,0,0,1,1.6,2.43C58.14,94.06,51.29,95,45.67,95Z"/><path class="cls-1" d="M15.5,66.76H11.25a1.46,1.46,0,0,1,0-2.91H15.5a1.46,1.46,0,0,1,0,2.91Z"/><path class="cls-1" d="M20.06,82.87c-.71,0-1.41,0-2.12-.1a38.46,38.46,0,0,1-6.44-1.13,4.4,4.4,0,0,1-2.87-2.52,4.12,4.12,0,0,1,.14-3.58,3.44,3.44,0,0,1,.66-.86c1.12-1,1.43-2.28,1.07-2.9a1.43,1.43,0,0,0-.75-.55A3.61,3.61,0,0,1,7.49,67a4.33,4.33,0,0,1,.7-1.41A3.49,3.49,0,0,1,7,63.11a3.67,3.67,0,0,1,.66-2.41A2.34,2.34,0,0,0,8,59.43l.08-2.58H1.45a1.46,1.46,0,0,1-1.23-.68,1.5,1.5,0,0,1-.08-1.41c1.11-2.31,2.45-4.68,3.75-7,.63-1.12,1.27-2.24,1.87-3.36a17.47,17.47,0,0,0,2.11-7.18,9.06,9.06,0,0,0-.06-2,24.47,24.47,0,0,1-.26-3.36,22.31,22.31,0,0,1,.63-5.33A35.89,35.89,0,0,1,17.91,9.5C32.27-4.3,52.18.81,54.4,1.44c8.54,2.41,15.18,7.31,19.22,14.18C77.34,22,79,30,78,36.54A38.91,38.91,0,0,1,76.42,43a1.45,1.45,0,1,1-2.76-.91,36.19,36.19,0,0,0,1.49-6c.91-5.94-.64-13.23-4-19-3.64-6.21-9.7-10.65-17.49-12.85C52.79,4,33.34-1.3,19.93,11.6A32.91,32.91,0,0,0,11,27.31a18.88,18.88,0,0,0-.54,4.57,22,22,0,0,0,.23,3,12.31,12.31,0,0,1,.08,2.5,20.62,20.62,0,0,1-2.45,8.43C7.7,47,7.06,48.09,6.42,49.22c-.88,1.56-1.78,3.15-2.61,4.72H9.6a1.45,1.45,0,0,1,1,.44,1.49,1.49,0,0,1,.41,1.06l-.13,4.08a5,5,0,0,1-.93,2.9.92.92,0,0,0-.1.55.72.72,0,0,0,.54.6l1.21.34a1.45,1.45,0,0,1-.15,2.83,1.45,1.45,0,0,0-1.18,1,.71.71,0,0,0,.48.8A4.21,4.21,0,0,1,13,70.33c1.11,1.93.42,4.67-1.65,6.52A1.27,1.27,0,0,0,11.3,78a1.5,1.5,0,0,0,1,.86,34.58,34.58,0,0,0,5.93,1,19.63,19.63,0,0,0,9.47-1.43,1.46,1.46,0,0,1,1.12,2.69A22.94,22.94,0,0,1,20.06,82.87Z"/><path class="cls-1" d="M58.9,83.08a5.58,5.58,0,0,1-4.4-2,4,4,0,0,1-.87-3.1,4.2,4.2,0,0,1,.5-1.44,4.83,4.83,0,0,1-4.37-3.62,4.7,4.7,0,0,1-.09-1.4,4,4,0,0,1,.86-2.15,4.58,4.58,0,0,1-4-3.3,4.33,4.33,0,0,1-.11-1.48A4.47,4.47,0,0,1,47,62.79H37.47a5.1,5.1,0,0,1-5.13-4,5.17,5.17,0,0,1,0-2.16,5.14,5.14,0,0,1,5.08-3.8h0l20.94,0-1.41-1c-.71-.37-4-2.21-4.4-5.16a3.05,3.05,0,0,1,1.16-2.85,3.21,3.21,0,0,1,3.17-.45l24.55,9.83A7.42,7.42,0,0,1,84.06,55a7.12,7.12,0,0,1,2,5,1.46,1.46,0,0,1-2.91,0A4.25,4.25,0,0,0,82,57,4.73,4.73,0,0,0,80.39,56L55.84,46.15a.28.28,0,0,0-.29,0,.15.15,0,0,0-.08.15c.19,1.37,2.22,2.67,2.91,3l.18.1,3.15,2.16a1.46,1.46,0,0,1,.53.65,2.54,2.54,0,0,1-.42,2.62,2.69,2.69,0,0,1-2.12.9l-22.24,0h0a2.24,2.24,0,0,0-2.25,1.55,2.14,2.14,0,0,0-.06.62c0,.11,0,.22,0,.33a2.25,2.25,0,0,0,2.28,1.62h14a1.46,1.46,0,0,1,.6,2.78l-1.55.69a1.82,1.82,0,0,0-1.16,1.46,1.53,1.53,0,0,0,1.8,1.64h3a1.46,1.46,0,0,1,1,2.5c-.07.06-.22.19-.45.36-1.94,1.46-2.18,2.14-2.19,2.36a1.74,1.74,0,0,0,0,.57,2,2,0,0,0,2,1.36h2.91a1.45,1.45,0,0,1,.84,2.64c-1.49,1.05-1.8,1.78-1.85,2.13a1.15,1.15,0,0,0,.3.88,2.63,2.63,0,0,0,2.1.92H76.6a8.54,8.54,0,0,0,4.47-1.25,4.28,4.28,0,0,0,2.09-3.67,1.46,1.46,0,0,1,2.91,0,7.17,7.17,0,0,1-3.48,6.15,11.48,11.48,0,0,1-6,1.68H58.9Z"/><path class="cls-1" d="M34.18,76.09a17.13,17.13,0,0,1,0-34.25,16.88,16.88,0,0,1,10.63,3.71A1.45,1.45,0,1,1,43,47.82a14.09,14.09,0,0,0-8.83-3.07,14.22,14.22,0,1,0,7.74,26.14,1.46,1.46,0,0,1,1.59,2.44A17.12,17.12,0,0,1,34.18,76.09Z"/><path class="cls-1" d="M34.61,68.67a9.71,9.71,0,0,1,0-19.41,1.46,1.46,0,1,1,0,2.91,6.8,6.8,0,1,0,4.07,12.24,1.45,1.45,0,1,1,1.74,2.32A9.6,9.6,0,0,1,34.61,68.67Z"/></g></g></svg>