<svg xmlns="http://www.w3.org/2000/svg" viewBox="0 0 78.52 95"><defs><style>.cls-1{fill:#fff;}</style></defs><g id="Layer_2" data-name="Layer 2"><g id="Layer_1-2" data-name="Layer 1"><path class="cls-1" d="M50.41,95a5.5,5.5,0,0,1-5.49-5.5V81.79a31.61,31.61,0,0,0-2-11l-1.12-3a2.86,2.86,0,0,0-5.38.07L35.32,71.1A31.43,31.43,0,0,0,33.6,81.36V89.5a5.49,5.49,0,0,1-10.26,2.74l-2.81-4.88A66.13,66.13,0,0,1,12,60.28a26.48,26.48,0,0,0-3.41-10.8L4.4,42.1A33.39,33.39,0,0,1,0,25.54,31.33,31.33,0,0,1,3.91,9.78,19.89,19.89,0,0,1,21.22,0a19.83,19.83,0,0,1,3.54.31l14.5,2.56L53.76.31A20.23,20.23,0,0,1,74.62,9.8a31.3,31.3,0,0,1,3.9,15.74,33.39,33.39,0,0,1-4.4,16.56L69.9,49.48a26.48,26.48,0,0,0-3.41,10.8A66.18,66.18,0,0,1,58,87.36l-2.81,4.88A5.53,5.53,0,0,1,50.41,95ZM39.14,63a5.83,5.83,0,0,1,5.44,3.78l1.11,3a34.31,34.31,0,0,1,2.17,12V89.5a2.56,2.56,0,0,0,4.77,1.28l2.81-4.89A63.08,63.08,0,0,0,63.56,60a29.67,29.67,0,0,1,3.78-12l4.23-7.38a30.51,30.51,0,0,0,4-15.1,28.41,28.41,0,0,0-3.51-14.28A16.94,16.94,0,0,0,57.3,2.94a17.87,17.87,0,0,0-3,.26L39.52,5.81a1.51,1.51,0,0,1-.52,0L24.25,3.2a17.79,17.79,0,0,0-3-.26,17,17,0,0,0-14.79,8.3,28.46,28.46,0,0,0-3.52,14.3,30.51,30.51,0,0,0,4,15.1L11.17,48A29.53,29.53,0,0,1,15,60a63.08,63.08,0,0,0,8.12,25.86l2.81,4.89a2.56,2.56,0,0,0,4.77-1.28V81.36a34.54,34.54,0,0,1,1.88-11.22l1.11-3.25A5.81,5.81,0,0,1,39.14,63Z"/><path class="cls-1" d="M13.32,23.87a1.47,1.47,0,0,1-1.47-1.47,13.63,13.63,0,0,1,2.49-8.12c.2-.28.41-.54.62-.78A12.33,12.33,0,0,1,27.1,9.61l8.93,2a1.47,1.47,0,1,1-.64,2.87l-8.92-2A9.39,9.39,0,0,0,17.2,15.4c-.16.19-.32.39-.48.61a10.75,10.75,0,0,0-1.93,6.39A1.47,1.47,0,0,1,13.32,23.87Z"/><path class="cls-1" d="M58.24,24.15A3.12,3.12,0,1,1,61.36,21,3.12,3.12,0,0,1,58.24,24.15Zm0-5.49A2.37,2.37,0,1,0,60.61,21,2.38,2.38,0,0,0,58.24,18.66Z"/><path class="cls-1" d="M58.24,28.51A7.48,7.48,0,1,1,65.72,21,7.49,7.49,0,0,1,58.24,28.51Zm0-13.47a6,6,0,1,0,6,6A6,6,0,0,0,58.24,15Z"/><path class="cls-1" d="M58.24,15a.74.74,0,0,1-.74-.74V8.45a.74.74,0,0,1,.74-.74.75.75,0,0,1,.75.74V14.3A.75.75,0,0,1,58.24,15Z"/><path class="cls-1" d="M70.82,21.78H65a.75.75,0,0,1-.74-.75.74.74,0,0,1,.74-.74h5.84a.75.75,0,0,1,.75.74A.76.76,0,0,1,70.82,21.78Z"/><path class="cls-1" d="M51.51,21.78H45.66a.75.75,0,0,1-.74-.75.74.74,0,0,1,.74-.74h5.85a.74.74,0,0,1,.74.74A.75.75,0,0,1,51.51,21.78Z"/><path class="cls-1" d="M58.24,34.36a.75.75,0,0,1-.74-.75V27.77a.74.74,0,0,1,.74-.74.75.75,0,0,1,.75.74v5.84A.76.76,0,0,1,58.24,34.36Z"/></g></g></svg>