<?xml version="1.0" encoding="utf-8"?>
<!-- Generator: Adobe Illustrator 24.2.1, SVG Export Plug-In . SVG Version: 6.00 Build 0)  -->
<svg version="1.1" id="Layer_1" xmlns="http://www.w3.org/2000/svg" xmlns:xlink="http://www.w3.org/1999/xlink" x="0px" y="0px"
	 viewBox="0 0 95 95" style="enable-background:new 0 0 95 95;" xml:space="preserve">
<style type="text/css">
	.st0{fill:#FFFFFF;}
	.st1{fill:none;stroke:#FFFFFF;}
</style>
<g>
	<g>
		<g>
			<path class="st0" d="M81.8,79.1c-0.2,0-0.4-0.1-0.6-0.1c-1-0.4-1.6-1.7-1.5-3.3c0.1-4.7,0.2-6.4-1-10.4c-0.5-1.6-1.9-2.2-3-2.2
				s-2.6,0.6-3,2.2c-1.2,4-1.1,5.7-1,10.3c0.1,1.7-0.5,3-1.5,3.3c-0.5,0.2-1.4,0.3-2.5-0.9c-1.6-1.9-2.6-7.3-3.2-11.6
				c-0.6-4.7-1.4-8-2.3-9.8c-2.4-4.8-2.2-9.7,0.7-12.9c2.4-2.7,6.2-3.5,10.1-2c0.7,0.3,1.5,0.7,2.3,1.2l0,0
				c7.6-3.8,11.6-1.6,13.3,0.1c3,3,3.3,8.5,0.6,13.7c-0.9,1.8-1.7,5.2-2.3,9.8c-0.6,4.3-1.6,9.8-3.2,11.6
				C83,78.9,82.3,79.1,81.8,79.1z M75.7,61.5c2.2,0,4,1.3,4.6,3.4c1.3,4.2,1.2,6.2,1,10.8c0,1.1,0.3,1.7,0.5,1.8c0,0,0.3,0,0.6-0.5
				c1-1.2,2.1-5.2,2.8-10.8c0.7-4.9,1.5-8.4,2.5-10.3c2.3-4.5,2.1-9.3-0.3-11.8c-2.2-2.2-5.8-2.3-10.3-0.3c1,0.5,2,0.9,2.6,0.5
				c0.4-0.2,0.9-0.1,1.1,0.2c0.2,0.4,0.1,0.9-0.2,1.1c-1.7,1.1-4-0.3-6.1-1.5c-0.8-0.5-1.5-0.9-2.1-1.1c-3.2-1.2-6.3-0.6-8.3,1.6
				c-2.4,2.7-2.6,6.9-0.5,11.1c1,1.9,1.8,5.4,2.5,10.3c0.8,5.8,1.8,9.8,2.8,11c0.4,0.4,0.6,0.5,0.6,0.5c0.1-0.1,0.5-0.7,0.5-1.7
				c-0.1-4.7-0.2-6.6,1-10.9C71.7,62.9,73.5,61.5,75.7,61.5z"/>
		</g>
		<g>
			<path class="st0" d="M23.4,77.2c-0.2,0-0.4,0-0.6-0.1c-0.9-0.3-1.5-1.5-1.4-3V74c0.1-4.1,0.2-5.5-0.9-9c-0.3-1.5-1.6-2-2.6-2
				s-2.2,0.5-2.6,1.9c-1,3.6-1,4.9-0.9,9V74c0,1.5-0.5,2.7-1.4,3c-0.4,0.2-1.3,0.3-2.3-0.9c-1.3-1.5-2-6.7-2.7-12l-0.1-1
				c-0.4-3-1.2-5.9-1.9-8l-0.3-0.9c-1.6-5.5-1-9.8,1.5-12.2c2-1.9,5-2.3,8.3-1.2c0.6,0.2,1.4,0.6,2.1,1.1c5.7-2.9,8.9-1.9,10.5-0.6
				c3.3,2.6,3.2,8.4,2,13c-0.1,0.5-0.3,1-0.4,1.6c-0.6,2.1-1.3,4.7-1.7,7.4l-0.1,1.1c-0.7,5.2-1.5,10.5-2.7,12
				C24.5,77,23.9,77.2,23.4,77.2z M17.9,61.4c2,0,3.6,1.2,4.2,3.1c1.1,3.8,1.1,5.4,0.9,9.5v0.1c0,0.9,0.2,1.4,0.4,1.5
				c0,0,0.2-0.1,0.5-0.4c1.1-1.3,2-8.2,2.3-11.1l0.1-1.1c0.4-2.8,1.2-5.6,1.7-7.6c0.2-0.6,0.3-1.1,0.4-1.6c1.3-5.1,0.8-9.5-1.4-11.3
				c-1.7-1.3-4.3-1.2-7.7,0.3c0.8,0.4,1.6,0.7,2,0.4c0.4-0.2,0.9-0.1,1.1,0.2c0.2,0.4,0.1,0.9-0.2,1.1c-1.5,1-3.6-0.2-5.3-1.3
				c-0.7-0.4-1.4-0.8-2-1c-2.7-0.9-5.1-0.6-6.6,0.9c-2,1.9-2.4,5.7-1,10.6l0.3,0.9c0.6,2.2,1.5,5.1,1.9,8.3L9.7,64
				c0.4,3,1.3,9.9,2.3,11.1c0.3,0.4,0.5,0.4,0.5,0.4c0.1-0.1,0.4-0.6,0.3-1.5v-0.1c-0.1-4.2-0.2-5.7,0.9-9.5
				C14.3,62.6,16,61.4,17.9,61.4z"/>
		</g>
		<g>
			<path class="st0" d="M35.2,35.7c-0.4,0-0.7-0.1-1-0.2c-0.5-0.2-0.8-0.7-0.9-1.2c-0.4-1.4-0.8-2.4-1.2-3
				c-2.4-4.3-2.1-9.2,0.7-12.5c2.5-2.8,6.3-3.6,10.1-2.1c0.6,0.2,1.4,0.6,2.3,1c0,0,0,0,0.1,0c8.4-3.3,12.2-1.2,13.9,1.1
				c2.4,3,2.4,8.7,0.1,12.5c-0.4,0.7-0.8,1.7-1.2,3c-0.1,0.5-0.5,1-0.9,1.2c-0.6,0.3-1.3,0.3-2.1,0c-6.1-2.2-12.7-2.2-18.8,0.1
				C35.9,35.6,35.5,35.7,35.2,35.7z M39.1,17.5c-2,0-3.8,0.8-5.1,2.3c-2.4,2.7-2.6,6.9-0.6,10.6c0.5,0.8,0.9,1.9,1.3,3.4
				c0.1,0.2,0.2,0.2,0.2,0.2c0.1,0.1,0.4,0.1,0.8-0.1c6.4-2.3,13.5-2.4,19.9-0.1c0.4,0.1,0.6,0.1,0.8,0.1c0,0,0.1,0,0.1-0.2
				c0.4-1.5,0.9-2.7,1.3-3.5c2-3.2,2-8.2,0-10.6c-2.2-2.9-6.6-2.4-10.4-1.1c0.9,0.3,1.8,0.5,2.3,0.3c0.4-0.2,0.9,0,1.1,0.4
				c0.2,0.4,0,0.9-0.4,1.1c-1.6,0.8-3.9-0.3-5.9-1.2c-0.8-0.4-1.6-0.7-2.1-0.9C41.3,17.7,40.2,17.5,39.1,17.5z"/>
		</g>
		<g>
			<path class="st0" d="M39.6,79.1c-0.5,0-1.2-0.2-1.9-1.1c-1.6-1.9-2.6-7.3-3.2-11.6c-0.4-3.1-0.9-5.7-1.5-7.5
				c-0.5-1.8,0.1-3.7,1.6-4.8c0.7-0.5,1.4-0.7,2-1c0.8-0.3,1.2-0.5,1.4-0.8l0.3-0.6c1.1-2.7,2.7-6.4,7.4-6.4l0,0
				c4.8,0,6.7,4.5,7.8,7.1c0.1,0.3,0.6,0.5,1.3,0.8c0.6,0.2,1.3,0.5,1.9,1c1.5,1.1,2.1,3,1.6,4.8l0,0c-0.6,1.9-1.1,4.4-1.5,7.5
				c-0.6,4.3-1.6,9.8-3.2,11.6c-1.1,1.2-2,1.1-2.5,0.9c-1-0.4-1.6-1.7-1.5-3.3c0.1-4.7,0.2-6.4-1-10.4c-0.5-1.7-1.9-2.3-3-2.3l0,0
				c-1.1,0-2.5,0.6-3,2.3c-1.2,4-1.1,5.7-1,10.3c0.1,1.7-0.5,3-1.5,3.3C40,79.1,39.8,79.1,39.6,79.1z M45.7,46.9
				c-3.7,0-4.9,2.9-5.9,5.4L39.5,53c-0.4,1-1.4,1.4-2.3,1.7c-0.5,0.2-1.1,0.4-1.6,0.8c-0.9,0.7-1.3,1.9-1,3c0.6,1.9,1.1,4.6,1.5,7.8
				c0.8,5.5,1.8,9.5,2.8,10.7c0.4,0.4,0.6,0.5,0.6,0.5c0.1-0.1,0.5-0.7,0.5-1.7c-0.1-4.7-0.2-6.6,1-10.9c0.6-2.1,2.4-3.4,4.6-3.4
				l0,0c2.2,0,4,1.3,4.6,3.4c1.3,4.2,1.2,6.2,1,10.8c0,1.1,0.3,1.7,0.5,1.8c0,0,0.2,0,0.6-0.5c1-1.2,2.1-5.2,2.8-10.8
				c0.4-3.2,1-5.8,1.5-7.8c0.3-1.1-0.1-2.3-1-3c-0.5-0.4-1-0.5-1.5-0.7c-0.8-0.3-1.8-0.7-2.2-1.7C50.7,49.8,49.2,46.9,45.7,46.9
				C45.8,46.9,45.7,46.9,45.7,46.9z M57.6,58.7L57.6,58.7L57.6,58.7z"/>
		</g>
		<g>
			<g>
				<path class="st0" d="M45.7,43.6c-0.5,0-0.8-0.4-0.8-0.8v-7.2c0-0.5,0.4-0.8,0.8-0.8c0.5,0,0.8,0.4,0.8,0.8v7.2
					C46.5,43.3,46.1,43.6,45.7,43.6z"/>
			</g>
			<g>
				<path class="st0" d="M45.7,43.9c-0.2,0-0.4-0.1-0.6-0.2l-2.5-2.5c-0.3-0.3-0.3-0.8,0-1.2c0.3-0.3,0.8-0.3,1.2,0l1.9,1.9l1.8-1.9
					c0.3-0.3,0.8-0.3,1.2,0c0.3,0.3,0.3,0.8,0,1.2l-2.4,2.5C46.2,43.8,45.9,43.9,45.7,43.9L45.7,43.9z"/>
			</g>
		</g>
		<g>
			<path class="st0" d="M15.1,58.8c-3.5,0-6.7-0.5-9.4-1c-2-0.3-3.6-0.6-4.9-0.6l0,0c-0.5,0-0.8-0.4-0.8-0.8c0-0.5,0.4-0.8,0.8-0.8
				l0,0c1.4,0,3.2,0.3,5.2,0.6c3.4,0.6,7.6,1.3,11.9,0.8c1.2-0.1,2.8-0.3,4.5-0.6c3.2-0.4,6.8-0.9,9-0.9l0,0c1.7,0,3.6,0.3,5.8,0.6
				c2.5,0.4,5.3,0.8,8.6,0.9c3.3,0.1,6.4-0.4,9.2-0.8c2-0.3,3.9-0.6,5.5-0.6c2,0,5,0.4,7.9,0.7c2.8,0.4,5.7,0.7,7.5,0.7l0,0
				c2.7,0,5.5-0.5,8.3-1c3.9-0.7,7.6-1.3,10.3-0.4c0.4,0.1,0.7,0.6,0.5,1c-0.1,0.4-0.6,0.7-1,0.5c-2.3-0.8-5.8-0.2-9.5,0.5
				c-2.8,0.5-5.8,1-8.6,1l0,0c-2,0-4.9-0.4-7.7-0.7c-2.8-0.4-5.7-0.7-7.7-0.7c-1.5,0-3.2,0.3-5.3,0.6c-2.8,0.4-6,1-9.5,0.9
				c-3.4-0.1-6.3-0.5-8.8-0.9c-2.1-0.3-4-0.6-5.6-0.6c-2.1,0-5.7,0.5-8.8,0.9c-1.7,0.2-3.3,0.4-4.5,0.6C17,58.8,16,58.8,15.1,58.8z"
				/>
		</g>
	</g>
	<g>
		<g>
			<path class="st1" d="M81.8,79.1c-0.2,0-0.4-0.1-0.6-0.1c-1-0.4-1.6-1.7-1.5-3.3c0.1-4.7,0.2-6.4-1-10.4c-0.5-1.6-1.9-2.2-3-2.2
				s-2.6,0.6-3,2.2c-1.2,4-1.1,5.7-1,10.3c0.1,1.7-0.5,3-1.5,3.3c-0.5,0.2-1.4,0.3-2.5-0.9c-1.6-1.9-2.6-7.3-3.2-11.6
				c-0.6-4.7-1.4-8-2.3-9.8c-2.4-4.8-2.2-9.7,0.7-12.9c2.4-2.7,6.2-3.5,10.1-2c0.7,0.3,1.5,0.7,2.3,1.2l0,0
				c7.6-3.8,11.6-1.6,13.3,0.1c3,3,3.3,8.5,0.6,13.7c-0.9,1.8-1.7,5.2-2.3,9.8c-0.6,4.3-1.6,9.8-3.2,11.6
				C83,78.9,82.3,79.1,81.8,79.1z M75.7,61.5c2.2,0,4,1.3,4.6,3.4c1.3,4.2,1.2,6.2,1,10.8c0,1.1,0.3,1.7,0.5,1.8c0,0,0.3,0,0.6-0.5
				c1-1.2,2.1-5.2,2.8-10.8c0.7-4.9,1.5-8.4,2.5-10.3c2.3-4.5,2.1-9.3-0.3-11.8c-2.2-2.2-5.8-2.3-10.3-0.3c1,0.5,2,0.9,2.6,0.5
				c0.4-0.2,0.9-0.1,1.1,0.2c0.2,0.4,0.1,0.9-0.2,1.1c-1.7,1.1-4-0.3-6.1-1.5c-0.8-0.5-1.5-0.9-2.1-1.1c-3.2-1.2-6.3-0.6-8.3,1.6
				c-2.4,2.7-2.6,6.9-0.5,11.1c1,1.9,1.8,5.4,2.5,10.3c0.8,5.8,1.8,9.8,2.8,11c0.4,0.4,0.6,0.5,0.6,0.5c0.1-0.1,0.5-0.7,0.5-1.7
				c-0.1-4.7-0.2-6.6,1-10.9C71.7,62.9,73.5,61.5,75.7,61.5z"/>
		</g>
		<g>
			<path class="st1" d="M23.4,77.2c-0.2,0-0.4,0-0.6-0.1c-0.9-0.3-1.5-1.5-1.4-3V74c0.1-4.1,0.2-5.5-0.9-9c-0.3-1.5-1.6-2-2.6-2
				s-2.2,0.5-2.6,1.9c-1,3.6-1,4.9-0.9,9V74c0,1.5-0.5,2.7-1.4,3c-0.4,0.2-1.3,0.3-2.3-0.9c-1.3-1.5-2-6.7-2.7-12l-0.1-1
				c-0.4-3-1.2-5.9-1.9-8l-0.3-0.9c-1.6-5.5-1-9.8,1.5-12.2c2-1.9,5-2.3,8.3-1.2c0.6,0.2,1.4,0.6,2.1,1.1c5.7-2.9,8.9-1.9,10.5-0.6
				c3.3,2.6,3.2,8.4,2,13c-0.1,0.5-0.3,1-0.4,1.6c-0.6,2.1-1.3,4.7-1.7,7.4l-0.1,1.1c-0.7,5.2-1.5,10.5-2.7,12
				C24.5,77,23.9,77.2,23.4,77.2z M17.9,61.4c2,0,3.6,1.2,4.2,3.1c1.1,3.8,1.1,5.4,0.9,9.5v0.1c0,0.9,0.2,1.4,0.4,1.5
				c0,0,0.2-0.1,0.5-0.4c1.1-1.3,2-8.2,2.3-11.1l0.1-1.1c0.4-2.8,1.2-5.6,1.7-7.6c0.2-0.6,0.3-1.1,0.4-1.6c1.3-5.1,0.8-9.5-1.4-11.3
				c-1.7-1.3-4.3-1.2-7.7,0.3c0.8,0.4,1.6,0.7,2,0.4c0.4-0.2,0.9-0.1,1.1,0.2c0.2,0.4,0.1,0.9-0.2,1.1c-1.5,1-3.6-0.2-5.3-1.3
				c-0.7-0.4-1.4-0.8-2-1c-2.7-0.9-5.1-0.6-6.6,0.9c-2,1.9-2.4,5.7-1,10.6l0.3,0.9c0.6,2.2,1.5,5.1,1.9,8.3L9.7,64
				c0.4,3,1.3,9.9,2.3,11.1c0.3,0.4,0.5,0.4,0.5,0.4c0.1-0.1,0.4-0.6,0.3-1.5v-0.1c-0.1-4.2-0.2-5.7,0.9-9.5
				C14.3,62.6,16,61.4,17.9,61.4z"/>
		</g>
		<g>
			<path class="st1" d="M35.2,35.7c-0.4,0-0.7-0.1-1-0.2c-0.5-0.2-0.8-0.7-0.9-1.2c-0.4-1.4-0.8-2.4-1.2-3
				c-2.4-4.3-2.1-9.2,0.7-12.5c2.5-2.8,6.3-3.6,10.1-2.1c0.6,0.2,1.4,0.6,2.3,1c0,0,0,0,0.1,0c8.4-3.3,12.2-1.2,13.9,1.1
				c2.4,3,2.4,8.7,0.1,12.5c-0.4,0.7-0.8,1.7-1.2,3c-0.1,0.5-0.5,1-0.9,1.2c-0.6,0.3-1.3,0.3-2.1,0c-6.1-2.2-12.7-2.2-18.8,0.1
				C35.9,35.6,35.5,35.7,35.2,35.7z M39.1,17.5c-2,0-3.8,0.8-5.1,2.3c-2.4,2.7-2.6,6.9-0.6,10.6c0.5,0.8,0.9,1.9,1.3,3.4
				c0.1,0.2,0.2,0.2,0.2,0.2c0.1,0.1,0.4,0.1,0.8-0.1c6.4-2.3,13.5-2.4,19.9-0.1c0.4,0.1,0.6,0.1,0.8,0.1c0,0,0.1,0,0.1-0.2
				c0.4-1.5,0.9-2.7,1.3-3.5c2-3.2,2-8.2,0-10.6c-2.2-2.9-6.6-2.4-10.4-1.1c0.9,0.3,1.8,0.5,2.3,0.3c0.4-0.2,0.9,0,1.1,0.4
				c0.2,0.4,0,0.9-0.4,1.1c-1.6,0.8-3.9-0.3-5.9-1.2c-0.8-0.4-1.6-0.7-2.1-0.9C41.3,17.7,40.2,17.5,39.1,17.5z"/>
		</g>
		<g>
			<path class="st1" d="M39.6,79.1c-0.5,0-1.2-0.2-1.9-1.1c-1.6-1.9-2.6-7.3-3.2-11.6c-0.4-3.1-0.9-5.7-1.5-7.5
				c-0.5-1.8,0.1-3.7,1.6-4.8c0.7-0.5,1.4-0.7,2-1c0.8-0.3,1.2-0.5,1.4-0.8l0.3-0.6c1.1-2.7,2.7-6.4,7.4-6.4l0,0
				c4.8,0,6.7,4.5,7.8,7.1c0.1,0.3,0.6,0.5,1.3,0.8c0.6,0.2,1.3,0.5,1.9,1c1.5,1.1,2.1,3,1.6,4.8l0,0c-0.6,1.9-1.1,4.4-1.5,7.5
				c-0.6,4.3-1.6,9.8-3.2,11.6c-1.1,1.2-2,1.1-2.5,0.9c-1-0.4-1.6-1.7-1.5-3.3c0.1-4.7,0.2-6.4-1-10.4c-0.5-1.7-1.9-2.3-3-2.3l0,0
				c-1.1,0-2.5,0.6-3,2.3c-1.2,4-1.1,5.7-1,10.3c0.1,1.7-0.5,3-1.5,3.3C40,79.1,39.8,79.1,39.6,79.1z M45.7,46.9
				c-3.7,0-4.9,2.9-5.9,5.4L39.5,53c-0.4,1-1.4,1.4-2.3,1.7c-0.5,0.2-1.1,0.4-1.6,0.8c-0.9,0.7-1.3,1.9-1,3c0.6,1.9,1.1,4.6,1.5,7.8
				c0.8,5.5,1.8,9.5,2.8,10.7c0.4,0.4,0.6,0.5,0.6,0.5c0.1-0.1,0.5-0.7,0.5-1.7c-0.1-4.7-0.2-6.6,1-10.9c0.6-2.1,2.4-3.4,4.6-3.4
				l0,0c2.2,0,4,1.3,4.6,3.4c1.3,4.2,1.2,6.2,1,10.8c0,1.1,0.3,1.7,0.5,1.8c0,0,0.2,0,0.6-0.5c1-1.2,2.1-5.2,2.8-10.8
				c0.4-3.2,1-5.8,1.5-7.8c0.3-1.1-0.1-2.3-1-3c-0.5-0.4-1-0.5-1.5-0.7c-0.8-0.3-1.8-0.7-2.2-1.7C50.7,49.8,49.2,46.9,45.7,46.9
				C45.8,46.9,45.7,46.9,45.7,46.9z M57.6,58.7L57.6,58.7L57.6,58.7z"/>
		</g>
		<g>
			<g>
				<path class="st1" d="M45.7,43.6c-0.5,0-0.8-0.4-0.8-0.8v-7.2c0-0.5,0.4-0.8,0.8-0.8c0.5,0,0.8,0.4,0.8,0.8v7.2
					C46.5,43.3,46.1,43.6,45.7,43.6z"/>
			</g>
			<g>
				<path class="st1" d="M45.7,43.9c-0.2,0-0.4-0.1-0.6-0.2l-2.5-2.5c-0.3-0.3-0.3-0.8,0-1.2c0.3-0.3,0.8-0.3,1.2,0l1.9,1.9l1.8-1.9
					c0.3-0.3,0.8-0.3,1.2,0c0.3,0.3,0.3,0.8,0,1.2l-2.4,2.5C46.2,43.8,45.9,43.9,45.7,43.9L45.7,43.9z"/>
			</g>
		</g>
		<g>
			<path class="st1" d="M15.1,58.8c-3.5,0-6.7-0.5-9.4-1c-2-0.3-3.6-0.6-4.9-0.6l0,0c-0.5,0-0.8-0.4-0.8-0.8c0-0.5,0.4-0.8,0.8-0.8
				l0,0c1.4,0,3.2,0.3,5.2,0.6c3.4,0.6,7.6,1.3,11.9,0.8c1.2-0.1,2.8-0.3,4.5-0.6c3.2-0.4,6.8-0.9,9-0.9l0,0c1.7,0,3.6,0.3,5.8,0.6
				c2.5,0.4,5.3,0.8,8.6,0.9c3.3,0.1,6.4-0.4,9.2-0.8c2-0.3,3.9-0.6,5.5-0.6c2,0,5,0.4,7.9,0.7c2.8,0.4,5.7,0.7,7.5,0.7l0,0
				c2.7,0,5.5-0.5,8.3-1c3.9-0.7,7.6-1.3,10.3-0.4c0.4,0.1,0.7,0.6,0.5,1c-0.1,0.4-0.6,0.7-1,0.5c-2.3-0.8-5.8-0.2-9.5,0.5
				c-2.8,0.5-5.8,1-8.6,1l0,0c-2,0-4.9-0.4-7.7-0.7c-2.8-0.4-5.7-0.7-7.7-0.7c-1.5,0-3.2,0.3-5.3,0.6c-2.8,0.4-6,1-9.5,0.9
				c-3.4-0.1-6.3-0.5-8.8-0.9c-2.1-0.3-4-0.6-5.6-0.6c-2.1,0-5.7,0.5-8.8,0.9c-1.7,0.2-3.3,0.4-4.5,0.6C17,58.8,16,58.8,15.1,58.8z"
				/>
		</g>
	</g>
</g>
</svg>
