<svg xmlns="http://www.w3.org/2000/svg" viewBox="0 0 78.52 95"><defs><style>.cls-1{fill:#fff;}</style></defs><g id="Layer_2" data-name="Layer 2"><g id="Layer_1-2" data-name="Layer 1"><path class="cls-1" d="M50.41,95a5.5,5.5,0,0,1-5.49-5.5V81.79a31.35,31.35,0,0,0-2-11l-1.11-3a2.88,2.88,0,0,0-2.68-1.86,2.84,2.84,0,0,0-2.7,1.93L35.32,71.1A31.43,31.43,0,0,0,33.6,81.36V89.5a5.49,5.49,0,0,1-10.26,2.74l-2.81-4.88A66.13,66.13,0,0,1,12,60.28a26.48,26.48,0,0,0-3.41-10.8L4.4,42.1A33.39,33.39,0,0,1,0,25.54,31.33,31.33,0,0,1,3.91,9.78,19.89,19.89,0,0,1,21.22,0a19.83,19.83,0,0,1,3.54.31l14.5,2.56L53.76.31A20.23,20.23,0,0,1,74.62,9.8a31.27,31.27,0,0,1,3.9,15.74,33.39,33.39,0,0,1-4.4,16.56L69.9,49.48a26.48,26.48,0,0,0-3.41,10.8A66.13,66.13,0,0,1,58,87.36l-2.81,4.88A5.53,5.53,0,0,1,50.41,95ZM39.14,63a5.82,5.82,0,0,1,5.43,3.78l1.12,3a34.27,34.27,0,0,1,2.17,12V89.5a2.56,2.56,0,0,0,4.77,1.28l2.81-4.89A63.08,63.08,0,0,0,63.56,60a29.67,29.67,0,0,1,3.78-12l4.23-7.38a30.51,30.51,0,0,0,4-15.1,28.41,28.41,0,0,0-3.51-14.28A16.94,16.94,0,0,0,57.3,2.94a17.87,17.87,0,0,0-3,.26L39.51,5.81a1.46,1.46,0,0,1-.51,0L24.25,3.2a17.79,17.79,0,0,0-3-.26,17,17,0,0,0-14.79,8.3,28.46,28.46,0,0,0-3.52,14.3,30.48,30.48,0,0,0,4,15.1L11.17,48A29.53,29.53,0,0,1,15,60a63.08,63.08,0,0,0,8.12,25.86l2.81,4.89a2.56,2.56,0,0,0,4.77-1.28V81.36a34.32,34.32,0,0,1,1.88-11.22l1.11-3.25A5.81,5.81,0,0,1,39.14,63Z"/><path class="cls-1" d="M52.41,57.29h-.12a1.47,1.47,0,0,1-1.2-.82A111.86,111.86,0,0,1,46,44.28l-.11-.36a6.94,6.94,0,0,0-6.68-5,6.79,6.79,0,0,0-6.78,4.85l-.13.4a101.66,101.66,0,0,1-4.94,11.45,1.48,1.48,0,0,1-1.27.81,1.41,1.41,0,0,1-1.31-.73l-.25-.43a106.24,106.24,0,0,1-5-9.43c-.69-1.5-1.48-3-2.25-4.46a46.41,46.41,0,0,1-4.36-10.23C11.3,24.74,12.45,18.69,16,15c7.33-7.75,17.94-2.25,23.86.93H40C46,12.7,56.56,7.2,63.89,15c3.55,3.74,4.7,9.79,3.09,16.17a47.18,47.18,0,0,1-4.36,10.24c-.41.78-.83,1.56-1.22,2.35a106,106,0,0,1-7.78,12.95A1.47,1.47,0,0,1,52.41,57.29ZM39.09,36h.14a9.79,9.79,0,0,1,9.46,7.12l.11.38a86.06,86.06,0,0,0,3.85,9.41,100.39,100.39,0,0,0,6.12-10.49L60,40a43.44,43.44,0,0,0,4.12-9.59C65.5,25,64.61,20,61.76,17c-5.47-5.78-13.53-2.17-20.66,1.67a1.4,1.4,0,0,1-.7.18h-.91a1.4,1.4,0,0,1-.7-.18C31.66,14.8,23.6,11.19,18.13,17c-2.85,3-3.74,8-2.37,13.43A44.08,44.08,0,0,0,19.87,40c.79,1.49,1.59,3,2.32,4.6,1,2.2,2.21,4.52,3.72,7.2a81.49,81.49,0,0,0,3.57-8.54l.13-.41A9.78,9.78,0,0,1,39.09,36Z"/><path class="cls-1" d="M26.72,79.39a1.48,1.48,0,0,1-1.45-1.23c-.24-1.49-.55-3.18-.93-5-1.57-7.63-.08-18.38,0-18.83a1.47,1.47,0,1,1,2.91.41c0,.1-1.47,10.7,0,17.83.38,1.89.7,3.62,1,5.14A1.48,1.48,0,0,1,27,79.37Z"/><path class="cls-1" d="M51.79,79.39l-.24,0a1.47,1.47,0,0,1-1.21-1.69c.28-1.66.59-3.34.95-5.13,1.3-6.38.29-15.4.07-17.15a1.48,1.48,0,0,1,1.28-1.63A1.46,1.46,0,0,1,54.28,55c.23,1.83,1.28,11.27-.11,18.09-.35,1.76-.66,3.4-.93,5A1.47,1.47,0,0,1,51.79,79.39Z"/></g></g></svg>