<svg xmlns="http://www.w3.org/2000/svg" viewBox="0 0 95 83.52"><defs><style>.cls-1{fill:#fff;}</style></defs><g id="Layer_2" data-name="Layer 2"><g id="Layer_1-2" data-name="Layer 1"><path class="cls-1" d="M93.56,27.68h-9c1-6.17.38-12.8-3.81-18.58-10-13.85-20-9-29.51-4.29C50,5.42,48.75,6,47.5,6.6,46.25,6,45,5.42,43.78,4.81,34.21.11,24.32-4.75,14.27,9.1c-4.19,5.78-4.79,12.41-3.81,18.58H2.88V23.4A1.44,1.44,0,0,0,0,23.4V34.84a1.44,1.44,0,0,0,2.88,0V30.56H11a56.71,56.71,0,0,0,7.4,16.78A3.92,3.92,0,0,1,19,49c1.79,15.75,5.3,34.52,11.9,34.52,4.84,0,12.69-6.9,13.17-25.39a.13.13,0,0,0,0-.06,5.18,5.18,0,0,1,2.81-4.71,1.22,1.22,0,0,1,1.2,0,5.17,5.17,0,0,1,2.81,4.7h0v.06c.49,18.49,8.34,25.39,13.18,25.39,6.6,0,10.12-18.77,11.9-34.52a3.92,3.92,0,0,1,.58-1.66A56.71,56.71,0,0,0,84,30.56h9.59a1.44,1.44,0,0,0,0-2.88Zm-77-16.89C20.85,5,24.94,2.93,29.11,2.93S37.8,5.08,42.51,7.4l1.41.69a21.26,21.26,0,0,1-7.3,1.48,1.44,1.44,0,1,0,0,2.88A28.3,28.3,0,0,0,48.08,9.5h0C49.58,8.83,51,8.11,52.49,7.4c9.27-4.56,17.28-8.49,25.91,3.39,3.72,5.14,4.14,11.22,3.16,16.89h-12v-.81a7.21,7.21,0,0,0-7.2-7.2H23a2.88,2.88,0,0,0-2.88,2.88v5.13H13.44C12.46,22,12.88,15.93,16.6,10.79ZM23,35.69V30.56H40.06v5.13Zm5.22-10.08a1.45,1.45,0,0,0,1.44-1.44V22.55H33.4v1.62a1.44,1.44,0,0,0,2.88,0V22.55h3.78v5.13H23V22.55h3.78v1.62A1.44,1.44,0,0,0,28.19,25.61ZM42.94,35.69V22.55h3.77v1.62a1.44,1.44,0,0,0,2.88,0V22.55h3.78v1.62a1.44,1.44,0,1,0,2.88,0V22.55H60v1.62a1.44,1.44,0,0,0,2.88,0V22.6a4.31,4.31,0,0,1,3.78,4.27v4.5a4.33,4.33,0,0,1-4.32,4.32ZM74.16,45.78a6.69,6.69,0,0,0-1,2.9c-2.35,20.76-6.42,32-9,32C61,80.64,54.23,75,53.79,58a8,8,0,0,0-4.29-7.19,4.07,4.07,0,0,0-4,0A8,8,0,0,0,41.21,58C40.77,75,34,80.64,30.91,80.64c-2.62,0-6.68-11.2-9-32a6.77,6.77,0,0,0-1-2.9,55.46,55.46,0,0,1-6.78-15.22h6v5.13A2.88,2.88,0,0,0,23,38.57H62.36a7.21,7.21,0,0,0,7.2-7.2v-.81H80.94A55.46,55.46,0,0,1,74.16,45.78Z"/></g></g></svg>