<svg xmlns="http://www.w3.org/2000/svg" viewBox="0 0 95 93.29"><defs><style>.cls-1{fill:#fff;}</style></defs><g id="Layer_2" data-name="Layer 2"><g id="Layer_1-2" data-name="Layer 1"><path class="cls-1" d="M22.12,51.94a1.44,1.44,0,0,1-.35-2.84l3.76-.93a1.44,1.44,0,0,1,.69,2.8l-3.76.93A1.32,1.32,0,0,1,22.12,51.94Z"/><path class="cls-1" d="M50.17,93.29h0a1.43,1.43,0,0,1-1.4-1.47A57.84,57.84,0,0,0,45.8,73.47a13.78,13.78,0,0,0-9.6-9.13L32,63.2l-.21-.07C31.35,63,28.9,62.37,23.3,61a5.55,5.55,0,0,1-3.56-2.57,5,5,0,0,1-.69-2.53,5,5,0,0,1,1.19-3.22,2.4,2.4,0,0,0,.47-1.8l-1.06-2a2.61,2.61,0,0,1-.15-2.24,3.63,3.63,0,0,1,2.84-1.91,7.32,7.32,0,0,0,2.39-.94c.64-.41,1.39-1,1.39-1.77a9.06,9.06,0,0,0-3.47-6.51l-.09-.08a3.31,3.31,0,0,1-1.07-2.51A3.12,3.12,0,0,1,23,30.54l.08-.05a13.72,13.72,0,0,0,2.3-1.66,3.25,3.25,0,0,0-.52-2,3.35,3.35,0,0,0-.73-.67,4,4,0,0,1-1.6-2,3.79,3.79,0,0,1,.42-3.53,3.17,3.17,0,0,1,1.54-1c2.05-.58,4.31-1.3,6.49-2,1.8-.57,3.61-1.14,5.3-1.64a7.46,7.46,0,0,0,1.92-.88,7.27,7.27,0,0,0,1.62-1.41l4-4.68L43.91,9A31.09,31.09,0,0,1,60.77.35,31.93,31.93,0,0,1,79,3,33.22,33.22,0,0,1,94.88,19.7a1.44,1.44,0,0,1-2.64,1.14A30.3,30.3,0,0,0,77.74,5.63,28.85,28.85,0,0,0,61.23,3.19,28.24,28.24,0,0,0,46,11l-4,4.64a10.09,10.09,0,0,1-2.26,2,10.63,10.63,0,0,1-2.65,1.21c-1.68.5-3.46,1.06-5.24,1.63-2.21.7-4.48,1.42-6.53,2a.3.3,0,0,0-.12.06,1.1,1.1,0,0,0,0,.79c.08.24.17.32.59.64a5.72,5.72,0,0,1,1.34,1.28,6.29,6.29,0,0,1,1.07,4.12c0,.51-.14,1.55-3.65,3.64a.88.88,0,0,0-.24.23s.08.06.14.13A12.06,12.06,0,0,1,29,42c0,1.14-.47,2.76-2.7,4.22a9.93,9.93,0,0,1-3.36,1.33,3.27,3.27,0,0,0-.64.2l1.09,2.09a1.41,1.41,0,0,1,.15.48,5.37,5.37,0,0,1-1.09,4.26,2.19,2.19,0,0,0-.52,1.37,2.16,2.16,0,0,0,.3,1.09A2.7,2.7,0,0,0,24,58.24c6.31,1.49,8.15,2,8.79,2.19L37,61.56a16.61,16.61,0,0,1,11.59,11A60.34,60.34,0,0,1,51.6,91.89,1.44,1.44,0,0,1,50.17,93.29Zm-28-45.82Z"/><path class="cls-1" d="M29.25,30.44a4.63,4.63,0,0,1-3.72-1.9,1.44,1.44,0,1,1,2.32-1.7,1.67,1.67,0,0,0,3-.87,1.44,1.44,0,0,1,2.87.24,4.62,4.62,0,0,1-3.6,4.13A4,4,0,0,1,29.25,30.44Z"/><path class="cls-1" d="M50.57,67.7a37,37,0,0,1-14.63-3.46,1.44,1.44,0,0,1,1.27-2.58c.17.08,16.45,7.89,25.06-1.56A1.44,1.44,0,0,1,64.4,62C60.46,66.36,55.36,67.7,50.57,67.7Z"/><path class="cls-1" d="M87.25,89A1.45,1.45,0,0,1,85.9,88l-6.67-18.2a1.44,1.44,0,1,1,2.7-1L88.61,87a1.45,1.45,0,0,1-.86,1.85A1.42,1.42,0,0,1,87.25,89Z"/><path class="cls-1" d="M9.1,41.29a.78.78,0,0,1-.22,0,1.44,1.44,0,0,1-1.21-1.64A17.68,17.68,0,0,1,13.45,29.2a1.44,1.44,0,1,1,1.87,2.19,14.17,14.17,0,0,0-3.26,4.13,14.67,14.67,0,0,0-1.54,4.55A1.45,1.45,0,0,1,9.1,41.29Z"/><path class="cls-1" d="M1.85,44.29A1.44,1.44,0,0,1,.46,43.22c-1-3.84-.31-8.52,2-12.82S8.19,22.9,12,21.6a1.44,1.44,0,1,1,.93,2.72c-3,1.05-6,3.82-7.91,7.43S2.41,39.37,3.24,42.47a1.44,1.44,0,0,1-1,1.77A1.57,1.57,0,0,1,1.85,44.29Z"/></g></g></svg>