<svg xmlns="http://www.w3.org/2000/svg" viewBox="0 0 92.6 95"><defs><style>.cls-1{fill:#fff;}</style></defs><g id="Layer_2" data-name="Layer 2"><g id="Layer_1-2" data-name="Layer 1"><path class="cls-1" d="M86.3,22.07a1.43,1.43,0,0,0-1.12,1.7c2.51,12.42-6.21,26.1-9,30A7,7,0,0,0,75,56.92c-2.55,20.72-7.08,35.2-11,35.2-3.71,0-12-6.28-12.52-24.93a8.63,8.63,0,0,0-5-7.79,4.83,4.83,0,0,0-4.41,0,8.63,8.63,0,0,0-5,7.79c-.52,18.65-8.81,24.93-12.51,24.93-3.94,0-8.48-14.48-11-35.2a6.94,6.94,0,0,0-1.21-3.15c-2.78-4-16.07-24.42-5-38.45,10.4-13.23,20-8.86,31.22-3.79l2,.87a28.14,28.14,0,0,1-9.12,1.76,1.44,1.44,0,0,0,0,2.88c4.65,0,9.11-1.42,13.44-3.21l.1,0c1.74-.72,3.47-1.49,5.17-2.26C57.16,8.3,63.88,5.26,70.48,7.17a1.44,1.44,0,1,0,.8-2.77C63.65,2.19,56.13,5.61,48.86,8.9c-1.52.69-3,1.38-4.59,2-1.53-.64-3.08-1.34-4.58-2C28.44,3.81,16.82-1.46,5,13.54c-12,15.24.76,35.91,5,41.88a4.05,4.05,0,0,1,.7,1.85C12.4,71.36,16.51,95,24.55,95c4.76,0,14.8-6.77,15.39-27.71v-.07A5.77,5.77,0,0,1,43.38,62a1.93,1.93,0,0,1,1.78,0,5.76,5.76,0,0,1,3.44,5.25h0v.07C49.2,88.22,59.23,95,64,95c8,0,12.15-23.64,13.88-37.73a4.07,4.07,0,0,1,.71-1.85c2.9-4.14,12.15-18.68,9.41-32.23A1.44,1.44,0,0,0,86.3,22.07Z"/><path class="cls-1" d="M91.16,10.64A9.22,9.22,0,0,1,82,1.44a1.44,1.44,0,0,0-2.88,0,9.21,9.21,0,0,1-9.2,9.2,1.44,1.44,0,1,0,0,2.88,9.21,9.21,0,0,1,9.2,9.21,1.44,1.44,0,0,0,2.88,0,9.22,9.22,0,0,1,9.21-9.21,1.44,1.44,0,0,0,0-2.88ZM80.51,17a12.13,12.13,0,0,0-4.93-4.93,12.07,12.07,0,0,0,4.93-4.93,12.19,12.19,0,0,0,4.93,4.93A12.25,12.25,0,0,0,80.51,17Z"/><path class="cls-1" d="M60.86,34.18a1.45,1.45,0,0,0-1.44,1.44,9.22,9.22,0,0,1-9.2,9.21,1.44,1.44,0,0,0,0,2.88,9.21,9.21,0,0,1,9.2,9.2,1.44,1.44,0,0,0,2.88,0,9.22,9.22,0,0,1,9.21-9.2,1.44,1.44,0,0,0,0-2.88,9.22,9.22,0,0,1-9.21-9.21A1.44,1.44,0,0,0,60.86,34.18Zm4.93,12.09a12.23,12.23,0,0,0-4.93,4.92,12.1,12.1,0,0,0-4.93-4.92,12.19,12.19,0,0,0,4.93-4.93A12.31,12.31,0,0,0,65.79,46.27Z"/><path class="cls-1" d="M27.64,23.07a1.44,1.44,0,0,0-2.88,0,9.21,9.21,0,0,1-9.2,9.2,1.44,1.44,0,0,0,0,2.88,9.22,9.22,0,0,1,9.2,9.21,1.44,1.44,0,1,0,2.88,0,9.22,9.22,0,0,1,9.21-9.21,1.44,1.44,0,0,0,0-2.88A9.22,9.22,0,0,1,27.64,23.07ZM26.2,38.64a12.13,12.13,0,0,0-4.93-4.93,12.07,12.07,0,0,0,4.93-4.93,12.19,12.19,0,0,0,4.93,4.93A12.25,12.25,0,0,0,26.2,38.64Z"/></g></g></svg>